<svg width="32" height="32" viewBox="0 0 32 32" fill="none" xmlns="http://www.w3.org/2000/svg">
<path opacity="0.8" d="M8 5.33464C8 4.62739 8.28095 3.94911 8.78105 3.44902C9.28115 2.94892 9.95942 2.66797 10.6667 2.66797H26.6667C27.3739 2.66797 28.0522 2.94892 28.5523 3.44902C29.0524 3.94911 29.3333 4.62739 29.3333 5.33464V21.3346C29.3333 22.0419 29.0524 22.7202 28.5523 23.2203C28.0522 23.7204 27.3739 24.0013 26.6667 24.0013M13.3333 2.66797V5.33464M24 2.66797V5.33464M29.3333 13.3346H26.6667M29.3333 8.0013H26.6667M26.6667 18.668H29.3333" stroke="#F5F5F5" stroke-width="3" stroke-linecap="round" stroke-linejoin="round"/>
<path d="M7.99984 8V29.3333M18.6665 8V29.3333M2.6665 13.3333H7.99984M2.6665 24H7.99984M2.6665 18.6667H23.9998M18.6665 13.3333H23.9998M18.6665 24H23.9998M2.6665 10.6667C2.6665 9.95942 2.94746 9.28115 3.44755 8.78105C3.94765 8.28095 4.62593 8 5.33317 8H21.3332C22.0404 8 22.7187 8.28095 23.2188 8.78105C23.7189 9.28115 23.9998 9.95942 23.9998 10.6667V26.6667C23.9998 27.3739 23.7189 28.0522 23.2188 28.5523C22.7187 29.0524 22.0404 29.3333 21.3332 29.3333H5.33317C4.62593 29.3333 3.94765 29.0524 3.44755 28.5523C2.94746 28.0522 2.6665 27.3739 2.6665 26.6667V10.6667Z" stroke="#F5F5F5" stroke-width="3" stroke-linecap="round" stroke-linejoin="round"/>
</svg>
