<svg width="22" height="26" viewBox="0 0 22 26" fill="none" xmlns="http://www.w3.org/2000/svg">
<path d="M13.6667 1V6.33333C13.6667 6.68696 13.8071 7.02609 14.0572 7.27614C14.3072 7.52619 14.6464 7.66667 15 7.66667H20.3333" stroke="#F5F5F5" stroke-width="2" stroke-linecap="round" stroke-linejoin="round"/>
<path d="M11 11.6667V19.6667M17.6667 25H4.33333C3.62609 25 2.94781 24.719 2.44771 24.219C1.94762 23.7189 1.66666 23.0406 1.66666 22.3333V3.66667C1.66666 2.95942 1.94762 2.28115 2.44771 1.78105C2.94781 1.28095 3.62609 1 4.33333 1H13.6667L20.3333 7.66667V22.3333C20.3333 23.0406 20.0524 23.7189 19.5523 24.219C19.0522 24.719 18.3739 25 17.6667 25Z" stroke="#F5F5F5" stroke-width="2" stroke-linecap="round" stroke-linejoin="round"/>
<path d="M7.66666 15.0013L11 11.668L14.3333 15.0013" stroke="#F5F5F5" stroke-width="2" stroke-linecap="round" stroke-linejoin="round"/>
</svg>
