<svg width="48" height="49" viewBox="0 0 48 49" fill="none" xmlns="http://www.w3.org/2000/svg">
<path d="M24 0.996094C29.6709 0.996094 33.8739 0.996857 37.1006 1.43066C40.3129 1.86255 42.4829 2.71528 44.1318 4.36426C45.7808 6.01323 46.6335 8.18319 47.0654 11.3955C47.4992 14.6222 47.5 18.8252 47.5 24.4961C47.5 30.167 47.4992 34.37 47.0654 37.5967C46.6335 40.809 45.7808 42.979 44.1318 44.6279C42.4829 46.2769 40.3129 47.1296 37.1006 47.5615C33.8739 47.9953 29.6709 47.9961 24 47.9961C18.3291 47.9961 14.1261 47.9953 10.8994 47.5615C7.68709 47.1296 5.51714 46.2769 3.86816 44.6279C2.21919 42.979 1.36646 40.809 0.93457 37.5967C0.500763 34.37 0.5 30.167 0.5 24.4961C0.5 18.8252 0.500763 14.6222 0.93457 11.3955C1.36646 8.18319 2.21919 6.01323 3.86816 4.36426C5.51714 2.71528 7.68709 1.86255 10.8994 1.43066C14.1261 0.996857 18.3291 0.996094 24 0.996094Z" fill="#F07F26" fill-opacity="0.3"/>
<path d="M24 0.996094C29.6709 0.996094 33.8739 0.996857 37.1006 1.43066C40.3129 1.86255 42.4829 2.71528 44.1318 4.36426C45.7808 6.01323 46.6335 8.18319 47.0654 11.3955C47.4992 14.6222 47.5 18.8252 47.5 24.4961C47.5 30.167 47.4992 34.37 47.0654 37.5967C46.6335 40.809 45.7808 42.979 44.1318 44.6279C42.4829 46.2769 40.3129 47.1296 37.1006 47.5615C33.8739 47.9953 29.6709 47.9961 24 47.9961C18.3291 47.9961 14.1261 47.9953 10.8994 47.5615C7.68709 47.1296 5.51714 46.2769 3.86816 44.6279C2.21919 42.979 1.36646 40.809 0.93457 37.5967C0.500763 34.37 0.5 30.167 0.5 24.4961C0.5 18.8252 0.500763 14.6222 0.93457 11.3955C1.36646 8.18319 2.21919 6.01323 3.86816 4.36426C5.51714 2.71528 7.68709 1.86255 10.8994 1.43066C14.1261 0.996857 18.3291 0.996094 24 0.996094Z" stroke="#F07F26"/>
<path d="M33.125 18.9961C32.9419 21.538 31.0562 23.4961 29 23.4961C26.9437 23.4961 25.055 21.5386 24.875 18.9961C24.6875 16.3517 26.5231 14.4961 29 14.4961C31.4769 14.4961 33.3125 16.3998 33.125 18.9961Z" stroke="#F07F26" stroke-width="3" stroke-linecap="round" stroke-linejoin="round"/>
<path d="M29.0002 27.4961C24.9271 27.4961 21.0102 29.5192 20.029 33.4592C19.899 33.9805 20.2259 34.4961 20.7615 34.4961H37.2396C37.7752 34.4961 38.1002 33.9805 37.9721 33.4592C36.9909 29.4561 33.074 27.4961 29.0002 27.4961Z" stroke="#F07F26" stroke-width="3" stroke-miterlimit="10"/>
<path d="M20.5001 20.1173C20.3539 22.1473 18.8301 23.7461 17.1876 23.7461C15.5451 23.7461 14.0189 22.148 13.8751 20.1173C13.7257 18.0055 15.2089 16.4961 17.1876 16.4961C19.1664 16.4961 20.6495 18.0442 20.5001 20.1173Z" stroke="#F07F26" stroke-width="3" stroke-linecap="round" stroke-linejoin="round"/>
<path d="M20.8751 27.6219C19.747 27.105 18.5045 26.9062 17.1876 26.9062C13.9376 26.9062 10.8064 28.5219 10.022 31.6688C9.91887 32.085 10.1801 32.4969 10.6076 32.4969H17.6251" stroke="#F07F26" stroke-width="3" stroke-miterlimit="10" stroke-linecap="round"/>
</svg>
