<svg width="60" height="60" viewBox="0 0 60 60" fill="none" xmlns="http://www.w3.org/2000/svg">
<path d="M0 30C0 13.4315 13.4315 0 30 0C46.5685 0 60 13.4315 60 30C60 46.5685 46.5685 60 30 60C13.4315 60 0 46.5685 0 30Z" fill="#D00416" fill-opacity="0.3"/>
<path d="M24.1667 26.4987V35.832C24.1667 36.1414 24.0438 36.4382 23.825 36.657C23.6062 36.8758 23.3094 36.9987 23 36.9987H20.6667C20.3572 36.9987 20.0605 36.8758 19.8417 36.657C19.6229 36.4382 19.5 36.1414 19.5 35.832V27.6654C19.5 27.3559 19.6229 27.0592 19.8417 26.8404C20.0605 26.6216 20.3572 26.4987 20.6667 26.4987H24.1667ZM24.1667 26.4987C25.4043 26.4987 26.5913 26.007 27.4665 25.1319C28.3417 24.2567 28.8333 23.0697 28.8333 21.832V20.6654C28.8333 20.0465 29.0792 19.453 29.5168 19.0154C29.9543 18.5779 30.5478 18.332 31.1667 18.332C31.7855 18.332 32.379 18.5779 32.8166 19.0154C33.2542 19.453 33.5 20.0465 33.5 20.6654V26.4987H37C37.6188 26.4987 38.2123 26.7445 38.6499 27.1821C39.0875 27.6197 39.3333 28.2132 39.3333 28.832L38.1667 34.6654C37.9989 35.3811 37.6806 35.9956 37.2598 36.4165C36.8389 36.8373 36.3383 37.0417 35.8333 36.9987H27.6667C26.7384 36.9987 25.8482 36.6299 25.1918 35.9736C24.5354 35.3172 24.1667 34.427 24.1667 33.4987" stroke="#D00416" stroke-width="3" stroke-linecap="round" stroke-linejoin="round"/>
</svg>
