<svg width="22" height="22" viewBox="0 0 22 22" fill="none" xmlns="http://www.w3.org/2000/svg">
<path d="M10.175 13.475L9.9 3.08C9.9 2.86 9.99167 2.75 10.175 2.75H10.4225C11.1192 2.75 11.6508 2.9425 12.0175 3.3275C12.4025 3.69417 12.5858 4.30833 12.5675 5.17L12.3475 13.475C12.3475 13.6767 12.2558 13.7775 12.0725 13.7775H10.4775C10.2758 13.7775 10.175 13.6767 10.175 13.475ZM11.2475 18.315C10.8075 18.315 10.4225 18.1592 10.0925 17.8475C9.78083 17.5175 9.625 17.1142 9.625 16.6375C9.625 16.1608 9.78083 15.7667 10.0925 15.455C10.4225 15.1433 10.8075 14.9875 11.2475 14.9875C11.7242 14.9875 12.1092 15.1433 12.4025 15.455C12.7142 15.7667 12.87 16.1608 12.87 16.6375C12.87 17.1325 12.7142 17.5358 12.4025 17.8475C12.1092 18.1592 11.7242 18.315 11.2475 18.315Z" fill="#FB3748"/>
</svg>
