<svg width="24" height="24" viewBox="0 0 24 24" fill="none" xmlns="http://www.w3.org/2000/svg">
<path opacity="0.5" d="M12 21.9961C7.286 21.9961 4.929 21.9961 3.464 20.5311C2 19.0681 2 16.7101 2 11.9961C2 7.28209 2 4.92509 3.464 3.46009C4.93 1.99609 7.286 1.99609 12 1.99609C16.714 1.99609 19.071 1.99609 20.535 3.46009C22 4.92609 22 7.28209 22 11.9961C22 16.7101 22 19.0671 20.535 20.5311C19.072 21.9961 16.714 21.9961 12 21.9961Z" fill="#F5F5F5"/>
<path d="M12 5.24609C12.1989 5.24609 12.3897 5.32511 12.5303 5.46576C12.671 5.60642 12.75 5.79718 12.75 5.99609V17.9961C12.75 18.195 12.671 18.3858 12.5303 18.5264C12.3897 18.6671 12.1989 18.7461 12 18.7461C11.8011 18.7461 11.6103 18.6671 11.4697 18.5264C11.329 18.3858 11.25 18.195 11.25 17.9961V5.99609C11.25 5.79718 11.329 5.60642 11.4697 5.46576C11.6103 5.32511 11.8011 5.24609 12 5.24609ZM7 8.24609C7.19891 8.24609 7.38968 8.32511 7.53033 8.46576C7.67098 8.60642 7.75 8.79718 7.75 8.99609V17.9961C7.75 18.195 7.67098 18.3858 7.53033 18.5264C7.38968 18.6671 7.19891 18.7461 7 18.7461C6.80109 18.7461 6.61032 18.6671 6.46967 18.5264C6.32902 18.3858 6.25 18.195 6.25 17.9961V8.99609C6.25 8.79718 6.32902 8.60642 6.46967 8.46576C6.61032 8.32511 6.80109 8.24609 7 8.24609ZM17 12.2461C17.1989 12.2461 17.3897 12.3251 17.5303 12.4658C17.671 12.6064 17.75 12.7972 17.75 12.9961V17.9961C17.75 18.195 17.671 18.3858 17.5303 18.5264C17.3897 18.6671 17.1989 18.7461 17 18.7461C16.8011 18.7461 16.6103 18.6671 16.4697 18.5264C16.329 18.3858 16.25 18.195 16.25 17.9961V12.9961C16.25 12.7972 16.329 12.6064 16.4697 12.4658C16.6103 12.3251 16.8011 12.2461 17 12.2461Z" fill="#F5F5F5"/>
</svg>
