<svg width="23" height="22" viewBox="0 0 23 22" fill="none" xmlns="http://www.w3.org/2000/svg">
<path d="M9.66677 19.0443C8.86914 18.8626 8.10298 18.5632 7.39344 18.156M13.3334 2.95312C15.1559 3.36936 16.7831 4.39201 17.9485 5.85365C19.114 7.31529 19.7487 9.12931 19.7487 10.9987C19.7487 12.8681 19.114 14.6821 17.9485 16.1438C16.7831 17.6054 15.1559 18.6281 13.3334 19.0443M4.69752 15.6673C4.19802 14.9405 3.81828 14.1383 3.57277 13.2913M3.36377 9.62371C3.51044 8.75288 3.79277 7.92787 4.18877 7.17162L4.34369 6.89204M6.83152 4.19612C7.6897 3.6066 8.65172 3.18484 9.66677 2.95312" stroke="#FFDB43" stroke-width="2" stroke-linecap="round" stroke-linejoin="round"/>
<path d="M11.5 7.33203V10.9987L14.25 13.7487" stroke="#FFDB43" stroke-width="2" stroke-linecap="round" stroke-linejoin="round"/>
</svg>
