<svg width="48" height="49" viewBox="0 0 48 49" fill="none" xmlns="http://www.w3.org/2000/svg">
<path d="M24 0.996094C29.6709 0.996094 33.8739 0.996857 37.1006 1.43066C40.3129 1.86255 42.4829 2.71528 44.1318 4.36426C45.7808 6.01323 46.6335 8.18319 47.0654 11.3955C47.4992 14.6222 47.5 18.8252 47.5 24.4961C47.5 30.167 47.4992 34.37 47.0654 37.5967C46.6335 40.809 45.7808 42.979 44.1318 44.6279C42.4829 46.2769 40.3129 47.1296 37.1006 47.5615C33.8739 47.9953 29.6709 47.9961 24 47.9961C18.3291 47.9961 14.1261 47.9953 10.8994 47.5615C7.68709 47.1296 5.51714 46.2769 3.86816 44.6279C2.21919 42.979 1.36646 40.809 0.93457 37.5967C0.500763 34.37 0.5 30.167 0.5 24.4961C0.5 18.8252 0.500763 14.6222 0.93457 11.3955C1.36646 8.18319 2.21919 6.01323 3.86816 4.36426C5.51714 2.71528 7.68709 1.86255 10.8994 1.43066C14.1261 0.996857 18.3291 0.996094 24 0.996094Z" fill="#1482C9" fill-opacity="0.3"/>
<path d="M24 0.996094C29.6709 0.996094 33.8739 0.996857 37.1006 1.43066C40.3129 1.86255 42.4829 2.71528 44.1318 4.36426C45.7808 6.01323 46.6335 8.18319 47.0654 11.3955C47.4992 14.6222 47.5 18.8252 47.5 24.4961C47.5 30.167 47.4992 34.37 47.0654 37.5967C46.6335 40.809 45.7808 42.979 44.1318 44.6279C42.4829 46.2769 40.3129 47.1296 37.1006 47.5615C33.8739 47.9953 29.6709 47.9961 24 47.9961C18.3291 47.9961 14.1261 47.9953 10.8994 47.5615C7.68709 47.1296 5.51714 46.2769 3.86816 44.6279C2.21919 42.979 1.36646 40.809 0.93457 37.5967C0.500763 34.37 0.5 30.167 0.5 24.4961C0.5 18.8252 0.500763 14.6222 0.93457 11.3955C1.36646 8.18319 2.21919 6.01323 3.86816 4.36426C5.51714 2.71528 7.68709 1.86255 10.8994 1.43066C14.1261 0.996857 18.3291 0.996094 24 0.996094Z" stroke="#1482C9"/>
<path d="M12.3665 28.8895C11.2332 27.4175 10.6665 26.6801 10.6665 24.4948C10.6665 22.3081 11.2332 21.5735 12.3665 20.1001C14.6292 17.1615 18.4238 13.8281 23.9998 13.8281C29.5758 13.8281 33.3705 17.1615 35.6332 20.1001C36.7665 21.5748 37.3332 22.3095 37.3332 24.4948C37.3332 26.6815 36.7665 27.4161 35.6332 28.8895C33.3705 31.8281 29.5758 35.1615 23.9998 35.1615C18.4238 35.1615 14.6292 31.8281 12.3665 28.8895Z" stroke="#1482C9" stroke-width="3"/>
<path d="M28 24.4961C28 25.557 27.5786 26.5744 26.8284 27.3245C26.0783 28.0747 25.0609 28.4961 24 28.4961C22.9391 28.4961 21.9217 28.0747 21.1716 27.3245C20.4214 26.5744 20 25.557 20 24.4961C20 23.4352 20.4214 22.4178 21.1716 21.6677C21.9217 20.9175 22.9391 20.4961 24 20.4961C25.0609 20.4961 26.0783 20.9175 26.8284 21.6677C27.5786 22.4178 28 23.4352 28 24.4961Z" stroke="#1482C9" stroke-width="3"/>
</svg>
