<svg width="48" height="48" viewBox="0 0 48 48" fill="none" xmlns="http://www.w3.org/2000/svg">
<path d="M32 12C32 7.58172 28.4183 4 24 4C19.5817 4 16 7.58172 16 12V24C16 28.4183 19.5817 32 24 32C28.4183 32 32 28.4183 32 24V12Z" stroke="#F5F5F5" stroke-width="3" stroke-linecap="round" stroke-linejoin="round"/>
<path d="M10 21V24C10 31.732 16.268 38 24 38C31.732 38 38 31.732 38 24V21M24 5V11M16 16H21M27 16H32M16 22H21M27 22H32" stroke="#F5F5F5" stroke-width="3" stroke-linecap="round" stroke-linejoin="round"/>
<path d="M24 38V44" stroke="#F5F5F5" stroke-width="3"/>
<path d="M16 44H32" stroke="#F5F5F5" stroke-width="3" stroke-linecap="round" stroke-linejoin="round"/>
</svg>
