<svg width="60" height="60" viewBox="0 0 60 60" fill="none" xmlns="http://www.w3.org/2000/svg">
<path d="M0 30C0 13.4315 13.4315 0 30 0C46.5685 0 60 13.4315 60 30C60 46.5685 46.5685 60 30 60C13.4315 60 0 46.5685 0 30Z" fill="#1482C9" fill-opacity="0.3"/>
<path d="M37.9842 25.1875C37.8239 27.4116 36.174 29.125 34.3748 29.125C32.5756 29.125 30.9229 27.4122 30.7654 25.1875C30.6014 22.8737 32.2075 21.25 34.3748 21.25C36.5421 21.25 38.1482 22.9158 37.9842 25.1875Z" stroke="#1482C9" stroke-width="3" stroke-linecap="round" stroke-linejoin="round"/>
<path d="M34.3748 32.625C30.8108 32.625 27.3835 34.3952 26.5249 37.8427C26.4112 38.2988 26.6972 38.75 27.1659 38.75H41.5842C42.0529 38.75 42.3373 38.2988 42.2252 37.8427C41.3666 34.34 37.9393 32.625 34.3748 32.625Z" stroke="#1482C9" stroke-width="3" stroke-miterlimit="10"/>
<path d="M26.9373 26.1686C26.8093 27.9448 25.476 29.3438 24.0389 29.3438C22.6017 29.3438 21.2662 27.9454 21.1404 26.1686C21.0097 24.3207 22.3074 23 24.0389 23C25.7703 23 27.068 24.3546 26.9373 26.1686Z" stroke="#1482C9" stroke-width="3" stroke-linecap="round" stroke-linejoin="round"/>
<path d="M27.2657 32.7355C26.2786 32.2833 25.1914 32.1094 24.0391 32.1094C21.1954 32.1094 18.4555 33.523 17.7692 36.2766C17.679 36.6408 17.9075 37.0012 18.2816 37.0012H24.4219" stroke="#1482C9" stroke-width="3" stroke-miterlimit="10" stroke-linecap="round"/>
</svg>
