<svg width="32" height="33" viewBox="0 0 32 33" fill="none" xmlns="http://www.w3.org/2000/svg">
<path d="M16 0.996094C19.7854 0.996094 22.5745 0.996807 24.7119 1.28418C26.8348 1.56963 28.2406 2.12925 29.3037 3.19238C30.3668 4.25552 30.9265 5.66129 31.2119 7.78418C31.4993 9.92163 31.5 12.7107 31.5 16.4961C31.5 20.2815 31.4993 23.0706 31.2119 25.208C30.9265 27.3309 30.3668 28.7367 29.3037 29.7998C28.2406 30.8629 26.8348 31.4226 24.7119 31.708C22.5745 31.9954 19.7854 31.9961 16 31.9961C12.2146 31.9961 9.42554 31.9954 7.28809 31.708C5.16519 31.4226 3.75943 30.8629 2.69629 29.7998C1.63315 28.7367 1.07354 27.3309 0.788086 25.208C0.500713 23.0706 0.5 20.2815 0.5 16.4961C0.5 12.7107 0.500713 9.92163 0.788086 7.78418C1.07354 5.66129 1.63315 4.25552 2.69629 3.19238C3.75943 2.12925 5.16519 1.56963 7.28809 1.28418C9.42554 0.996807 12.2146 0.996094 16 0.996094Z" fill="#1FC16B" fill-opacity="0.3"/>
<path d="M16 0.996094C19.7854 0.996094 22.5745 0.996807 24.7119 1.28418C26.8348 1.56963 28.2406 2.12925 29.3037 3.19238C30.3668 4.25552 30.9265 5.66129 31.2119 7.78418C31.4993 9.92163 31.5 12.7107 31.5 16.4961C31.5 20.2815 31.4993 23.0706 31.2119 25.208C30.9265 27.3309 30.3668 28.7367 29.3037 29.7998C28.2406 30.8629 26.8348 31.4226 24.7119 31.708C22.5745 31.9954 19.7854 31.9961 16 31.9961C12.2146 31.9961 9.42554 31.9954 7.28809 31.708C5.16519 31.4226 3.75943 30.8629 2.69629 29.7998C1.63315 28.7367 1.07354 27.3309 0.788086 25.208C0.500713 23.0706 0.5 20.2815 0.5 16.4961C0.5 12.7107 0.500713 9.92163 0.788086 7.78418C1.07354 5.66129 1.63315 4.25552 2.69629 3.19238C3.75943 2.12925 5.16519 1.56963 7.28809 1.28418C9.42554 0.996807 12.2146 0.996094 16 0.996094Z" stroke="#1FC16B"/>
<path d="M11 13.4961V21.4961C11 21.7613 10.8946 22.0157 10.7071 22.2032C10.5196 22.3907 10.2652 22.4961 10 22.4961H8C7.73478 22.4961 7.48043 22.3907 7.29289 22.2032C7.10536 22.0157 7 21.7613 7 21.4961V14.4961C7 14.2309 7.10536 13.9765 7.29289 13.789C7.48043 13.6015 7.73478 13.4961 8 13.4961H11ZM11 13.4961C12.0609 13.4961 13.0783 13.0747 13.8284 12.3245C14.5786 11.5744 15 10.557 15 9.49609V8.49609C15 7.96566 15.2107 7.45695 15.5858 7.08188C15.9609 6.70681 16.4696 6.49609 17 6.49609C17.5304 6.49609 18.0391 6.70681 18.4142 7.08188C18.7893 7.45695 19 7.96566 19 8.49609V13.4961H22C22.5304 13.4961 23.0391 13.7068 23.4142 14.0819C23.7893 14.457 24 14.9657 24 15.4961L23 20.4961C22.8562 21.1096 22.5834 21.6363 22.2227 21.9971C21.8619 22.3578 21.4328 22.5329 21 22.4961H14C13.2044 22.4961 12.4413 22.18 11.8787 21.6174C11.3161 21.0548 11 20.2917 11 19.4961" stroke="#1FC16B" stroke-width="2" stroke-linecap="round" stroke-linejoin="round"/>
</svg>
