<svg width="24" height="24" viewBox="0 0 24 24" fill="none" xmlns="http://www.w3.org/2000/svg">
<path d="M10 20.7767C9.12989 20.5784 8.29407 20.2518 7.52002 19.8077M14 3.22266C15.9882 3.67673 17.7633 4.79235 19.0347 6.38686C20.3061 7.98138 20.9985 9.96031 20.9985 11.9997C20.9985 14.039 20.3061 16.0179 19.0347 17.6125C17.7633 19.207 15.9882 20.3226 14 20.7767M4.57902 17.0927C4.03412 16.2998 3.61986 15.4247 3.35202 14.5007M3.12402 10.4997C3.28402 9.54966 3.59202 8.64966 4.02402 7.82466L4.19302 7.51966M6.90702 4.57866C7.84322 3.93553 8.8927 3.47544 10 3.22266" stroke="#F5F5F5" stroke-width="2" stroke-linecap="round" stroke-linejoin="round"/>
<path d="M12 8V12L15 15" stroke="#F5F5F5" stroke-width="2" stroke-linecap="round" stroke-linejoin="round"/>
</svg>
