<svg width="60" height="60" viewBox="0 0 60 60" fill="none" xmlns="http://www.w3.org/2000/svg">
<path d="M0 30C0 13.4315 13.4315 0 30 0C46.5685 0 60 13.4315 60 30C60 46.5685 46.5685 60 30 60C13.4315 60 0 46.5685 0 30Z" fill="#1FC16B" fill-opacity="0.3"/>
<path d="M19.821 33.8466C18.8293 32.5586 18.3335 31.9135 18.3335 30.0013C18.3335 28.088 18.8293 27.4451 19.821 26.156C21.8008 23.5846 25.1212 20.668 30.0002 20.668C34.8792 20.668 38.1995 23.5846 40.1793 26.156C41.171 27.4463 41.6668 28.0891 41.6668 30.0013C41.6668 31.9146 41.171 32.5575 40.1793 33.8466C38.1995 36.418 34.8792 39.3346 30.0002 39.3346C25.1212 39.3346 21.8008 36.418 19.821 33.8466Z" stroke="#1FC16B" stroke-width="3"/>
<path d="M33.5 30C33.5 30.9283 33.1313 31.8185 32.4749 32.4749C31.8185 33.1313 30.9283 33.5 30 33.5C29.0717 33.5 28.1815 33.1313 27.5251 32.4749C26.8687 31.8185 26.5 30.9283 26.5 30C26.5 29.0717 26.8687 28.1815 27.5251 27.5251C28.1815 26.8687 29.0717 26.5 30 26.5C30.9283 26.5 31.8185 26.8687 32.4749 27.5251C33.1313 28.1815 33.5 29.0717 33.5 30Z" stroke="#1FC16B" stroke-width="3"/>
</svg>
