<svg width="60" height="60" viewBox="0 0 60 60" fill="none" xmlns="http://www.w3.org/2000/svg">
<path d="M0 30C0 13.4315 13.4315 0 30 0C46.5685 0 60 13.4315 60 30C60 46.5685 46.5685 60 30 60C13.4315 60 0 46.5685 0 30Z" fill="#DFB400" fill-opacity="0.3"/>
<path d="M16 35.5984L22.4204 29.178C22.9455 28.6531 23.6575 28.3582 24.4 28.3582C25.1425 28.3582 25.8545 28.6531 26.3796 29.178L30.8204 33.6188C31.3455 34.1438 32.0575 34.4386 32.8 34.4386C33.5425 34.4386 34.2545 34.1438 34.7796 33.6188L44 24.3984M44 24.3984V31.3984M44 24.3984H37" stroke="#DFB400" stroke-width="3" stroke-linecap="round" stroke-linejoin="round"/>
</svg>
