<svg width="25" height="25" viewBox="0 0 25 25" fill="none" xmlns="http://www.w3.org/2000/svg">
<path d="M3.5 10.4961H21.5M7.5 15.4961H7.51M11.5 15.4961H13.5M3.5 8.49609C3.5 7.70044 3.81607 6.93738 4.37868 6.37477C4.94129 5.81216 5.70435 5.49609 6.5 5.49609H18.5C19.2956 5.49609 20.0587 5.81216 20.6213 6.37477C21.1839 6.93738 21.5 7.70044 21.5 8.49609V16.4961C21.5 17.2917 21.1839 18.0548 20.6213 18.6174C20.0587 19.18 19.2956 19.4961 18.5 19.4961H6.5C5.70435 19.4961 4.94129 19.18 4.37868 18.6174C3.81607 18.0548 3.5 17.2917 3.5 16.4961V8.49609Z" stroke="#F5F5F5" stroke-width="2" stroke-linecap="round" stroke-linejoin="round"/>
</svg>
