<svg width="33" height="33" viewBox="0 0 33 33" fill="none" xmlns="http://www.w3.org/2000/svg">
<path d="M16.6665 0.996094C20.4519 0.996094 23.241 0.996807 25.3784 1.28418C27.5013 1.56963 28.9071 2.12925 29.9702 3.19238C31.0334 4.25552 31.593 5.66129 31.8784 7.78418C32.1658 9.92163 32.1665 12.7107 32.1665 16.4961C32.1665 20.2815 32.1658 23.0706 31.8784 25.208C31.593 27.3309 31.0334 28.7367 29.9702 29.7998C28.9071 30.8629 27.5013 31.4226 25.3784 31.708C23.241 31.9954 20.4519 31.9961 16.6665 31.9961C12.8811 31.9961 10.092 31.9954 7.95459 31.708C5.8317 31.4226 4.42593 30.8629 3.36279 29.7998C2.29966 28.7367 1.74004 27.3309 1.45459 25.208C1.16722 23.0706 1.1665 20.2815 1.1665 16.4961C1.1665 12.7107 1.16722 9.92163 1.45459 7.78418C1.74004 5.66129 2.29966 4.25552 3.36279 3.19238C4.42593 2.12925 5.8317 1.56963 7.95459 1.28418C10.092 0.996807 12.8811 0.996094 16.6665 0.996094Z" fill="#F07F26" fill-opacity="0.3"/>
<path d="M16.6665 0.996094C20.4519 0.996094 23.241 0.996807 25.3784 1.28418C27.5013 1.56963 28.9071 2.12925 29.9702 3.19238C31.0334 4.25552 31.593 5.66129 31.8784 7.78418C32.1658 9.92163 32.1665 12.7107 32.1665 16.4961C32.1665 20.2815 32.1658 23.0706 31.8784 25.208C31.593 27.3309 31.0334 28.7367 29.9702 29.7998C28.9071 30.8629 27.5013 31.4226 25.3784 31.708C23.241 31.9954 20.4519 31.9961 16.6665 31.9961C12.8811 31.9961 10.092 31.9954 7.95459 31.708C5.8317 31.4226 4.42593 30.8629 3.36279 29.7998C2.29966 28.7367 1.74004 27.3309 1.45459 25.208C1.16722 23.0706 1.1665 20.2815 1.1665 16.4961C1.1665 12.7107 1.16722 9.92163 1.45459 7.78418C1.74004 5.66129 2.29966 4.25552 3.36279 3.19238C4.42593 2.12925 5.8317 1.56963 7.95459 1.28418C10.092 0.996807 12.8811 0.996094 16.6665 0.996094Z" stroke="#F07F26"/>
<path d="M21.6665 8.49609C22.1711 8.49593 22.6571 8.6865 23.0271 9.02959C23.397 9.37268 23.6237 9.84294 23.6615 10.3461L23.6665 10.4961V12.4961H24.6665C25.1711 12.4959 25.6571 12.6865 26.0271 13.0296C26.397 13.3727 26.6237 13.8429 26.6615 14.3461L26.6665 14.4961V23.4961C26.6667 24.0007 26.4761 24.4867 26.133 24.8566C25.7899 25.2266 25.3197 25.4533 24.8165 25.4911L24.6665 25.4961H20.6665C20.3423 25.496 20.0231 25.4172 19.7362 25.2663C19.4492 25.1154 19.2033 24.8971 19.0195 24.6301L18.9345 24.4961H8.6665C8.16193 24.4963 7.67594 24.3057 7.30596 23.9626C6.93597 23.6195 6.70935 23.1492 6.6715 22.6461L6.6665 22.4961V10.4961C6.66634 9.99152 6.85691 9.50553 7.2 9.13555C7.54309 8.76556 8.01335 8.53894 8.5165 8.50109L8.6665 8.49609H21.6665ZM24.6665 14.4961H20.6665V23.4961H24.6665V14.4961ZM21.6665 10.4961H8.6665V22.4961H18.6665V14.4961C18.6665 13.9657 18.8772 13.457 19.2523 13.0819C19.6274 12.7068 20.1361 12.4961 20.6665 12.4961H21.6665V10.4961Z" fill="#F07F26"/>
</svg>
