<svg width="33" height="33" viewBox="0 0 33 33" fill="none" xmlns="http://www.w3.org/2000/svg">
<path d="M13.3335 4.49609H20.0002C20.5306 4.49609 21.0393 4.70681 21.4144 5.08188C21.7894 5.45695 22.0002 5.96566 22.0002 6.49609C22.0002 7.73377 21.5085 8.92076 20.6333 9.79593C19.7582 10.6711 18.5712 11.1628 17.3335 11.1628H16.0002C14.7625 11.1628 13.5755 10.6711 12.7003 9.79593C11.8252 8.92076 11.3335 7.73377 11.3335 6.49609C11.3335 5.96566 11.5442 5.45695 11.9193 5.08188C12.2944 4.70681 12.8031 4.49609 13.3335 4.49609Z" stroke="#DFB400" stroke-width="3" stroke-linecap="round" stroke-linejoin="round"/>
<path d="M6 23.1641V21.8307C6 19.0018 7.12381 16.2886 9.12419 14.2883C11.1246 12.2879 13.8377 11.1641 16.6667 11.1641C19.4956 11.1641 22.2088 12.2879 24.2091 14.2883C26.2095 16.2886 27.3333 19.0018 27.3333 21.8307V23.1641C27.3333 24.5785 26.7714 25.9351 25.7712 26.9353C24.771 27.9355 23.4145 28.4974 22 28.4974H11.3333C9.91885 28.4974 8.56229 27.9355 7.5621 26.9353C6.5619 25.9351 6 24.5785 6 23.1641Z" stroke="#DFB400" stroke-width="3" stroke-linecap="round" stroke-linejoin="round"/>
</svg>
