<svg width="48" height="48" viewBox="0 0 48 48" fill="none" xmlns="http://www.w3.org/2000/svg">
<path d="M20 8L28 40M24 24L8 28M8 12C8 10.9391 8.42143 9.92172 9.17157 9.17157C9.92172 8.42143 10.9391 8 12 8H36C37.0609 8 38.0783 8.42143 38.8284 9.17157C39.5786 9.92172 40 10.9391 40 12V36C40 37.0609 39.5786 38.0783 38.8284 38.8284C38.0783 39.5786 37.0609 40 36 40H12C10.9391 40 9.92172 39.5786 9.17157 38.8284C8.42143 38.0783 8 37.0609 8 36V12Z" stroke="#F5F5F5" stroke-width="3" stroke-linecap="round" stroke-linejoin="round"/>
<path d="M28 11.5387C29.3333 13 29.3333 14.25 28 15.5C30 15.8125 31 16.125 31.3333 18C32.6667 16.125 35.3333 15.5 37.3333 18C37.3333 16.125 38 15.5 40 15.4975C38.6667 14.2496 38.6667 13.0004 40 11.75C38 11.75 36.6667 10.5 36.6667 8.625C35.3333 11.125 33.3333 10.5 31.6667 8C31.3333 9.875 30 11.125 28 11.5387Z" stroke="#F5F5F5" stroke-width="2" stroke-linecap="round" stroke-linejoin="round"/>
<path d="M9 33.5387C10.3333 35 10.3333 36.25 9 37.5C11 37.8125 12 38.125 12.3333 40C13.6667 38.125 16.3333 37.5 18.3333 40C18.3333 38.125 19 37.5 21 37.4975C19.6667 36.2496 19.6667 35.0004 21 33.75C19 33.75 17.6667 32.5 17.6667 30.625C16.3333 33.125 14.3333 32.5 12.6667 30C12.3333 31.875 11 33.125 9 33.5387Z" stroke="#F5F5F5" stroke-width="2" stroke-linecap="round" stroke-linejoin="round"/>
</svg>
