<svg width="98" height="103" viewBox="0 0 98 103" fill="none" xmlns="http://www.w3.org/2000/svg">
<g filter="url(#filter0_d_1628_4301)">
<path opacity="0.8" d="M25 15.8334C25 13.7338 25.8341 11.7201 27.3187 10.2355C28.8034 8.75082 30.817 7.91675 32.9167 7.91675H80.4167C82.5163 7.91675 84.5299 8.75082 86.0146 10.2355C87.4993 11.7201 88.3333 13.7338 88.3333 15.8334V63.3334C88.3333 65.433 87.4993 67.4467 86.0146 68.9313C84.5299 70.416 82.5163 71.2501 80.4167 71.2501M40.8333 7.91675V15.8334M72.5 7.91675V15.8334M88.3333 39.5834H80.4167M88.3333 23.7501H80.4167M80.4167 55.4167H88.3333" stroke="#0881AB" stroke-width="6" stroke-linecap="round" stroke-linejoin="round"/>
<path d="M24.9998 23.75V87.0833M56.6665 23.75V87.0833M9.1665 39.5833H24.9998M9.1665 71.25H24.9998M9.1665 55.4167H72.4998M56.6665 39.5833H72.4998M56.6665 71.25H72.4998M9.1665 31.6667C9.1665 29.567 10.0006 27.5534 11.4852 26.0687C12.9699 24.5841 14.9835 23.75 17.0832 23.75H64.5832C66.6828 23.75 68.6964 24.5841 70.1811 26.0687C71.6658 27.5534 72.4998 29.567 72.4998 31.6667V79.1667C72.4998 81.2663 71.6658 83.2799 70.1811 84.7646C68.6964 86.2493 66.6828 87.0833 64.5832 87.0833H17.0832C14.9835 87.0833 12.9699 86.2493 11.4852 84.7646C10.0006 83.2799 9.1665 81.2663 9.1665 79.1667V31.6667Z" stroke="#0881AB" stroke-width="6" stroke-linecap="round" stroke-linejoin="round"/>
</g>
<defs>
<filter id="filter0_d_1628_4301" x="-4.75" y="0" width="107" height="107" filterUnits="userSpaceOnUse" color-interpolation-filters="sRGB">
<feFlood flood-opacity="0" result="BackgroundImageFix"/>
<feColorMatrix in="SourceAlpha" type="matrix" values="0 0 0 0 0 0 0 0 0 0 0 0 0 0 0 0 0 0 127 0" result="hardAlpha"/>
<feOffset dy="6"/>
<feGaussianBlur stdDeviation="3"/>
<feComposite in2="hardAlpha" operator="out"/>
<feColorMatrix type="matrix" values="0 0 0 0 0 0 0 0 0 0 0 0 0 0 0 0 0 0 0.5 0"/>
<feBlend mode="normal" in2="BackgroundImageFix" result="effect1_dropShadow_1628_4301"/>
<feBlend mode="normal" in="SourceGraphic" in2="effect1_dropShadow_1628_4301" result="shape"/>
</filter>
</defs>
</svg>
