<svg width="96" height="95" viewBox="0 0 96 95" fill="none" xmlns="http://www.w3.org/2000/svg">
<g filter="url(#filter0_d_1628_4315)">
<g filter="url(#filter1_d_1628_4315)">
<path d="M75.9567 67.2915H27.0824C23.5088 67.2915 20.54 69.2707 20.54 71.2498M60.1253 31.6665H36.3752V40.5728M60.1253 49.479H36.3752V40.5728M36.3752 40.5728H54.1878" stroke="#0881AB" stroke-width="6" stroke-linecap="round" stroke-linejoin="round" shape-rendering="crispEdges"/>
</g>
<path d="M75.9587 15.8333V79.1666H28.4587C26.359 79.1666 24.3454 78.3325 22.8607 76.8478C21.3761 75.3632 20.542 73.3495 20.542 71.2499V23.7499C20.542 21.6503 21.3761 19.6367 22.8607 18.152C24.3454 16.6673 26.359 15.8333 28.4587 15.8333H75.9587Z" stroke="#0881AB" stroke-width="6" stroke-linecap="round" stroke-linejoin="round"/>
</g>
<defs>
<filter id="filter0_d_1628_4315" x="-5.25" y="0" width="107" height="107" filterUnits="userSpaceOnUse" color-interpolation-filters="sRGB">
<feFlood flood-opacity="0" result="BackgroundImageFix"/>
<feColorMatrix in="SourceAlpha" type="matrix" values="0 0 0 0 0 0 0 0 0 0 0 0 0 0 0 0 0 0 127 0" result="hardAlpha"/>
<feOffset dy="6"/>
<feGaussianBlur stdDeviation="3"/>
<feComposite in2="hardAlpha" operator="out"/>
<feColorMatrix type="matrix" values="0 0 0 0 0 0 0 0 0 0 0 0 0 0 0 0 0 0 0.5 0"/>
<feBlend mode="normal" in2="BackgroundImageFix" result="effect1_dropShadow_1628_4315"/>
<feBlend mode="normal" in="SourceGraphic" in2="effect1_dropShadow_1628_4315" result="shape"/>
</filter>
<filter id="filter1_d_1628_4315" x="11.54" y="28.6665" width="73.4165" height="57.5833" filterUnits="userSpaceOnUse" color-interpolation-filters="sRGB">
<feFlood flood-opacity="0" result="BackgroundImageFix"/>
<feColorMatrix in="SourceAlpha" type="matrix" values="0 0 0 0 0 0 0 0 0 0 0 0 0 0 0 0 0 0 127 0" result="hardAlpha"/>
<feOffset dy="6"/>
<feGaussianBlur stdDeviation="3"/>
<feComposite in2="hardAlpha" operator="out"/>
<feColorMatrix type="matrix" values="0 0 0 0 0 0 0 0 0 0 0 0 0 0 0 0 0 0 0.5 0"/>
<feBlend mode="normal" in2="BackgroundImageFix" result="effect1_dropShadow_1628_4315"/>
<feBlend mode="normal" in="SourceGraphic" in2="effect1_dropShadow_1628_4315" result="shape"/>
</filter>
</defs>
</svg>
