<svg width="97" height="102" viewBox="0 0 97 102" fill="none" xmlns="http://www.w3.org/2000/svg">
<g filter="url(#filter0_d_1628_4297)">
<path d="M28.75 8V87M68.25 8V87M9 27.75H28.75M9 67.25H28.75M9 47.5H88M68.25 27.75H88M68.25 67.25H88M9 17.875C9 15.256 10.0404 12.7442 11.8923 10.8923C13.7442 9.0404 16.256 8 18.875 8H78.125C80.744 8 83.2558 9.0404 85.1077 10.8923C86.9596 12.7442 88 15.256 88 17.875V77.125C88 79.744 86.9596 82.2558 85.1077 84.1077C83.2558 85.9596 80.744 87 78.125 87H18.875C16.256 87 13.7442 85.9596 11.8923 84.1077C10.0404 82.2558 9 79.744 9 77.125V17.875Z" stroke="#0881AB" stroke-width="6" stroke-linecap="round" stroke-linejoin="round"/>
</g>
<defs>
<filter id="filter0_d_1628_4297" x="-5" y="0" width="107" height="107" filterUnits="userSpaceOnUse" color-interpolation-filters="sRGB">
<feFlood flood-opacity="0" result="BackgroundImageFix"/>
<feColorMatrix in="SourceAlpha" type="matrix" values="0 0 0 0 0 0 0 0 0 0 0 0 0 0 0 0 0 0 127 0" result="hardAlpha"/>
<feOffset dy="6"/>
<feGaussianBlur stdDeviation="3"/>
<feComposite in2="hardAlpha" operator="out"/>
<feColorMatrix type="matrix" values="0 0 0 0 0 0 0 0 0 0 0 0 0 0 0 0 0 0 0.5 0"/>
<feBlend mode="normal" in2="BackgroundImageFix" result="effect1_dropShadow_1628_4297"/>
<feBlend mode="normal" in="SourceGraphic" in2="effect1_dropShadow_1628_4297" result="shape"/>
</filter>
</defs>
</svg>
