<svg width="48" height="48" viewBox="0 0 48 48" fill="none" xmlns="http://www.w3.org/2000/svg">
<path d="M34 30.0096V14.0096C34 13.4792 34.2107 12.9705 34.5858 12.5954C34.9609 12.2203 35.4696 12.0096 36 12.0096H40C40.5304 12.0096 41.0391 12.2203 41.4142 12.5954C41.7893 12.9705 42 13.4792 42 14.0096V28.0096C42 28.5401 41.7893 29.0488 41.4142 29.4238C41.0391 29.7989 40.5304 30.0096 40 30.0096H34ZM34 30.0096C31.8783 30.0096 29.8434 30.8525 28.3431 32.3528C26.8429 33.8531 26 35.8879 26 38.0096V40.0096C26 41.0705 25.5786 42.0879 24.8284 42.8381C24.0783 43.5882 23.0609 44.0096 22 44.0096C20.9391 44.0096 19.9217 43.5882 19.1716 42.8381C18.4214 42.0879 18 41.0705 18 40.0096V30.0096H12C10.9391 30.0096 9.92172 29.5882 9.17157 28.8381C8.42143 28.0879 8 27.0705 8 26.0096L10 16.0096C10.2876 14.7827 10.8333 13.7291 11.5547 13.0077C12.2761 12.2863 13.1343 11.936 14 12.0096H28C29.5913 12.0096 31.1174 12.6418 32.2426 13.767C33.3679 14.8922 34 16.4183 34 18.0096" stroke="#F5F5F5" stroke-width="4" stroke-linecap="round" stroke-linejoin="round"/>
</svg>
