<svg width="48" height="48" viewBox="0 0 48 48" fill="none" xmlns="http://www.w3.org/2000/svg">
<path d="M34 18V34C34 34.5304 34.2107 35.0391 34.5858 35.4142C34.9609 35.7893 35.4696 36 36 36H40C40.5304 36 41.0391 35.7893 41.4142 35.4142C41.7893 35.0391 42 34.5304 42 34V20C42 19.4696 41.7893 18.9609 41.4142 18.5858C41.0391 18.2107 40.5304 18 40 18H34ZM34 18C31.8783 18 29.8434 17.1571 28.3431 15.6569C26.8429 14.1566 26 12.1217 26 10V8C26 6.93913 25.5786 5.92172 24.8284 5.17157C24.0783 4.42143 23.0609 4 22 4C20.9391 4 19.9217 4.42143 19.1716 5.17157C18.4214 5.92172 18 6.93913 18 8V18H12C10.9391 18 9.92172 18.4214 9.17157 19.1716C8.42143 19.9217 8 20.9391 8 22L10 32C10.2876 33.2269 10.8333 34.2805 11.5547 35.0019C12.2761 35.7234 13.1343 36.0736 14 36H28C29.5913 36 31.1174 35.3679 32.2426 34.2426C33.3679 33.1174 34 31.5913 34 30" stroke="#F5F5F5" stroke-width="4" stroke-linecap="round" stroke-linejoin="round"/>
</svg>
