<svg width="32" height="32" viewBox="0 0 32 32" fill="none" xmlns="http://www.w3.org/2000/svg">
<path d="M3.33203 16.0002C3.33203 10.0295 3.33203 7.04283 5.1867 5.18816C7.04136 3.3335 10.0267 3.3335 16 3.3335C21.9707 3.3335 24.956 3.3335 26.8107 5.18816C28.6654 7.04283 28.6654 10.0282 28.6654 16.0002C28.6654 21.9708 28.6654 24.9575 26.8107 26.8122C24.956 28.6668 21.9707 28.6668 15.9987 28.6668C10.028 28.6668 7.0427 28.6668 5.1867 26.8122C3.33336 24.9562 3.33203 21.9722 3.33203 16.0002Z" stroke="#F5F5F5" stroke-width="2" stroke-linecap="round" stroke-linejoin="round"/>
<path d="M9.33203 22.6668L14.924 17.0762M14.924 17.0762L9.33203 9.3335H13.0347L17.0747 14.9255L22.6654 9.3335M14.924 17.0762L18.9614 22.6668H22.6654L17.0747 14.9242" stroke="#F5F5F5" stroke-width="2" stroke-linecap="round" stroke-linejoin="round"/>
</svg>
