<svg width="119" height="39" viewBox="0 0 119 39" fill="none" xmlns="http://www.w3.org/2000/svg">
<rect x="0.25" y="0.25" width="118.5" height="38.5" rx="3.75" fill="#393939"/>
<rect x="0.25" y="0.25" width="118.5" height="38.5" rx="3.75" stroke="#DEDEDE" stroke-width="0.5"/>
<g clip-path="url(#clip0_49_408)">
<g filter="url(#filter0_d_49_408)">
<path d="M27 16.5L16.5 28M16.5 11L27 22.5M16 11.21V27.79C16 27.9129 16.0324 28.0336 16.0939 28.14C16.1553 28.2463 16.2437 28.3347 16.3501 28.3961C16.4565 28.4575 16.5772 28.4898 16.7001 28.4898C16.8229 28.4898 16.9436 28.4575 17.05 28.396L31.672 19.976C31.7557 19.9278 31.8252 19.8583 31.8735 19.7747C31.9219 19.691 31.9473 19.5961 31.9473 19.4995C31.9473 19.4029 31.9219 19.308 31.8735 19.2244C31.8252 19.1407 31.7557 19.0713 31.672 19.023L17.05 10.604C16.9435 10.5426 16.8227 10.5102 16.6998 10.5103C16.5769 10.5103 16.4561 10.5427 16.3497 10.6042C16.2432 10.6658 16.1549 10.7542 16.0935 10.8608C16.0321 10.9673 15.9999 11.0871 16 11.21Z" stroke="#F5F5F5" stroke-width="1.2" stroke-linecap="round" stroke-linejoin="round" shape-rendering="crispEdges"/>
</g>
</g>
<path d="M46.526 13.572C46.194 13.572 45.888 13.52 45.608 13.416C45.332 13.308 45.09 13.156 44.882 12.96C44.678 12.764 44.518 12.534 44.402 12.27C44.29 12.006 44.234 11.716 44.234 11.4C44.234 11.084 44.29 10.794 44.402 10.53C44.518 10.266 44.68 10.036 44.888 9.84C45.096 9.644 45.34 9.494 45.62 9.39C45.9 9.282 46.208 9.228 46.544 9.228C46.916 9.228 47.25 9.29 47.546 9.414C47.846 9.538 48.098 9.718 48.302 9.954L47.678 10.53C47.526 10.37 47.36 10.252 47.18 10.176C47 10.096 46.804 10.056 46.592 10.056C46.388 10.056 46.202 10.088 46.034 10.152C45.866 10.216 45.72 10.308 45.596 10.428C45.476 10.548 45.382 10.69 45.314 10.854C45.25 11.018 45.218 11.2 45.218 11.4C45.218 11.596 45.25 11.776 45.314 11.94C45.382 12.104 45.476 12.248 45.596 12.372C45.72 12.492 45.864 12.584 46.028 12.648C46.196 12.712 46.38 12.744 46.58 12.744C46.772 12.744 46.958 12.714 47.138 12.654C47.322 12.59 47.5 12.484 47.672 12.336L48.224 13.038C47.996 13.21 47.73 13.342 47.426 13.434C47.126 13.526 46.826 13.572 46.526 13.572ZM47.336 12.912V11.334H48.224V13.038L47.336 12.912ZM50.0209 10.992H52.0429V11.748H50.0209V10.992ZM50.0929 12.72H52.3789V13.5H49.1269V9.3H52.3009V10.08H50.0929V12.72ZM54.0223 13.5V10.092H52.6783V9.3H56.3383V10.092H54.9943V13.5H54.0223ZM58.5605 13.5V9.3H59.5325V13.5H58.5605ZM60.5293 13.5V9.3H61.3333L63.8113 12.324H63.4212V9.3H64.3813V13.5H63.5833L61.0993 10.476H61.4893V13.5H60.5293ZM69.1142 13.572C68.7822 13.572 68.4742 13.518 68.1902 13.41C67.9102 13.302 67.6662 13.15 67.4582 12.954C67.2542 12.758 67.0942 12.528 66.9782 12.264C66.8662 12 66.8102 11.712 66.8102 11.4C66.8102 11.088 66.8662 10.8 66.9782 10.536C67.0942 10.272 67.2562 10.042 67.4642 9.846C67.6722 9.65 67.9162 9.498 68.1962 9.39C68.4762 9.282 68.7802 9.228 69.1082 9.228C69.4402 9.228 69.7442 9.282 70.0202 9.39C70.3002 9.498 70.5422 9.65 70.7462 9.846C70.9542 10.042 71.1162 10.272 71.2322 10.536C71.3482 10.796 71.4062 11.084 71.4062 11.4C71.4062 11.712 71.3482 12.002 71.2322 12.27C71.1162 12.534 70.9542 12.764 70.7462 12.96C70.5422 13.152 70.3002 13.302 70.0202 13.41C69.7442 13.518 69.4422 13.572 69.1142 13.572ZM69.1082 12.744C69.2962 12.744 69.4682 12.712 69.6242 12.648C69.7842 12.584 69.9242 12.492 70.0442 12.372C70.1642 12.252 70.2562 12.11 70.3202 11.946C70.3882 11.782 70.4222 11.6 70.4222 11.4C70.4222 11.2 70.3882 11.018 70.3202 10.854C70.2562 10.69 70.1642 10.548 70.0442 10.428C69.9282 10.308 69.7902 10.216 69.6302 10.152C69.4702 10.088 69.2962 10.056 69.1082 10.056C68.9202 10.056 68.7462 10.088 68.5862 10.152C68.4302 10.216 68.2922 10.308 68.1722 10.428C68.0522 10.548 67.9582 10.69 67.8902 10.854C67.8262 11.018 67.7942 11.2 67.7942 11.4C67.7942 11.596 67.8262 11.778 67.8902 11.946C67.9582 12.11 68.0502 12.252 68.1662 12.372C68.2862 12.492 68.4262 12.584 68.5862 12.648C68.7462 12.712 68.9202 12.744 69.1082 12.744ZM72.1367 13.5V9.3H72.9407L75.4187 12.324H75.0287V9.3H75.9887V13.5H75.1907L72.7067 10.476H73.0967V13.5H72.1367Z" fill="#DEDEDE"/>
<path d="M45.128 28.5V20.1H48.584C49.328 20.1 49.964 20.22 50.492 20.46C51.028 20.7 51.44 21.044 51.728 21.492C52.016 21.94 52.16 22.472 52.16 23.088C52.16 23.704 52.016 24.236 51.728 24.684C51.44 25.132 51.028 25.476 50.492 25.716C49.964 25.956 49.328 26.076 48.584 26.076H45.992L46.688 25.344V28.5H45.128ZM46.688 25.512L45.992 24.756H48.512C49.2 24.756 49.716 24.612 50.06 24.324C50.412 24.028 50.588 23.616 50.588 23.088C50.588 22.552 50.412 22.14 50.06 21.852C49.716 21.564 49.2 21.42 48.512 21.42H45.992L46.688 20.652V25.512ZM53.691 28.5V19.596H55.191V28.5H53.691ZM61.1078 28.5V27.204L61.0238 26.928V24.66C61.0238 24.22 60.8918 23.88 60.6278 23.64C60.3638 23.392 59.9638 23.268 59.4278 23.268C59.0678 23.268 58.7118 23.324 58.3598 23.436C58.0158 23.548 57.7238 23.704 57.4838 23.904L56.8958 22.812C57.2398 22.548 57.6478 22.352 58.1198 22.224C58.5998 22.088 59.0958 22.02 59.6078 22.02C60.5358 22.02 61.2518 22.244 61.7558 22.692C62.2678 23.132 62.5238 23.816 62.5238 24.744V28.5H61.1078ZM59.0918 28.584C58.6118 28.584 58.1918 28.504 57.8318 28.344C57.4718 28.176 57.1918 27.948 56.9918 27.66C56.7998 27.364 56.7038 27.032 56.7038 26.664C56.7038 26.304 56.7878 25.98 56.9558 25.692C57.1318 25.404 57.4158 25.176 57.8078 25.008C58.1998 24.84 58.7198 24.756 59.3678 24.756H61.2278V25.752H59.4758C58.9638 25.752 58.6198 25.836 58.4438 26.004C58.2678 26.164 58.1798 26.364 58.1798 26.604C58.1798 26.876 58.2878 27.092 58.5038 27.252C58.7198 27.412 59.0198 27.492 59.4038 27.492C59.7718 27.492 60.0998 27.408 60.3878 27.24C60.6838 27.072 60.8958 26.824 61.0238 26.496L61.2758 27.396C61.1318 27.772 60.8718 28.064 60.4958 28.272C60.1278 28.48 59.6598 28.584 59.0918 28.584ZM64.8597 30.912C64.5477 30.912 64.2357 30.86 63.9237 30.756C63.6117 30.652 63.3517 30.508 63.1437 30.324L63.7437 29.22C63.8957 29.356 64.0677 29.464 64.2597 29.544C64.4517 29.624 64.6477 29.664 64.8477 29.664C65.1197 29.664 65.3397 29.596 65.5077 29.46C65.6757 29.324 65.8317 29.096 65.9757 28.776L66.3477 27.936L66.4677 27.756L68.8917 22.092H70.3317L67.3317 29.016C67.1317 29.496 66.9077 29.876 66.6597 30.156C66.4197 30.436 66.1477 30.632 65.8437 30.744C65.5477 30.856 65.2197 30.912 64.8597 30.912ZM66.1797 28.728L63.2877 22.092H64.8477L67.1997 27.624L66.1797 28.728ZM77.3336 28.62C76.6776 28.62 76.0496 28.528 75.4496 28.344C74.8496 28.152 74.3736 27.908 74.0216 27.612L74.5616 26.4C74.8976 26.664 75.3136 26.884 75.8096 27.06C76.3056 27.236 76.8136 27.324 77.3336 27.324C77.7736 27.324 78.1296 27.276 78.4016 27.18C78.6736 27.084 78.8736 26.956 79.0016 26.796C79.1296 26.628 79.1936 26.44 79.1936 26.232C79.1936 25.976 79.1016 25.772 78.9176 25.62C78.7336 25.46 78.4936 25.336 78.1976 25.248C77.9096 25.152 77.5856 25.064 77.2256 24.984C76.8736 24.904 76.5176 24.812 76.1576 24.708C75.8056 24.596 75.4816 24.456 75.1856 24.288C74.8976 24.112 74.6616 23.88 74.4776 23.592C74.2936 23.304 74.2016 22.936 74.2016 22.488C74.2016 22.032 74.3216 21.616 74.5616 21.24C74.8096 20.856 75.1816 20.552 75.6776 20.328C76.1816 20.096 76.8176 19.98 77.5856 19.98C78.0896 19.98 78.5896 20.044 79.0856 20.172C79.5816 20.3 80.0136 20.484 80.3816 20.724L79.8896 21.936C79.5136 21.712 79.1256 21.548 78.7256 21.444C78.3256 21.332 77.9416 21.276 77.5736 21.276C77.1416 21.276 76.7896 21.328 76.5176 21.432C76.2536 21.536 76.0576 21.672 75.9296 21.84C75.8096 22.008 75.7496 22.2 75.7496 22.416C75.7496 22.672 75.8376 22.88 76.0136 23.04C76.1976 23.192 76.4336 23.312 76.7216 23.4C77.0176 23.488 77.3456 23.576 77.7056 23.664C78.0656 23.744 78.4216 23.836 78.7736 23.94C79.1336 24.044 79.4576 24.18 79.7456 24.348C80.0416 24.516 80.2776 24.744 80.4536 25.032C80.6376 25.32 80.7296 25.684 80.7296 26.124C80.7296 26.572 80.6056 26.988 80.3576 27.372C80.1176 27.748 79.7456 28.052 79.2416 28.284C78.7376 28.508 78.1016 28.62 77.3336 28.62ZM84.5444 28.584C83.8404 28.584 83.2964 28.404 82.9124 28.044C82.5284 27.676 82.3364 27.136 82.3364 26.424V20.676H83.8364V26.388C83.8364 26.692 83.9124 26.928 84.0644 27.096C84.2244 27.264 84.4444 27.348 84.7244 27.348C85.0604 27.348 85.3404 27.26 85.5644 27.084L85.9844 28.152C85.8084 28.296 85.5924 28.404 85.3364 28.476C85.0804 28.548 84.8164 28.584 84.5444 28.584ZM81.2804 23.34V22.14H85.5524V23.34H81.2804ZM89.8874 28.584C89.2314 28.584 88.6474 28.444 88.1354 28.164C87.6234 27.876 87.2194 27.484 86.9234 26.988C86.6274 26.492 86.4794 25.928 86.4794 25.296C86.4794 24.656 86.6274 24.092 86.9234 23.604C87.2194 23.108 87.6234 22.72 88.1354 22.44C88.6474 22.16 89.2314 22.02 89.8874 22.02C90.5514 22.02 91.1394 22.16 91.6514 22.44C92.1714 22.72 92.5754 23.104 92.8634 23.592C93.1594 24.08 93.3074 24.648 93.3074 25.296C93.3074 25.928 93.1594 26.492 92.8634 26.988C92.5754 27.484 92.1714 27.876 91.6514 28.164C91.1394 28.444 90.5514 28.584 89.8874 28.584ZM89.8874 27.3C90.2554 27.3 90.5834 27.22 90.8714 27.06C91.1594 26.9 91.3834 26.668 91.5434 26.364C91.7114 26.06 91.7954 25.704 91.7954 25.296C91.7954 24.88 91.7114 24.524 91.5434 24.228C91.3834 23.924 91.1594 23.692 90.8714 23.532C90.5834 23.372 90.2594 23.292 89.8994 23.292C89.5314 23.292 89.2034 23.372 88.9154 23.532C88.6354 23.692 88.4114 23.924 88.2434 24.228C88.0754 24.524 87.9914 24.88 87.9914 25.296C87.9914 25.704 88.0754 26.06 88.2434 26.364C88.4114 26.668 88.6354 26.9 88.9154 27.06C89.2034 27.22 89.5274 27.3 89.8874 27.3ZM94.7418 28.5V22.092H96.1698V23.856L96.0018 23.34C96.1938 22.908 96.4938 22.58 96.9018 22.356C97.3178 22.132 97.8338 22.02 98.4498 22.02V23.448C98.3858 23.432 98.3258 23.424 98.2698 23.424C98.2138 23.416 98.1578 23.412 98.1018 23.412C97.5338 23.412 97.0818 23.58 96.7458 23.916C96.4098 24.244 96.2418 24.736 96.2418 25.392V28.5H94.7418ZM102.676 28.584C101.964 28.584 101.34 28.444 100.804 28.164C100.276 27.876 99.8637 27.484 99.5677 26.988C99.2797 26.492 99.1357 25.928 99.1357 25.296C99.1357 24.656 99.2757 24.092 99.5557 23.604C99.8437 23.108 100.236 22.72 100.732 22.44C101.236 22.16 101.808 22.02 102.448 22.02C103.072 22.02 103.628 22.156 104.116 22.428C104.604 22.7 104.988 23.084 105.268 23.58C105.548 24.076 105.688 24.66 105.688 25.332C105.688 25.396 105.684 25.468 105.676 25.548C105.676 25.628 105.672 25.704 105.664 25.776H100.324V24.78H104.872L104.284 25.092C104.292 24.724 104.216 24.4 104.056 24.12C103.896 23.84 103.676 23.62 103.396 23.46C103.124 23.3 102.808 23.22 102.448 23.22C102.08 23.22 101.756 23.3 101.476 23.46C101.204 23.62 100.988 23.844 100.828 24.132C100.676 24.412 100.6 24.744 100.6 25.128V25.368C100.6 25.752 100.688 26.092 100.864 26.388C101.04 26.684 101.288 26.912 101.608 27.072C101.928 27.232 102.296 27.312 102.712 27.312C103.072 27.312 103.396 27.256 103.684 27.144C103.972 27.032 104.228 26.856 104.452 26.616L105.256 27.54C104.968 27.876 104.604 28.136 104.164 28.32C103.732 28.496 103.236 28.584 102.676 28.584Z" fill="#DEDEDE"/>
<defs>
<filter id="filter0_d_49_408" x="3.3999" y="-2.08984" width="41.1475" height="43.1797" filterUnits="userSpaceOnUse" color-interpolation-filters="sRGB">
<feFlood flood-opacity="0" result="BackgroundImageFix"/>
<feColorMatrix in="SourceAlpha" type="matrix" values="0 0 0 0 0 0 0 0 0 0 0 0 0 0 0 0 0 0 127 0" result="hardAlpha"/>
<feOffset/>
<feGaussianBlur stdDeviation="6"/>
<feComposite in2="hardAlpha" operator="out"/>
<feColorMatrix type="matrix" values="0 0 0 0 0.2 0 0 0 0 0.2 0 0 0 0 0.2 0 0 0 0.7 0"/>
<feBlend mode="normal" in2="BackgroundImageFix" result="effect1_dropShadow_49_408"/>
<feBlend mode="normal" in="SourceGraphic" in2="effect1_dropShadow_49_408" result="shape"/>
</filter>
<clipPath id="clip0_49_408">
<rect width="24" height="24" fill="white" transform="translate(12 7.5)"/>
</clipPath>
</defs>
</svg>
