<svg width="24" height="25" viewBox="0 0 24 25" fill="none" xmlns="http://www.w3.org/2000/svg">
<g clip-path="url(#clip0_49_427)">
<g filter="url(#filter0_d_49_427)">
<path d="M8.286 7.508C5.07 7.508 4 10.738 4 13.428C4 16.657 6.143 21.5 8.286 21.5C9.451 21.45 10.085 20.962 11.5 20.962C12.906 20.962 13.107 21.5 14.714 21.5C16.321 21.5 19 18.271 19 16.119C18.97 16.108 16.351 15.685 16.321 12.889C16.301 10.554 18.91 9.71 19 9.661C17.904 8.055 15.838 7.548 15.25 7.508C13.715 7.388 12.218 8.585 11.5 8.585C10.771 8.585 9.464 7.508 8.286 7.508ZM12 4.5C12.5304 4.5 13.0391 4.28929 13.4142 3.91421C13.7893 3.53914 14 3.03043 14 2.5C13.4696 2.5 12.9609 2.71071 12.5858 3.08579C12.2107 3.46086 12 3.96957 12 4.5Z" stroke="#F5F5F5" stroke-width="1.2" stroke-linecap="round" stroke-linejoin="round" shape-rendering="crispEdges"/>
</g>
</g>
<defs>
<filter id="filter0_d_49_427" x="-8.6001" y="-10.1001" width="40.2002" height="44.2002" filterUnits="userSpaceOnUse" color-interpolation-filters="sRGB">
<feFlood flood-opacity="0" result="BackgroundImageFix"/>
<feColorMatrix in="SourceAlpha" type="matrix" values="0 0 0 0 0 0 0 0 0 0 0 0 0 0 0 0 0 0 127 0" result="hardAlpha"/>
<feOffset/>
<feGaussianBlur stdDeviation="6"/>
<feComposite in2="hardAlpha" operator="out"/>
<feColorMatrix type="matrix" values="0 0 0 0 0.2 0 0 0 0 0.2 0 0 0 0 0.2 0 0 0 0.7 0"/>
<feBlend mode="normal" in2="BackgroundImageFix" result="effect1_dropShadow_49_427"/>
<feBlend mode="normal" in="SourceGraphic" in2="effect1_dropShadow_49_427" result="shape"/>
</filter>
<clipPath id="clip0_49_427">
<rect width="24" height="24" fill="white" transform="translate(0 0.5)"/>
</clipPath>
</defs>
</svg>
