<svg width="32" height="32" viewBox="0 0 32 32" fill="none" xmlns="http://www.w3.org/2000/svg">
<path fill-rule="evenodd" clip-rule="evenodd" d="M5.33464 15.9998C5.33483 13.9471 5.92732 11.938 7.04102 10.2137C8.15472 8.48933 9.74232 7.12296 11.6133 6.27852C13.4843 5.43408 15.5592 5.14744 17.5891 5.453C19.6189 5.75856 21.5175 6.64334 23.057 8.00116C24.5965 9.35899 25.7115 11.1322 26.2682 13.108C26.8249 15.0838 26.7997 17.1782 26.1956 19.1401C25.5914 21.1019 24.4341 22.8477 22.8623 24.1681C21.2906 25.4884 19.3713 26.3272 17.3346 26.5838V18.6665H20.0013C20.3549 18.6665 20.6941 18.526 20.9441 18.276C21.1942 18.0259 21.3346 17.6868 21.3346 17.3332C21.3346 16.9795 21.1942 16.6404 20.9441 16.3904C20.6941 16.1403 20.3549 15.9998 20.0013 15.9998H17.3346V13.3332C17.3346 12.9795 17.4751 12.6404 17.7252 12.3904C17.9752 12.1403 18.3143 11.9998 18.668 11.9998H19.3346C19.6883 11.9998 20.0274 11.8594 20.2774 11.6093C20.5275 11.3593 20.668 11.0201 20.668 10.6665C20.668 10.3129 20.5275 9.97374 20.2774 9.7237C20.0274 9.47365 19.6883 9.33317 19.3346 9.33317H18.668C17.6071 9.33317 16.5897 9.7546 15.8395 10.5047C15.0894 11.2549 14.668 12.2723 14.668 13.3332V15.9998H12.0013C11.6477 15.9998 11.3085 16.1403 11.0585 16.3904C10.8084 16.6404 10.668 16.9795 10.668 17.3332C10.668 17.6868 10.8084 18.0259 11.0585 18.276C11.3085 18.526 11.6477 18.6665 12.0013 18.6665H14.668V26.5838C12.0901 26.2591 9.71945 25.0045 8.00097 23.0558C6.2825 21.107 5.33439 18.5981 5.33464 15.9998ZM16.0013 29.3332C23.3653 29.3332 29.3346 23.3638 29.3346 15.9998C29.3346 8.63584 23.3653 2.6665 16.0013 2.6665C8.6373 2.6665 2.66797 8.63584 2.66797 15.9998C2.66797 23.3638 8.6373 29.3332 16.0013 29.3332Z" fill="#F5F5F5"/>
</svg>
