<svg width="36" height="40" viewBox="0 0 36 40" fill="none" xmlns="http://www.w3.org/2000/svg">
<path d="M12 30V32C12 33.5913 12.6321 35.1174 13.7574 36.2426C14.8826 37.3679 16.4087 38 18 38C19.5913 38 21.1174 37.3679 22.2426 36.2426C23.3679 35.1174 24 33.5913 24 32V30M14 6C14 4.93913 14.4214 3.92172 15.1716 3.17157C15.9217 2.42143 16.9391 2 18 2C19.0609 2 20.0783 2.42143 20.8284 3.17157C21.5786 3.92172 22 4.93913 22 6C24.2968 7.08605 26.2548 8.77665 27.6641 10.8906C29.0734 13.0045 29.8809 15.4621 30 18V24C30.1505 25.2434 30.5909 26.4341 31.2856 27.4762C31.9804 28.5184 32.9101 29.3828 34 30H2C3.08988 29.3828 4.01962 28.5184 4.71437 27.4762C5.40913 26.4341 5.84949 25.2434 6 24V18C6.11912 15.4621 6.9266 13.0045 8.3359 10.8906C9.7452 8.77665 11.7032 7.08605 14 6Z" stroke="#F5F5F5" stroke-width="4" stroke-linecap="round" stroke-linejoin="round"/>
</svg>
