<svg width="88" height="27" viewBox="0 0 88 27" fill="none" xmlns="http://www.w3.org/2000/svg">
<rect x="0.25" y="1.12012" width="87.5" height="25.5" rx="3.75" fill="#393939"/>
<rect x="0.25" y="1.12012" width="87.5" height="25.5" rx="3.75" stroke="#DEDEDE" stroke-width="0.5"/>
<g clip-path="url(#clip0_1882_24973)">
<g filter="url(#filter0_d_1882_24973)">
<path d="M18.0003 11.8701L11.0003 19.5368M11.0003 8.20347L18.0003 15.8701M10.667 8.34347V19.3968C10.667 19.4787 10.6886 19.5592 10.7296 19.6301C10.7705 19.701 10.8295 19.7599 10.9004 19.8008C10.9713 19.8418 11.0518 19.8633 11.1337 19.8633C11.2156 19.8633 11.2961 19.8418 11.367 19.8008L21.115 14.1875C21.1708 14.1553 21.2171 14.109 21.2494 14.0532C21.2816 13.9975 21.2985 13.9342 21.2985 13.8698C21.2985 13.8054 21.2816 13.7421 21.2494 13.6864C21.2171 13.6306 21.1708 13.5843 21.115 13.5521L11.367 7.93947C11.296 7.89849 11.2155 7.87693 11.1335 7.87695C11.0516 7.87698 10.9711 7.89858 10.9001 7.9396C10.8291 7.98063 10.7702 8.03961 10.7293 8.11063C10.6884 8.18164 10.6669 8.26151 10.667 8.34347Z" stroke="#F5F5F5" stroke-width="1.2" stroke-linecap="round" stroke-linejoin="round" shape-rendering="crispEdges"/>
</g>
</g>
<path d="M30.526 9.91812C30.202 9.91812 29.904 9.86612 29.632 9.76212C29.36 9.65412 29.124 9.50412 28.924 9.31212C28.724 9.11612 28.568 8.88812 28.456 8.62812C28.344 8.36812 28.288 8.08212 28.288 7.77012C28.288 7.45812 28.344 7.17212 28.456 6.91212C28.568 6.65212 28.724 6.42612 28.924 6.23412C29.128 6.03812 29.366 5.88812 29.638 5.78412C29.91 5.67612 30.21 5.62212 30.538 5.62212C30.87 5.62212 31.174 5.67612 31.45 5.78412C31.726 5.89212 31.96 6.05412 32.152 6.27012L31.78 6.64212C31.608 6.47412 31.42 6.35212 31.216 6.27612C31.016 6.19612 30.798 6.15612 30.562 6.15612C30.322 6.15612 30.098 6.19612 29.89 6.27612C29.686 6.35612 29.508 6.46812 29.356 6.61212C29.208 6.75612 29.092 6.92812 29.008 7.12812C28.928 7.32412 28.888 7.53812 28.888 7.77012C28.888 7.99812 28.928 8.21212 29.008 8.41212C29.092 8.60812 29.208 8.78012 29.356 8.92812C29.508 9.07212 29.686 9.18412 29.89 9.26412C30.094 9.34412 30.316 9.38412 30.556 9.38412C30.78 9.38412 30.994 9.35012 31.198 9.28212C31.406 9.21012 31.598 9.09212 31.774 8.92812L32.116 9.38412C31.908 9.56012 31.664 9.69412 31.384 9.78612C31.108 9.87412 30.822 9.91812 30.526 9.91812ZM31.54 9.30612V7.74612H32.116V9.38412L31.54 9.30612ZM33.8108 7.48212H35.9708V7.99212H33.8108V7.48212ZM33.8648 9.34812H36.3128V9.87012H33.2648V5.67012H36.2288V6.19212H33.8648V9.34812ZM38.1183 9.87012V6.19212H36.6783V5.67012H40.1523V6.19212H38.7123V9.87012H38.1183ZM42.4171 9.87012V5.67012H43.0171V9.87012H42.4171ZM44.2745 9.87012V5.67012H44.7665L47.5445 9.12012H47.2865V5.67012H47.8865V9.87012H47.3945L44.6165 6.42012H44.8745V9.87012H44.2745ZM52.651 9.91812C52.331 9.91812 52.033 9.86412 51.757 9.75612C51.485 9.64812 51.249 9.49812 51.049 9.30612C50.849 9.11012 50.693 8.88212 50.581 8.62212C50.469 8.36212 50.413 8.07812 50.413 7.77012C50.413 7.46212 50.469 7.17812 50.581 6.91812C50.693 6.65812 50.849 6.43212 51.049 6.24012C51.249 6.04412 51.485 5.89212 51.757 5.78412C52.029 5.67612 52.327 5.62212 52.651 5.62212C52.971 5.62212 53.265 5.67612 53.533 5.78412C53.805 5.88812 54.041 6.03812 54.241 6.23412C54.445 6.42612 54.601 6.65212 54.709 6.91212C54.821 7.17212 54.877 7.45812 54.877 7.77012C54.877 8.08212 54.821 8.36812 54.709 8.62812C54.601 8.88812 54.445 9.11612 54.241 9.31212C54.041 9.50412 53.805 9.65412 53.533 9.76212C53.265 9.86612 52.971 9.91812 52.651 9.91812ZM52.651 9.38412C52.883 9.38412 53.097 9.34412 53.293 9.26412C53.493 9.18412 53.665 9.07212 53.809 8.92812C53.957 8.78012 54.071 8.60812 54.151 8.41212C54.235 8.21612 54.277 8.00212 54.277 7.77012C54.277 7.53812 54.235 7.32412 54.151 7.12812C54.071 6.93212 53.957 6.76212 53.809 6.61812C53.665 6.47012 53.493 6.35612 53.293 6.27612C53.097 6.19612 52.883 6.15612 52.651 6.15612C52.415 6.15612 52.197 6.19612 51.997 6.27612C51.801 6.35612 51.629 6.47012 51.481 6.61812C51.333 6.76212 51.217 6.93212 51.133 7.12812C51.053 7.32412 51.013 7.53812 51.013 7.77012C51.013 8.00212 51.053 8.21612 51.133 8.41212C51.217 8.60812 51.333 8.78012 51.481 8.92812C51.629 9.07212 51.801 9.18412 51.997 9.26412C52.197 9.34412 52.415 9.38412 52.651 9.38412ZM55.7941 9.87012V5.67012H56.2861L59.0641 9.12012H58.8061V5.67012H59.4061V9.87012H58.9141L56.1361 6.42012H56.3941V9.87012H55.7941Z" fill="#DEDEDE"/>
<path d="M28.94 20.8701V13.8701H31.82C32.44 13.8701 32.97 13.9701 33.41 14.1701C33.8567 14.3701 34.2 14.6568 34.44 15.0301C34.68 15.4035 34.8 15.8468 34.8 16.3601C34.8 16.8735 34.68 17.3168 34.44 17.6901C34.2 18.0635 33.8567 18.3501 33.41 18.5501C32.97 18.7501 32.44 18.8501 31.82 18.8501H29.66L30.24 18.2401V20.8701H28.94ZM30.24 18.3801L29.66 17.7501H31.76C32.3333 17.7501 32.7633 17.6301 33.05 17.3901C33.3433 17.1435 33.49 16.8001 33.49 16.3601C33.49 15.9135 33.3433 15.5701 33.05 15.3301C32.7633 15.0901 32.3333 14.9701 31.76 14.9701H29.66L30.24 14.3301V18.3801ZM36.0759 20.8701V13.4501H37.3259V20.8701H36.0759ZM42.2565 20.8701V19.7901L42.1865 19.5601V17.6701C42.1865 17.3035 42.0765 17.0201 41.8565 16.8201C41.6365 16.6135 41.3032 16.5101 40.8565 16.5101C40.5565 16.5101 40.2598 16.5568 39.9665 16.6501C39.6798 16.7435 39.4365 16.8735 39.2365 17.0401L38.7465 16.1301C39.0332 15.9101 39.3732 15.7468 39.7665 15.6401C40.1665 15.5268 40.5798 15.4701 41.0065 15.4701C41.7798 15.4701 42.3765 15.6568 42.7965 16.0301C43.2232 16.3968 43.4365 16.9668 43.4365 17.7401V20.8701H42.2565ZM40.5765 20.9401C40.1765 20.9401 39.8265 20.8735 39.5265 20.7401C39.2265 20.6001 38.9932 20.4101 38.8265 20.1701C38.6665 19.9235 38.5865 19.6468 38.5865 19.3401C38.5865 19.0401 38.6565 18.7701 38.7965 18.5301C38.9432 18.2901 39.1798 18.1001 39.5065 17.9601C39.8332 17.8201 40.2665 17.7501 40.8065 17.7501H42.3565V18.5801H40.8965C40.4698 18.5801 40.1832 18.6501 40.0365 18.7901C39.8898 18.9235 39.8165 19.0901 39.8165 19.2901C39.8165 19.5168 39.9065 19.6968 40.0865 19.8301C40.2665 19.9635 40.5165 20.0301 40.8365 20.0301C41.1432 20.0301 41.4165 19.9601 41.6565 19.8201C41.9032 19.6801 42.0798 19.4735 42.1865 19.2001L42.3965 19.9501C42.2765 20.2635 42.0598 20.5068 41.7465 20.6801C41.4398 20.8535 41.0498 20.9401 40.5765 20.9401ZM45.383 22.8801C45.123 22.8801 44.863 22.8368 44.603 22.7501C44.343 22.6635 44.1264 22.5435 43.953 22.3901L44.453 21.4701C44.5797 21.5835 44.723 21.6735 44.883 21.7401C45.043 21.8068 45.2064 21.8401 45.373 21.8401C45.5997 21.8401 45.783 21.7835 45.923 21.6701C46.063 21.5568 46.193 21.3668 46.313 21.1001L46.623 20.4001L46.723 20.2501L48.743 15.5301H49.943L47.443 21.3001C47.2764 21.7001 47.0897 22.0168 46.883 22.2501C46.683 22.4835 46.4564 22.6468 46.203 22.7401C45.9564 22.8335 45.683 22.8801 45.383 22.8801ZM46.483 21.0601L44.073 15.5301H45.373L47.333 20.1401L46.483 21.0601ZM55.778 20.9701C55.2313 20.9701 54.708 20.8935 54.208 20.7401C53.708 20.5801 53.3113 20.3768 53.018 20.1301L53.468 19.1201C53.748 19.3401 54.0946 19.5235 54.508 19.6701C54.9213 19.8168 55.3446 19.8901 55.778 19.8901C56.1446 19.8901 56.4413 19.8501 56.668 19.7701C56.8946 19.6901 57.0613 19.5835 57.168 19.4501C57.2746 19.3101 57.328 19.1535 57.328 18.9801C57.328 18.7668 57.2513 18.5968 57.098 18.4701C56.9446 18.3368 56.7446 18.2335 56.498 18.1601C56.258 18.0801 55.988 18.0068 55.688 17.9401C55.3946 17.8735 55.098 17.7968 54.798 17.7101C54.5046 17.6168 54.2346 17.5001 53.988 17.3601C53.748 17.2135 53.5513 17.0201 53.398 16.7801C53.2446 16.5401 53.168 16.2335 53.168 15.8601C53.168 15.4801 53.268 15.1335 53.468 14.8201C53.6746 14.5001 53.9846 14.2468 54.398 14.0601C54.818 13.8668 55.348 13.7701 55.988 13.7701C56.408 13.7701 56.8246 13.8235 57.238 13.9301C57.6513 14.0368 58.0113 14.1901 58.318 14.3901L57.908 15.4001C57.5946 15.2135 57.2713 15.0768 56.938 14.9901C56.6046 14.8968 56.2846 14.8501 55.978 14.8501C55.618 14.8501 55.3246 14.8934 55.098 14.9801C54.878 15.0668 54.7146 15.1801 54.608 15.3201C54.508 15.4601 54.458 15.6201 54.458 15.8001C54.458 16.0135 54.5313 16.1868 54.678 16.3201C54.8313 16.4468 55.028 16.5468 55.268 16.6201C55.5146 16.6935 55.788 16.7668 56.088 16.8401C56.388 16.9068 56.6846 16.9835 56.978 17.0701C57.278 17.1568 57.548 17.2701 57.788 17.4101C58.0346 17.5501 58.2313 17.7401 58.378 17.9801C58.5313 18.2201 58.608 18.5235 58.608 18.8901C58.608 19.2635 58.5046 19.6101 58.298 19.9301C58.098 20.2435 57.788 20.4968 57.368 20.6901C56.948 20.8768 56.418 20.9701 55.778 20.9701ZM61.787 20.9401C61.2004 20.9401 60.747 20.7901 60.427 20.4901C60.107 20.1835 59.947 19.7335 59.947 19.1401V14.3501H61.197V19.1101C61.197 19.3635 61.2604 19.5601 61.387 19.7001C61.5204 19.8401 61.7037 19.9101 61.937 19.9101C62.217 19.9101 62.4504 19.8368 62.637 19.6901L62.987 20.5801C62.8404 20.7001 62.6604 20.7901 62.447 20.8501C62.2337 20.9101 62.0137 20.9401 61.787 20.9401ZM59.067 16.5701V15.5701H62.627V16.5701H59.067ZM66.2395 20.9401C65.6929 20.9401 65.2062 20.8235 64.7795 20.5901C64.3529 20.3501 64.0162 20.0235 63.7695 19.6101C63.5229 19.1968 63.3995 18.7268 63.3995 18.2001C63.3995 17.6668 63.5229 17.1968 63.7695 16.7901C64.0162 16.3768 64.3529 16.0535 64.7795 15.8201C65.2062 15.5868 65.6929 15.4701 66.2395 15.4701C66.7929 15.4701 67.2829 15.5868 67.7095 15.8201C68.1429 16.0535 68.4795 16.3735 68.7195 16.7801C68.9662 17.1868 69.0895 17.6601 69.0895 18.2001C69.0895 18.7268 68.9662 19.1968 68.7195 19.6101C68.4795 20.0235 68.1429 20.3501 67.7095 20.5901C67.2829 20.8235 66.7929 20.9401 66.2395 20.9401ZM66.2395 19.8701C66.5462 19.8701 66.8195 19.8035 67.0595 19.6701C67.2995 19.5368 67.4862 19.3435 67.6195 19.0901C67.7595 18.8368 67.8295 18.5401 67.8295 18.2001C67.8295 17.8535 67.7595 17.5568 67.6195 17.3101C67.4862 17.0568 67.2995 16.8635 67.0595 16.7301C66.8195 16.5968 66.5495 16.5301 66.2495 16.5301C65.9429 16.5301 65.6695 16.5968 65.4295 16.7301C65.1962 16.8635 65.0095 17.0568 64.8695 17.3101C64.7295 17.5568 64.6595 17.8535 64.6595 18.2001C64.6595 18.5401 64.7295 18.8368 64.8695 19.0901C65.0095 19.3435 65.1962 19.5368 65.4295 19.6701C65.6695 19.8035 65.9395 19.8701 66.2395 19.8701ZM70.2848 20.8701V15.5301H71.4748V17.0001L71.3348 16.5701C71.4948 16.2101 71.7448 15.9368 72.0848 15.7501C72.4315 15.5635 72.8615 15.4701 73.3748 15.4701V16.6601C73.3215 16.6468 73.2715 16.6401 73.2248 16.6401C73.1782 16.6335 73.1315 16.6301 73.0848 16.6301C72.6115 16.6301 72.2348 16.7701 71.9548 17.0501C71.6748 17.3235 71.5348 17.7335 71.5348 18.2801V20.8701H70.2848ZM76.8964 20.9401C76.3031 20.9401 75.7831 20.8235 75.3364 20.5901C74.8964 20.3501 74.5531 20.0235 74.3064 19.6101C74.0664 19.1968 73.9464 18.7268 73.9464 18.2001C73.9464 17.6668 74.0631 17.1968 74.2964 16.7901C74.5364 16.3768 74.8631 16.0535 75.2764 15.8201C75.6964 15.5868 76.1731 15.4701 76.7064 15.4701C77.2264 15.4701 77.6897 15.5835 78.0964 15.8101C78.5031 16.0368 78.8231 16.3568 79.0564 16.7701C79.2897 17.1835 79.4064 17.6701 79.4064 18.2301C79.4064 18.2835 79.4031 18.3435 79.3964 18.4101C79.3964 18.4768 79.3931 18.5401 79.3864 18.6001H74.9364V17.7701H78.7264L78.2364 18.0301C78.2431 17.7235 78.1797 17.4535 78.0464 17.2201C77.9131 16.9868 77.7297 16.8035 77.4964 16.6701C77.2697 16.5368 77.0064 16.4701 76.7064 16.4701C76.3997 16.4701 76.1297 16.5368 75.8964 16.6701C75.6697 16.8035 75.4897 16.9901 75.3564 17.2301C75.2297 17.4635 75.1664 17.7401 75.1664 18.0601V18.2601C75.1664 18.5801 75.2397 18.8635 75.3864 19.1101C75.5331 19.3568 75.7397 19.5468 76.0064 19.6801C76.2731 19.8135 76.5797 19.8801 76.9264 19.8801C77.2264 19.8801 77.4964 19.8335 77.7364 19.7401C77.9764 19.6468 78.1897 19.5001 78.3764 19.3001L79.0464 20.0701C78.8064 20.3501 78.5031 20.5668 78.1364 20.7201C77.7764 20.8668 77.3631 20.9401 76.8964 20.9401Z" fill="#DEDEDE"/>
<defs>
<filter id="filter0_d_1882_24973" x="-1.93262" y="-4.72266" width="35.8311" height="37.1855" filterUnits="userSpaceOnUse" color-interpolation-filters="sRGB">
<feFlood flood-opacity="0" result="BackgroundImageFix"/>
<feColorMatrix in="SourceAlpha" type="matrix" values="0 0 0 0 0 0 0 0 0 0 0 0 0 0 0 0 0 0 127 0" result="hardAlpha"/>
<feOffset/>
<feGaussianBlur stdDeviation="6"/>
<feComposite in2="hardAlpha" operator="out"/>
<feColorMatrix type="matrix" values="0 0 0 0 0.2 0 0 0 0 0.2 0 0 0 0 0.2 0 0 0 0.7 0"/>
<feBlend mode="normal" in2="BackgroundImageFix" result="effect1_dropShadow_1882_24973"/>
<feBlend mode="normal" in="SourceGraphic" in2="effect1_dropShadow_1882_24973" result="shape"/>
</filter>
<clipPath id="clip0_1882_24973">
<rect width="16" height="16" fill="white" transform="translate(8 5.87012)"/>
</clipPath>
</defs>
</svg>
