<svg width="109" height="26" viewBox="0 0 109 26" fill="none" xmlns="http://www.w3.org/2000/svg">
<rect x="0.75" y="0.25" width="107.5" height="25.5" rx="3.75" fill="#393939"/>
<rect x="0.75" y="0.25" width="107.5" height="25.5" rx="3.75" stroke="#DEDEDE" stroke-width="0.5"/>
<path d="M18.7145 9.256C16.3025 9.256 15.5 11.6785 15.5 13.696C15.5 16.1178 17.1073 19.75 18.7145 19.75C19.5883 19.7125 20.0638 19.3465 21.125 19.3465C22.1795 19.3465 22.3302 19.75 23.5355 19.75C24.7407 19.75 26.75 17.3283 26.75 15.7143C26.7275 15.706 24.7632 15.3887 24.7407 13.2917C24.7257 11.5405 26.6825 10.9075 26.75 10.8708C25.928 9.66625 24.3785 9.286 23.9375 9.256C22.7863 9.166 21.6635 10.0638 21.125 10.0638C20.5783 10.0638 19.598 9.256 18.7145 9.256ZM21.5 7C21.8978 7 22.2794 6.84196 22.5607 6.56066C22.842 6.27936 23 5.89782 23 5.5C22.6022 5.5 22.2206 5.65804 21.9393 5.93934C21.658 6.22064 21.5 6.60218 21.5 7Z" stroke="#F5F5F5" stroke-width="1.2" stroke-linecap="round" stroke-linejoin="round"/>
<path d="M37.026 9.048C36.702 9.048 36.404 8.996 36.132 8.892C35.86 8.784 35.624 8.634 35.424 8.442C35.224 8.246 35.068 8.018 34.956 7.758C34.844 7.498 34.788 7.212 34.788 6.9C34.788 6.588 34.844 6.302 34.956 6.042C35.068 5.782 35.224 5.556 35.424 5.364C35.628 5.168 35.866 5.018 36.138 4.914C36.41 4.806 36.71 4.752 37.038 4.752C37.37 4.752 37.674 4.806 37.95 4.914C38.226 5.022 38.46 5.184 38.652 5.4L38.28 5.772C38.108 5.604 37.92 5.482 37.716 5.406C37.516 5.326 37.298 5.286 37.062 5.286C36.822 5.286 36.598 5.326 36.39 5.406C36.186 5.486 36.008 5.598 35.856 5.742C35.708 5.886 35.592 6.058 35.508 6.258C35.428 6.454 35.388 6.668 35.388 6.9C35.388 7.128 35.428 7.342 35.508 7.542C35.592 7.738 35.708 7.91 35.856 8.058C36.008 8.202 36.186 8.314 36.39 8.394C36.594 8.474 36.816 8.514 37.056 8.514C37.28 8.514 37.494 8.48 37.698 8.412C37.906 8.34 38.098 8.222 38.274 8.058L38.616 8.514C38.408 8.69 38.164 8.824 37.884 8.916C37.608 9.004 37.322 9.048 37.026 9.048ZM38.04 8.436V6.876H38.616V8.514L38.04 8.436ZM40.3108 6.612H42.4708V7.122H40.3108V6.612ZM40.3648 8.478H42.8128V9H39.7648V4.8H42.7288V5.322H40.3648V8.478ZM44.6183 9V5.322H43.1783V4.8H46.6523V5.322H45.2123V9H44.6183ZM48.9171 9V4.8H49.5171V9H48.9171ZM50.7745 9V4.8H51.2665L54.0445 8.25H53.7865V4.8H54.3865V9H53.8945L51.1165 5.55H51.3745V9H50.7745ZM59.151 9.048C58.831 9.048 58.533 8.994 58.257 8.886C57.985 8.778 57.749 8.628 57.549 8.436C57.349 8.24 57.193 8.012 57.081 7.752C56.969 7.492 56.913 7.208 56.913 6.9C56.913 6.592 56.969 6.308 57.081 6.048C57.193 5.788 57.349 5.562 57.549 5.37C57.749 5.174 57.985 5.022 58.257 4.914C58.529 4.806 58.827 4.752 59.151 4.752C59.471 4.752 59.765 4.806 60.033 4.914C60.305 5.018 60.541 5.168 60.741 5.364C60.945 5.556 61.101 5.782 61.209 6.042C61.321 6.302 61.377 6.588 61.377 6.9C61.377 7.212 61.321 7.498 61.209 7.758C61.101 8.018 60.945 8.246 60.741 8.442C60.541 8.634 60.305 8.784 60.033 8.892C59.765 8.996 59.471 9.048 59.151 9.048ZM59.151 8.514C59.383 8.514 59.597 8.474 59.793 8.394C59.993 8.314 60.165 8.202 60.309 8.058C60.457 7.91 60.571 7.738 60.651 7.542C60.735 7.346 60.777 7.132 60.777 6.9C60.777 6.668 60.735 6.454 60.651 6.258C60.571 6.062 60.457 5.892 60.309 5.748C60.165 5.6 59.993 5.486 59.793 5.406C59.597 5.326 59.383 5.286 59.151 5.286C58.915 5.286 58.697 5.326 58.497 5.406C58.301 5.486 58.129 5.6 57.981 5.748C57.833 5.892 57.717 6.062 57.633 6.258C57.553 6.454 57.513 6.668 57.513 6.9C57.513 7.132 57.553 7.346 57.633 7.542C57.717 7.738 57.833 7.91 57.981 8.058C58.129 8.202 58.301 8.314 58.497 8.394C58.697 8.474 58.915 8.514 59.151 8.514ZM62.2941 9V4.8H62.7861L65.5641 8.25H65.3061V4.8H65.9061V9H65.4141L62.6361 5.55H62.8941V9H62.2941Z" fill="#DEDEDE"/>
<path d="M34.44 20L38.22 11.6H39.756L43.548 20H41.916L38.664 12.428H39.288L36.048 20H34.44ZM36.18 18.056L36.6 16.832H41.136L41.556 18.056H36.18ZM48.0243 20.084C47.5043 20.084 47.0283 19.964 46.5963 19.724C46.1723 19.484 45.8323 19.124 45.5763 18.644C45.3283 18.156 45.2043 17.54 45.2043 16.796C45.2043 16.044 45.3243 15.428 45.5643 14.948C45.8123 14.468 46.1483 14.112 46.5723 13.88C46.9963 13.64 47.4803 13.52 48.0243 13.52C48.6563 13.52 49.2123 13.656 49.6923 13.928C50.1803 14.2 50.5643 14.58 50.8443 15.068C51.1323 15.556 51.2763 16.132 51.2763 16.796C51.2763 17.46 51.1323 18.04 50.8443 18.536C50.5643 19.024 50.1803 19.404 49.6923 19.676C49.2123 19.948 48.6563 20.084 48.0243 20.084ZM44.4723 22.328V13.592H45.9003V15.104L45.8523 16.808L45.9723 18.512V22.328H44.4723ZM47.8563 18.8C48.2163 18.8 48.5363 18.72 48.8163 18.56C49.1043 18.4 49.3323 18.168 49.5003 17.864C49.6683 17.56 49.7523 17.204 49.7523 16.796C49.7523 16.38 49.6683 16.024 49.5003 15.728C49.3323 15.424 49.1043 15.192 48.8163 15.032C48.5363 14.872 48.2163 14.792 47.8563 14.792C47.4963 14.792 47.1723 14.872 46.8843 15.032C46.5963 15.192 46.3683 15.424 46.2003 15.728C46.0323 16.024 45.9483 16.38 45.9483 16.796C45.9483 17.204 46.0323 17.56 46.2003 17.864C46.3683 18.168 46.5963 18.4 46.8843 18.56C47.1723 18.72 47.4963 18.8 47.8563 18.8ZM56.2508 20.084C55.7308 20.084 55.2548 19.964 54.8228 19.724C54.3988 19.484 54.0588 19.124 53.8028 18.644C53.5548 18.156 53.4308 17.54 53.4308 16.796C53.4308 16.044 53.5508 15.428 53.7908 14.948C54.0388 14.468 54.3748 14.112 54.7988 13.88C55.2228 13.64 55.7068 13.52 56.2508 13.52C56.8828 13.52 57.4388 13.656 57.9188 13.928C58.4068 14.2 58.7908 14.58 59.0708 15.068C59.3588 15.556 59.5028 16.132 59.5028 16.796C59.5028 17.46 59.3588 18.04 59.0708 18.536C58.7908 19.024 58.4068 19.404 57.9188 19.676C57.4388 19.948 56.8828 20.084 56.2508 20.084ZM52.6988 22.328V13.592H54.1268V15.104L54.0788 16.808L54.1988 18.512V22.328H52.6988ZM56.0828 18.8C56.4428 18.8 56.7628 18.72 57.0428 18.56C57.3308 18.4 57.5588 18.168 57.7268 17.864C57.8948 17.56 57.9788 17.204 57.9788 16.796C57.9788 16.38 57.8948 16.024 57.7268 15.728C57.5588 15.424 57.3308 15.192 57.0428 15.032C56.7628 14.872 56.4428 14.792 56.0828 14.792C55.7228 14.792 55.3988 14.872 55.1108 15.032C54.8228 15.192 54.5948 15.424 54.4268 15.728C54.2588 16.024 54.1748 16.38 54.1748 16.796C54.1748 17.204 54.2588 17.56 54.4268 17.864C54.5948 18.168 54.8228 18.4 55.1108 18.56C55.3988 18.72 55.7228 18.8 56.0828 18.8ZM66.9898 20.12C66.3338 20.12 65.7058 20.028 65.1058 19.844C64.5058 19.652 64.0298 19.408 63.6778 19.112L64.2178 17.9C64.5538 18.164 64.9698 18.384 65.4658 18.56C65.9618 18.736 66.4698 18.824 66.9898 18.824C67.4298 18.824 67.7858 18.776 68.0578 18.68C68.3298 18.584 68.5298 18.456 68.6578 18.296C68.7858 18.128 68.8498 17.94 68.8498 17.732C68.8498 17.476 68.7578 17.272 68.5738 17.12C68.3898 16.96 68.1498 16.836 67.8538 16.748C67.5658 16.652 67.2418 16.564 66.8818 16.484C66.5298 16.404 66.1738 16.312 65.8138 16.208C65.4618 16.096 65.1378 15.956 64.8418 15.788C64.5538 15.612 64.3178 15.38 64.1338 15.092C63.9498 14.804 63.8578 14.436 63.8578 13.988C63.8578 13.532 63.9778 13.116 64.2178 12.74C64.4658 12.356 64.8378 12.052 65.3338 11.828C65.8378 11.596 66.4738 11.48 67.2418 11.48C67.7458 11.48 68.2458 11.544 68.7418 11.672C69.2378 11.8 69.6698 11.984 70.0378 12.224L69.5458 13.436C69.1698 13.212 68.7818 13.048 68.3818 12.944C67.9818 12.832 67.5978 12.776 67.2298 12.776C66.7978 12.776 66.4458 12.828 66.1738 12.932C65.9098 13.036 65.7138 13.172 65.5858 13.34C65.4658 13.508 65.4058 13.7 65.4058 13.916C65.4058 14.172 65.4938 14.38 65.6698 14.54C65.8538 14.692 66.0898 14.812 66.3778 14.9C66.6738 14.988 67.0018 15.076 67.3618 15.164C67.7218 15.244 68.0778 15.336 68.4298 15.44C68.7898 15.544 69.1138 15.68 69.4018 15.848C69.6978 16.016 69.9338 16.244 70.1098 16.532C70.2938 16.82 70.3858 17.184 70.3858 17.624C70.3858 18.072 70.2618 18.488 70.0138 18.872C69.7738 19.248 69.4018 19.552 68.8978 19.784C68.3938 20.008 67.7578 20.12 66.9898 20.12ZM74.2007 20.084C73.4967 20.084 72.9527 19.904 72.5687 19.544C72.1847 19.176 71.9927 18.636 71.9927 17.924V12.176H73.4927V17.888C73.4927 18.192 73.5687 18.428 73.7207 18.596C73.8807 18.764 74.1007 18.848 74.3807 18.848C74.7167 18.848 74.9967 18.76 75.2207 18.584L75.6407 19.652C75.4647 19.796 75.2487 19.904 74.9927 19.976C74.7367 20.048 74.4727 20.084 74.2007 20.084ZM70.9367 14.84V13.64H75.2087V14.84H70.9367ZM79.5437 20.084C78.8877 20.084 78.3037 19.944 77.7917 19.664C77.2797 19.376 76.8757 18.984 76.5797 18.488C76.2837 17.992 76.1357 17.428 76.1357 16.796C76.1357 16.156 76.2837 15.592 76.5797 15.104C76.8757 14.608 77.2797 14.22 77.7917 13.94C78.3037 13.66 78.8877 13.52 79.5437 13.52C80.2077 13.52 80.7957 13.66 81.3077 13.94C81.8277 14.22 82.2317 14.604 82.5197 15.092C82.8157 15.58 82.9637 16.148 82.9637 16.796C82.9637 17.428 82.8157 17.992 82.5197 18.488C82.2317 18.984 81.8277 19.376 81.3077 19.664C80.7957 19.944 80.2077 20.084 79.5437 20.084ZM79.5437 18.8C79.9117 18.8 80.2397 18.72 80.5277 18.56C80.8157 18.4 81.0397 18.168 81.1997 17.864C81.3677 17.56 81.4517 17.204 81.4517 16.796C81.4517 16.38 81.3677 16.024 81.1997 15.728C81.0397 15.424 80.8157 15.192 80.5277 15.032C80.2397 14.872 79.9157 14.792 79.5557 14.792C79.1877 14.792 78.8597 14.872 78.5717 15.032C78.2917 15.192 78.0677 15.424 77.8997 15.728C77.7317 16.024 77.6477 16.38 77.6477 16.796C77.6477 17.204 77.7317 17.56 77.8997 17.864C78.0677 18.168 78.2917 18.4 78.5717 18.56C78.8597 18.72 79.1837 18.8 79.5437 18.8ZM84.3981 20V13.592H85.8261V15.356L85.6581 14.84C85.8501 14.408 86.1501 14.08 86.5581 13.856C86.9741 13.632 87.4901 13.52 88.1061 13.52V14.948C88.0421 14.932 87.9821 14.924 87.9261 14.924C87.8701 14.916 87.8141 14.912 87.7581 14.912C87.1901 14.912 86.7381 15.08 86.4021 15.416C86.0661 15.744 85.8981 16.236 85.8981 16.892V20H84.3981ZM92.3319 20.084C91.6199 20.084 90.9959 19.944 90.4599 19.664C89.9319 19.376 89.5199 18.984 89.2239 18.488C88.9359 17.992 88.7919 17.428 88.7919 16.796C88.7919 16.156 88.9319 15.592 89.2119 15.104C89.4999 14.608 89.8919 14.22 90.3879 13.94C90.8919 13.66 91.4639 13.52 92.1039 13.52C92.7279 13.52 93.2839 13.656 93.7719 13.928C94.2599 14.2 94.6439 14.584 94.9239 15.08C95.2039 15.576 95.3439 16.16 95.3439 16.832C95.3439 16.896 95.3399 16.968 95.3319 17.048C95.3319 17.128 95.3279 17.204 95.3199 17.276H89.9799V16.28H94.5279L93.9399 16.592C93.9479 16.224 93.8719 15.9 93.7119 15.62C93.5519 15.34 93.3319 15.12 93.0519 14.96C92.7799 14.8 92.4639 14.72 92.1039 14.72C91.7359 14.72 91.4119 14.8 91.1319 14.96C90.8599 15.12 90.6439 15.344 90.4839 15.632C90.3319 15.912 90.2559 16.244 90.2559 16.628V16.868C90.2559 17.252 90.3439 17.592 90.5199 17.888C90.6959 18.184 90.9439 18.412 91.2639 18.572C91.5839 18.732 91.9519 18.812 92.3679 18.812C92.7279 18.812 93.0519 18.756 93.3399 18.644C93.6279 18.532 93.8839 18.356 94.1079 18.116L94.9119 19.04C94.6239 19.376 94.2599 19.636 93.8199 19.82C93.3879 19.996 92.8919 20.084 92.3319 20.084Z" fill="#DEDEDE"/>
</svg>
