<svg width="88" height="27" viewBox="0 0 88 27" fill="none" xmlns="http://www.w3.org/2000/svg">
<rect x="0.25" y="1.12012" width="87.5" height="25.5" rx="3.75" fill="#393939"/>
<rect x="0.25" y="1.12012" width="87.5" height="25.5" rx="3.75" stroke="#DEDEDE" stroke-width="0.5"/>
<g clip-path="url(#clip0_1882_24979)">
<g filter="url(#filter0_d_1882_24979)">
<path d="M13.5243 10.5418C11.3803 10.5418 10.667 12.6951 10.667 14.4885C10.667 16.6411 12.0957 19.8698 13.5243 19.8698C14.301 19.8365 14.7237 19.5111 15.667 19.5111C16.6043 19.5111 16.7383 19.8698 17.8097 19.8698C18.881 19.8698 20.667 17.7171 20.667 16.2825C20.647 16.2751 18.901 15.9931 18.881 14.1291C18.8677 12.5725 20.607 12.0098 20.667 11.9771C19.9363 10.9065 18.559 10.5685 18.167 10.5418C17.1437 10.4618 16.1457 11.2598 15.667 11.2598C15.181 11.2598 14.3097 10.5418 13.5243 10.5418ZM16.0003 8.53646C16.3539 8.53646 16.6931 8.39598 16.9431 8.14593C17.1932 7.89589 17.3337 7.55675 17.3337 7.20312C16.98 7.20312 16.6409 7.3436 16.3909 7.59365C16.1408 7.8437 16.0003 8.18284 16.0003 8.53646Z" stroke="#F5F5F5" stroke-width="1.2" stroke-linecap="round" stroke-linejoin="round" shape-rendering="crispEdges"/>
</g>
</g>
<path d="M30.526 9.91812C30.202 9.91812 29.904 9.86612 29.632 9.76212C29.36 9.65412 29.124 9.50412 28.924 9.31212C28.724 9.11612 28.568 8.88812 28.456 8.62812C28.344 8.36812 28.288 8.08212 28.288 7.77012C28.288 7.45812 28.344 7.17212 28.456 6.91212C28.568 6.65212 28.724 6.42612 28.924 6.23412C29.128 6.03812 29.366 5.88812 29.638 5.78412C29.91 5.67612 30.21 5.62212 30.538 5.62212C30.87 5.62212 31.174 5.67612 31.45 5.78412C31.726 5.89212 31.96 6.05412 32.152 6.27012L31.78 6.64212C31.608 6.47412 31.42 6.35212 31.216 6.27612C31.016 6.19612 30.798 6.15612 30.562 6.15612C30.322 6.15612 30.098 6.19612 29.89 6.27612C29.686 6.35612 29.508 6.46812 29.356 6.61212C29.208 6.75612 29.092 6.92812 29.008 7.12812C28.928 7.32412 28.888 7.53812 28.888 7.77012C28.888 7.99812 28.928 8.21212 29.008 8.41212C29.092 8.60812 29.208 8.78012 29.356 8.92812C29.508 9.07212 29.686 9.18412 29.89 9.26412C30.094 9.34412 30.316 9.38412 30.556 9.38412C30.78 9.38412 30.994 9.35012 31.198 9.28212C31.406 9.21012 31.598 9.09212 31.774 8.92812L32.116 9.38412C31.908 9.56012 31.664 9.69412 31.384 9.78612C31.108 9.87412 30.822 9.91812 30.526 9.91812ZM31.54 9.30612V7.74612H32.116V9.38412L31.54 9.30612ZM33.8108 7.48212H35.9708V7.99212H33.8108V7.48212ZM33.8648 9.34812H36.3128V9.87012H33.2648V5.67012H36.2288V6.19212H33.8648V9.34812ZM38.1183 9.87012V6.19212H36.6783V5.67012H40.1523V6.19212H38.7123V9.87012H38.1183ZM42.4171 9.87012V5.67012H43.0171V9.87012H42.4171ZM44.2745 9.87012V5.67012H44.7665L47.5445 9.12012H47.2865V5.67012H47.8865V9.87012H47.3945L44.6165 6.42012H44.8745V9.87012H44.2745ZM52.651 9.91812C52.331 9.91812 52.033 9.86412 51.757 9.75612C51.485 9.64812 51.249 9.49812 51.049 9.30612C50.849 9.11012 50.693 8.88212 50.581 8.62212C50.469 8.36212 50.413 8.07812 50.413 7.77012C50.413 7.46212 50.469 7.17812 50.581 6.91812C50.693 6.65812 50.849 6.43212 51.049 6.24012C51.249 6.04412 51.485 5.89212 51.757 5.78412C52.029 5.67612 52.327 5.62212 52.651 5.62212C52.971 5.62212 53.265 5.67612 53.533 5.78412C53.805 5.88812 54.041 6.03812 54.241 6.23412C54.445 6.42612 54.601 6.65212 54.709 6.91212C54.821 7.17212 54.877 7.45812 54.877 7.77012C54.877 8.08212 54.821 8.36812 54.709 8.62812C54.601 8.88812 54.445 9.11612 54.241 9.31212C54.041 9.50412 53.805 9.65412 53.533 9.76212C53.265 9.86612 52.971 9.91812 52.651 9.91812ZM52.651 9.38412C52.883 9.38412 53.097 9.34412 53.293 9.26412C53.493 9.18412 53.665 9.07212 53.809 8.92812C53.957 8.78012 54.071 8.60812 54.151 8.41212C54.235 8.21612 54.277 8.00212 54.277 7.77012C54.277 7.53812 54.235 7.32412 54.151 7.12812C54.071 6.93212 53.957 6.76212 53.809 6.61812C53.665 6.47012 53.493 6.35612 53.293 6.27612C53.097 6.19612 52.883 6.15612 52.651 6.15612C52.415 6.15612 52.197 6.19612 51.997 6.27612C51.801 6.35612 51.629 6.47012 51.481 6.61812C51.333 6.76212 51.217 6.93212 51.133 7.12812C51.053 7.32412 51.013 7.53812 51.013 7.77012C51.013 8.00212 51.053 8.21612 51.133 8.41212C51.217 8.60812 51.333 8.78012 51.481 8.92812C51.629 9.07212 51.801 9.18412 51.997 9.26412C52.197 9.34412 52.415 9.38412 52.651 9.38412ZM55.7941 9.87012V5.67012H56.2861L59.0641 9.12012H58.8061V5.67012H59.4061V9.87012H58.9141L56.1361 6.42012H56.3941V9.87012H55.7941Z" fill="#DEDEDE"/>
<path d="M27.95 20.8701L31.1 13.8701H32.38L35.54 20.8701H34.18L31.47 14.5601H31.99L29.29 20.8701H27.95ZM29.4 19.2501L29.75 18.2301H33.53L33.88 19.2501H29.4ZM39.2702 20.9401C38.8369 20.9401 38.4402 20.8401 38.0802 20.6401C37.7269 20.4401 37.4436 20.1401 37.2302 19.7401C37.0236 19.3335 36.9202 18.8201 36.9202 18.2001C36.9202 17.5735 37.0202 17.0601 37.2202 16.6601C37.4269 16.2601 37.7069 15.9635 38.0602 15.7701C38.4136 15.5701 38.8169 15.4701 39.2702 15.4701C39.7969 15.4701 40.2602 15.5835 40.6602 15.8101C41.0669 16.0368 41.3869 16.3535 41.6202 16.7601C41.8602 17.1668 41.9802 17.6468 41.9802 18.2001C41.9802 18.7535 41.8602 19.2368 41.6202 19.6501C41.3869 20.0568 41.0669 20.3735 40.6602 20.6001C40.2602 20.8268 39.7969 20.9401 39.2702 20.9401ZM36.3102 22.8101V15.5301H37.5002V16.7901L37.4602 18.2101L37.5602 19.6301V22.8101H36.3102ZM39.1302 19.8701C39.4302 19.8701 39.6969 19.8035 39.9302 19.6701C40.1702 19.5368 40.3602 19.3435 40.5002 19.0901C40.6402 18.8368 40.7102 18.5401 40.7102 18.2001C40.7102 17.8535 40.6402 17.5568 40.5002 17.3101C40.3602 17.0568 40.1702 16.8635 39.9302 16.7301C39.6969 16.5968 39.4302 16.5301 39.1302 16.5301C38.8302 16.5301 38.5602 16.5968 38.3202 16.7301C38.0802 16.8635 37.8902 17.0568 37.7502 17.3101C37.6102 17.5568 37.5402 17.8535 37.5402 18.2001C37.5402 18.5401 37.6102 18.8368 37.7502 19.0901C37.8902 19.3435 38.0802 19.5368 38.3202 19.6701C38.5602 19.8035 38.8302 19.8701 39.1302 19.8701ZM46.1257 20.9401C45.6924 20.9401 45.2957 20.8401 44.9357 20.6401C44.5824 20.4401 44.299 20.1401 44.0857 19.7401C43.879 19.3335 43.7757 18.8201 43.7757 18.2001C43.7757 17.5735 43.8757 17.0601 44.0757 16.6601C44.2824 16.2601 44.5624 15.9635 44.9157 15.7701C45.269 15.5701 45.6724 15.4701 46.1257 15.4701C46.6524 15.4701 47.1157 15.5835 47.5157 15.8101C47.9224 16.0368 48.2424 16.3535 48.4757 16.7601C48.7157 17.1668 48.8357 17.6468 48.8357 18.2001C48.8357 18.7535 48.7157 19.2368 48.4757 19.6501C48.2424 20.0568 47.9224 20.3735 47.5157 20.6001C47.1157 20.8268 46.6524 20.9401 46.1257 20.9401ZM43.1657 22.8101V15.5301H44.3557V16.7901L44.3157 18.2101L44.4157 19.6301V22.8101H43.1657ZM45.9857 19.8701C46.2857 19.8701 46.5524 19.8035 46.7857 19.6701C47.0257 19.5368 47.2157 19.3435 47.3557 19.0901C47.4957 18.8368 47.5657 18.5401 47.5657 18.2001C47.5657 17.8535 47.4957 17.5568 47.3557 17.3101C47.2157 17.0568 47.0257 16.8635 46.7857 16.7301C46.5524 16.5968 46.2857 16.5301 45.9857 16.5301C45.6857 16.5301 45.4157 16.5968 45.1757 16.7301C44.9357 16.8635 44.7457 17.0568 44.6057 17.3101C44.4657 17.5568 44.3957 17.8535 44.3957 18.2001C44.3957 18.5401 44.4657 18.8368 44.6057 19.0901C44.7457 19.3435 44.9357 19.5368 45.1757 19.6701C45.4157 19.8035 45.6857 19.8701 45.9857 19.8701ZM55.0748 20.9701C54.5282 20.9701 54.0048 20.8935 53.5048 20.7401C53.0048 20.5801 52.6082 20.3768 52.3148 20.1301L52.7648 19.1201C53.0448 19.3401 53.3915 19.5235 53.8048 19.6701C54.2182 19.8168 54.6415 19.8901 55.0748 19.8901C55.4415 19.8901 55.7382 19.8501 55.9648 19.7701C56.1915 19.6901 56.3582 19.5835 56.4648 19.4501C56.5715 19.3101 56.6248 19.1535 56.6248 18.9801C56.6248 18.7668 56.5482 18.5968 56.3948 18.4701C56.2415 18.3368 56.0415 18.2335 55.7948 18.1601C55.5548 18.0801 55.2848 18.0068 54.9848 17.9401C54.6915 17.8735 54.3948 17.7968 54.0948 17.7101C53.8015 17.6168 53.5315 17.5001 53.2848 17.3601C53.0448 17.2135 52.8482 17.0201 52.6948 16.7801C52.5415 16.5401 52.4648 16.2335 52.4648 15.8601C52.4648 15.4801 52.5648 15.1335 52.7648 14.8201C52.9715 14.5001 53.2815 14.2468 53.6948 14.0601C54.1148 13.8668 54.6448 13.7701 55.2848 13.7701C55.7048 13.7701 56.1215 13.8235 56.5348 13.9301C56.9482 14.0368 57.3082 14.1901 57.6148 14.3901L57.2048 15.4001C56.8915 15.2135 56.5682 15.0768 56.2348 14.9901C55.9015 14.8968 55.5815 14.8501 55.2748 14.8501C54.9148 14.8501 54.6215 14.8934 54.3948 14.9801C54.1748 15.0668 54.0115 15.1801 53.9048 15.3201C53.8048 15.4601 53.7548 15.6201 53.7548 15.8001C53.7548 16.0135 53.8282 16.1868 53.9748 16.3201C54.1282 16.4468 54.3248 16.5468 54.5648 16.6201C54.8115 16.6935 55.0848 16.7668 55.3848 16.8401C55.6848 16.9068 55.9815 16.9835 56.2748 17.0701C56.5748 17.1568 56.8448 17.2701 57.0848 17.4101C57.3315 17.5501 57.5282 17.7401 57.6748 17.9801C57.8282 18.2201 57.9048 18.5235 57.9048 18.8901C57.9048 19.2635 57.8015 19.6101 57.5948 19.9301C57.3948 20.2435 57.0848 20.4968 56.6648 20.6901C56.2448 20.8768 55.7148 20.9701 55.0748 20.9701ZM61.0839 20.9401C60.4972 20.9401 60.0439 20.7901 59.7239 20.4901C59.4039 20.1835 59.2439 19.7335 59.2439 19.1401V14.3501H60.4939V19.1101C60.4939 19.3635 60.5572 19.5601 60.6839 19.7001C60.8172 19.8401 61.0006 19.9101 61.2339 19.9101C61.5139 19.9101 61.7472 19.8368 61.9339 19.6901L62.2839 20.5801C62.1372 20.7001 61.9572 20.7901 61.7439 20.8501C61.5306 20.9101 61.3106 20.9401 61.0839 20.9401ZM58.3639 16.5701V15.5701H61.9239V16.5701H58.3639ZM65.5364 20.9401C64.9897 20.9401 64.5031 20.8235 64.0764 20.5901C63.6497 20.3501 63.3131 20.0235 63.0664 19.6101C62.8197 19.1968 62.6964 18.7268 62.6964 18.2001C62.6964 17.6668 62.8197 17.1968 63.0664 16.7901C63.3131 16.3768 63.6497 16.0535 64.0764 15.8201C64.5031 15.5868 64.9897 15.4701 65.5364 15.4701C66.0897 15.4701 66.5797 15.5868 67.0064 15.8201C67.4397 16.0535 67.7764 16.3735 68.0164 16.7801C68.2631 17.1868 68.3864 17.6601 68.3864 18.2001C68.3864 18.7268 68.2631 19.1968 68.0164 19.6101C67.7764 20.0235 67.4397 20.3501 67.0064 20.5901C66.5797 20.8235 66.0897 20.9401 65.5364 20.9401ZM65.5364 19.8701C65.8431 19.8701 66.1164 19.8035 66.3564 19.6701C66.5964 19.5368 66.7831 19.3435 66.9164 19.0901C67.0564 18.8368 67.1264 18.5401 67.1264 18.2001C67.1264 17.8535 67.0564 17.5568 66.9164 17.3101C66.7831 17.0568 66.5964 16.8635 66.3564 16.7301C66.1164 16.5968 65.8464 16.5301 65.5464 16.5301C65.2397 16.5301 64.9664 16.5968 64.7264 16.7301C64.4931 16.8635 64.3064 17.0568 64.1664 17.3101C64.0264 17.5568 63.9564 17.8535 63.9564 18.2001C63.9564 18.5401 64.0264 18.8368 64.1664 19.0901C64.3064 19.3435 64.4931 19.5368 64.7264 19.6701C64.9664 19.8035 65.2364 19.8701 65.5364 19.8701ZM69.5817 20.8701V15.5301H70.7717V17.0001L70.6317 16.5701C70.7917 16.2101 71.0417 15.9368 71.3817 15.7501C71.7284 15.5635 72.1584 15.4701 72.6717 15.4701V16.6601C72.6184 16.6468 72.5684 16.6401 72.5217 16.6401C72.4751 16.6335 72.4284 16.6301 72.3817 16.6301C71.9084 16.6301 71.5317 16.7701 71.2517 17.0501C70.9717 17.3235 70.8317 17.7335 70.8317 18.2801V20.8701H69.5817ZM76.1933 20.9401C75.5999 20.9401 75.0799 20.8235 74.6333 20.5901C74.1933 20.3501 73.8499 20.0235 73.6033 19.6101C73.3633 19.1968 73.2433 18.7268 73.2433 18.2001C73.2433 17.6668 73.3599 17.1968 73.5933 16.7901C73.8333 16.3768 74.1599 16.0535 74.5733 15.8201C74.9933 15.5868 75.4699 15.4701 76.0033 15.4701C76.5233 15.4701 76.9866 15.5835 77.3933 15.8101C77.7999 16.0368 78.1199 16.3568 78.3533 16.7701C78.5866 17.1835 78.7033 17.6701 78.7033 18.2301C78.7033 18.2835 78.6999 18.3435 78.6933 18.4101C78.6933 18.4768 78.6899 18.5401 78.6833 18.6001H74.2333V17.7701H78.0233L77.5333 18.0301C77.5399 17.7235 77.4766 17.4535 77.3433 17.2201C77.2099 16.9868 77.0266 16.8035 76.7933 16.6701C76.5666 16.5368 76.3033 16.4701 76.0033 16.4701C75.6966 16.4701 75.4266 16.5368 75.1933 16.6701C74.9666 16.8035 74.7866 16.9901 74.6533 17.2301C74.5266 17.4635 74.4633 17.7401 74.4633 18.0601V18.2601C74.4633 18.5801 74.5366 18.8635 74.6833 19.1101C74.8299 19.3568 75.0366 19.5468 75.3033 19.6801C75.5699 19.8135 75.8766 19.8801 76.2233 19.8801C76.5233 19.8801 76.7933 19.8335 77.0333 19.7401C77.2733 19.6468 77.4866 19.5001 77.6733 19.3001L78.3433 20.0701C78.1033 20.3501 77.7999 20.5668 77.4333 20.7201C77.0733 20.8668 76.6599 20.9401 76.1933 20.9401Z" fill="#DEDEDE"/>
<defs>
<filter id="filter0_d_1882_24979" x="-1.93262" y="-5.39648" width="35.1992" height="37.8662" filterUnits="userSpaceOnUse" color-interpolation-filters="sRGB">
<feFlood flood-opacity="0" result="BackgroundImageFix"/>
<feColorMatrix in="SourceAlpha" type="matrix" values="0 0 0 0 0 0 0 0 0 0 0 0 0 0 0 0 0 0 127 0" result="hardAlpha"/>
<feOffset/>
<feGaussianBlur stdDeviation="6"/>
<feComposite in2="hardAlpha" operator="out"/>
<feColorMatrix type="matrix" values="0 0 0 0 0.2 0 0 0 0 0.2 0 0 0 0 0.2 0 0 0 0.7 0"/>
<feBlend mode="normal" in2="BackgroundImageFix" result="effect1_dropShadow_1882_24979"/>
<feBlend mode="normal" in="SourceGraphic" in2="effect1_dropShadow_1882_24979" result="shape"/>
</filter>
<clipPath id="clip0_1882_24979">
<rect width="16" height="16" fill="white" transform="translate(8 5.87012)"/>
</clipPath>
</defs>
</svg>
