<svg width="32" height="32" viewBox="0 0 32 32" fill="none" xmlns="http://www.w3.org/2000/svg">
<path d="M9.33325 12L5.33325 8L9.33325 4" stroke="#F5F5F5" stroke-width="3" stroke-linecap="round" stroke-linejoin="round"/>
<path d="M21.3293 23.8907C23.304 23.5528 25.0802 22.4865 26.3068 20.9025C27.5335 19.3185 28.1214 17.332 27.9543 15.3355C27.7873 13.339 26.8776 11.4778 25.4048 10.1197C23.932 8.76147 22.0033 8.0051 19.9999 8H5.33325M7.99992 18.6667V26.6667M11.9999 20.6667V24.6667C11.9999 25.1971 12.2106 25.7058 12.5857 26.0809C12.9608 26.456 13.4695 26.6667 13.9999 26.6667C14.5304 26.6667 15.0391 26.456 15.4141 26.0809C15.7892 25.7058 15.9999 25.1971 15.9999 24.6667V20.6667C15.9999 20.1362 15.7892 19.6275 15.4141 19.2525C15.0391 18.8774 14.5304 18.6667 13.9999 18.6667C13.4695 18.6667 12.9608 18.8774 12.5857 19.2525C12.2106 19.6275 11.9999 20.1362 11.9999 20.6667Z" stroke="#F5F5F5" stroke-width="3" stroke-linecap="round" stroke-linejoin="round"/>
</svg>
