<svg width="32" height="32" viewBox="0 0 32 32" fill="none" xmlns="http://www.w3.org/2000/svg">
<path d="M22.6667 12L26.6667 8L22.6667 4" stroke="#F5F5F5" stroke-width="3" stroke-linecap="round" stroke-linejoin="round"/>
<path d="M10.6667 23.8907C8.80211 23.5755 7.10948 22.61 5.88907 21.1656C4.66867 19.7211 3.9994 17.891 4 16C4 13.8783 4.84286 11.8434 6.34315 10.3431C7.84344 8.84285 9.87827 8 12 8H26.6667M16 18.6667V26.6667M20 20.6667V24.6667C20 25.1971 20.2107 25.7058 20.5858 26.0809C20.9609 26.456 21.4696 26.6667 22 26.6667C22.5304 26.6667 23.0391 26.456 23.4142 26.0809C23.7893 25.7058 24 25.1971 24 24.6667V20.6667C24 20.1362 23.7893 19.6275 23.4142 19.2525C23.0391 18.8774 22.5304 18.6667 22 18.6667C21.4696 18.6667 20.9609 18.8774 20.5858 19.2525C20.2107 19.6275 20 20.1362 20 20.6667Z" stroke="#F5F5F5" stroke-width="3" stroke-linecap="round" stroke-linejoin="round"/>
</svg>
