<svg width="96" height="95" viewBox="0 0 96 95" fill="none" xmlns="http://www.w3.org/2000/svg">
<g opacity="0.7">
<path d="M11.3853 63.8993V19.7876H5.44775V63.9072L11.3853 63.8993ZM90.5519 63.8993V19.5303H84.6144V63.9032L90.5519 63.8993ZM79.8882 8.98137C75.3796 9.1397 69.4936 9.60283 64.9613 10.9605L66.6634 16.6526C70.4238 15.5285 75.6646 15.0693 80.094 14.9149L79.8882 8.98137ZM64.9613 10.9605C61.0228 12.1401 56.5934 14.4478 53.1378 16.4468L56.1144 21.5847C59.479 19.6372 63.4175 17.6264 66.6634 16.6526L64.9613 10.9605ZM16.0798 15.1366C19.9036 15.3701 24.234 15.8253 27.4521 16.6764L28.9642 10.9328C25.1642 9.92741 20.3509 9.44845 16.444 9.20699L16.0798 15.1366ZM27.4521 16.6764C31.26 17.6818 35.9467 19.8826 39.814 21.9251L42.5848 16.6764C38.6463 14.5903 33.4648 12.1243 28.9682 10.9368L27.4521 16.6764ZM55.8373 82.0562C59.76 79.9662 64.6209 77.6624 68.5475 76.6253L67.0355 70.8857C62.4042 72.1049 57.0367 74.6897 53.0467 76.8193L55.8373 82.0562ZM68.5475 76.6253C71.7261 75.7862 75.9971 75.327 79.7932 75.0895L79.4211 69.1639C75.5419 69.4093 70.7959 69.8882 67.0315 70.8818L68.5475 76.6253ZM42.953 76.8153C38.963 74.6897 33.5994 72.1049 28.9642 70.8818L27.4521 76.6214C31.3788 77.6624 36.2396 79.9662 40.1584 82.0562L42.953 76.8153ZM28.9642 70.8818C25.2038 69.8922 20.4538 69.4093 16.5746 69.1639L16.2065 75.0895C20.0025 75.327 24.2736 75.7862 27.4482 76.6253L28.9642 70.8818ZM84.6144 63.9032C84.6144 66.6187 82.3661 68.9818 79.4211 69.1639L79.7932 75.0895C85.6278 74.7253 90.5519 69.9793 90.5519 63.8993L84.6144 63.9032ZM90.5519 19.5303C90.5519 13.7353 85.9405 8.76366 79.8882 8.97345L80.094 14.9149C82.5284 14.8278 84.6144 16.8268 84.6144 19.5224L90.5519 19.5303ZM5.44775 63.8993C5.44775 69.9793 10.3719 74.7293 16.2065 75.0974L16.5746 69.1639C13.6296 68.9818 11.3853 66.6107 11.3853 63.8993H5.44775ZM53.0467 76.8193C51.4923 77.6441 49.7595 78.0754 47.9998 78.0754C46.2402 78.0754 44.5073 77.6402 42.953 76.8153L40.1623 82.0562C42.5758 83.3384 45.2669 84.009 47.9998 84.009C50.7327 84.009 53.4239 83.3384 55.8373 82.0562L53.0467 76.8193ZM53.1378 16.4389C51.541 17.3619 49.7371 17.8672 47.8932 17.908C46.0493 17.9488 44.2249 17.5239 42.5888 16.6724L39.814 21.9251C42.3396 23.2469 45.1585 23.9046 48.0085 23.8443C50.8584 23.7841 53.6469 23.0041 56.1144 21.5768L53.1378 16.4389ZM11.3853 19.7876C11.3853 17.0287 13.5703 14.9822 16.0798 15.1366L16.444 9.20699C10.2769 8.83095 5.44775 13.858 5.44775 19.7876H11.3853Z" fill="#1DBDF5"/>
<path opacity="0.5" d="M48 21.7708V81.1458" stroke="#1DBDF5" stroke-width="6"/>
</g>
</svg>
