<svg width="28" height="28" viewBox="0 0 28 28" fill="none" xmlns="http://www.w3.org/2000/svg">
<path d="M2.28672 10.0062C2.65817 9.34941 3.21991 8.82063 3.89789 8.4895C4.59789 8.16633 5.39822 8.16633 7.00122 8.16633C7.59855 8.16633 7.89722 8.16633 8.18655 8.11733C8.47272 8.06887 8.75175 7.98501 9.01722 7.86766C9.28555 7.74983 9.53522 7.58533 10.0334 7.25633L10.2901 7.08833C13.2546 5.13183 14.7386 4.153 15.9846 4.57883C16.2237 4.6605 16.4547 4.77716 16.6612 4.923C17.7381 5.679 17.8197 7.4395 17.9831 10.9593C18.0363 11.972 18.0702 12.9857 18.0846 13.9997C18.0846 14.6203 18.0437 15.7357 17.9831 17.0388C17.8197 20.5598 17.7381 22.3192 16.6612 23.0763C16.4531 23.2225 16.2253 23.3384 15.9846 23.4205C14.7397 23.8452 13.2557 22.8675 10.2889 20.911L10.0346 20.743C9.53639 20.414 9.28789 20.2495 9.01839 20.1305C8.75287 20.0136 8.47384 19.9301 8.18772 19.882C7.89722 19.833 7.59855 19.833 7.00122 19.833C5.39822 19.833 4.59789 19.833 3.89789 19.5098C3.21991 19.1787 2.65817 18.6499 2.28672 17.9932C1.92039 17.3142 1.87839 16.6095 1.79205 15.199C1.77883 14.989 1.76872 14.7837 1.76172 14.583" stroke="#F5F5F5" stroke-width="2" stroke-linecap="round"/>
</svg>
