<svg width="13" height="13" viewBox="0 0 13 13" fill="none" xmlns="http://www.w3.org/2000/svg">
<path d="M6.5 10.5H3C2.73478 10.5 2.48043 10.3946 2.29289 10.2071C2.10536 10.0196 2 9.76522 2 9.5V5C2 4.73478 2.10536 4.48043 2.29289 4.29289C2.48043 4.10536 2.73478 4 3 4H3.5C3.76522 4 4.01957 3.89464 4.20711 3.70711C4.39464 3.51957 4.5 3.26522 4.5 3C4.5 2.86739 4.55268 2.74021 4.64645 2.64645C4.74021 2.55268 4.86739 2.5 5 2.5H8C8.13261 2.5 8.25979 2.55268 8.35355 2.64645C8.44732 2.74021 8.5 2.86739 8.5 3C8.5 3.26522 8.60536 3.51957 8.79289 3.70711C8.98043 3.89464 9.23478 4 9.5 4H10C10.2652 4 10.5196 4.10536 10.7071 4.29289C10.8946 4.48043 11 4.73478 11 5V6.75" stroke="#F5F5F5" stroke-linecap="round" stroke-linejoin="round"/>
<path d="M10 11.5V8.5M10 8.5L11.5 10M10 8.5L8.5 10M6.5 8.5C6.89782 8.5 7.27936 8.34196 7.56066 8.06066C7.84196 7.77936 8 7.39782 8 7C8 6.60218 7.84196 6.22064 7.56066 5.93934C7.27936 5.65804 6.89782 5.5 6.5 5.5C6.10218 5.5 5.72064 5.65804 5.43934 5.93934C5.15804 6.22064 5 6.60218 5 7C5 7.39782 5.15804 7.77936 5.43934 8.06066C5.72064 8.34196 6.10218 8.5 6.5 8.5Z" stroke="#F5F5F5" stroke-linecap="round" stroke-linejoin="round"/>
</svg>
