<svg width="86" height="87" viewBox="0 0 86 87" fill="none" xmlns="http://www.w3.org/2000/svg">
<path opacity="0.5" d="M72.9329 23.7084C73.1455 22.4953 73.09 21.2504 72.7703 20.0611C72.4506 18.8717 71.8745 17.7668 71.0823 16.8237C70.2902 15.8807 69.3013 15.1225 68.185 14.6023C67.0686 14.0821 65.852 13.8126 64.6204 13.8126H21.3796C20.148 13.8126 18.9314 14.0821 17.8151 14.6023C16.6988 15.1225 15.7098 15.8807 14.9177 16.8237C14.1256 17.7668 13.5494 18.8717 13.2297 20.0611C12.91 21.2504 12.8545 22.4953 13.0671 23.7084M64.7708 13.8126C64.8817 12.7834 64.9411 12.2728 64.9411 11.8492C64.9453 9.89261 64.2249 8.00371 62.9187 6.54692C61.6124 5.09013 59.813 4.16867 57.8675 3.96029C57.4479 3.91675 56.9333 3.91675 55.9042 3.91675H30.0958C29.0667 3.91675 28.5481 3.91675 28.1286 3.96029C26.183 4.16867 24.3836 5.09013 23.0774 6.54692C21.7712 8.00371 21.0507 9.89261 21.055 11.8492C21.055 12.2728 21.1104 12.7874 21.2252 13.8126" stroke="#1DBDF5" stroke-width="6"/>
<path d="M53.2166 49.8967C55.4293 51.2663 55.4293 54.813 53.2166 56.1825L39.8731 64.4555C37.7237 65.7894 35.0835 64.0596 35.0835 61.3125V44.7667C35.0835 42.0236 37.7237 40.2938 39.8731 41.6238L53.2166 49.8967Z" stroke="#1DBDF5" stroke-width="6"/>
<path d="M4.93683 50.5975C3.16746 38.0733 2.28475 31.8152 6.03725 27.7579C9.78975 23.7085 16.4714 23.7085 29.8268 23.7085H56.1735C69.5289 23.7085 76.2106 23.7085 79.9631 27.7618C83.7156 31.8152 82.8289 38.0733 81.0635 50.5975L79.3931 62.4725C78.0077 72.2891 77.315 77.2014 73.7643 80.1425C70.2137 83.0835 64.9768 83.0835 54.4991 83.0835H31.5012C21.0275 83.0835 15.7866 83.0835 12.236 80.1425C8.68537 77.2014 7.99266 72.2931 6.60725 62.4725L4.93683 50.5975Z" stroke="#1DBDF5" stroke-width="6"/>
</svg>
