<svg width="96" height="95" viewBox="0 0 96 95" fill="none" xmlns="http://www.w3.org/2000/svg">
<g opacity="0.7">
<path d="M9.93683 54.5975C8.16746 42.0733 7.28475 35.8152 11.0372 31.7579C14.7897 27.7085 21.4714 27.7085 34.8268 27.7085H61.1735C74.5289 27.7085 81.2106 27.7085 84.9631 31.7618C88.7156 35.8152 87.8289 42.0733 86.0635 54.5975L84.3931 66.4725C83.0077 76.2891 82.315 81.2014 78.7643 84.1425C75.2137 87.0835 69.9768 87.0835 59.4991 87.0835H36.5012C26.0275 87.0835 20.7866 87.0835 17.236 84.1425C13.6854 81.2014 12.9927 76.2931 11.6072 66.4725L9.93683 54.5975Z" stroke="#1DBDF5" stroke-width="6"/>
<path opacity="0.5" d="M77.9329 27.7084C78.1455 26.4953 78.09 25.2504 77.7703 24.0611C77.4506 22.8717 76.8745 21.7668 76.0823 20.8237C75.2902 19.8807 74.3013 19.1225 73.185 18.6023C72.0686 18.0821 70.852 17.8126 69.6204 17.8126H26.3796C25.148 17.8126 23.9314 18.0821 22.8151 18.6023C21.6988 19.1225 20.7098 19.8807 19.9177 20.8237C19.1256 21.7668 18.5494 22.8717 18.2297 24.0611C17.91 25.2504 17.8545 26.4953 18.0671 27.7084M69.7708 17.8126C69.8817 16.7834 69.9411 16.2728 69.9411 15.8492C69.9453 13.8926 69.2249 12.0037 67.9187 10.5469C66.6124 9.09013 64.813 8.16867 62.8675 7.96029C62.4479 7.91675 61.9333 7.91675 60.9042 7.91675H35.0958C34.0667 7.91675 33.5481 7.91675 33.1286 7.96029C31.183 8.16867 29.3836 9.09013 28.0774 10.5469C26.7712 12.0037 26.0507 13.8926 26.055 15.8492C26.055 16.2728 26.1104 16.7874 26.2252 17.8126" stroke="#1DBDF5" stroke-width="6"/>
<path opacity="0.5" d="M65.8125 51.4585C69.0917 51.4585 71.75 48.8002 71.75 45.521C71.75 42.2418 69.0917 39.5835 65.8125 39.5835C62.5333 39.5835 59.875 42.2418 59.875 45.521C59.875 48.8002 62.5333 51.4585 65.8125 51.4585Z" stroke="#1DBDF5" stroke-width="6"/>
<path opacity="0.5" d="M79.6667 79.1668L68.2509 70.6604C64.5696 67.9212 59.0834 67.6481 55.03 70.0033L53.9771 70.6168C51.1588 72.2556 47.3271 71.9825 44.8967 69.9677L29.7007 57.392C26.6686 54.8825 21.8038 54.7479 18.5777 57.0833L13.3369 60.8833" stroke="#1DBDF5" stroke-width="6" stroke-linecap="round"/>
</g>
</svg>
