<svg width="77" height="79" viewBox="0 0 77 79" fill="none" xmlns="http://www.w3.org/2000/svg">
<g filter="url(#filter0_d_3652_19648)">
<path d="M24.75 23.0005V53.0005C24.7499 53.3341 24.8388 53.6617 25.0076 53.9495C25.1764 54.2373 25.4188 54.4749 25.71 54.6377C26.0012 54.8005 26.3306 54.8826 26.6642 54.8756C26.9977 54.8687 27.3234 54.7728 27.6075 54.598L51.9825 39.598C52.2555 39.4303 52.481 39.1954 52.6373 38.9157C52.7937 38.636 52.8759 38.321 52.8759 38.0005C52.8759 37.6801 52.7937 37.365 52.6373 37.0854C52.481 36.8057 52.2555 36.5708 51.9825 36.403L27.6075 21.403C27.3234 21.2282 26.9977 21.1324 26.6642 21.1254C26.3306 21.1184 26.0012 21.2006 25.71 21.3634C25.4188 21.5262 25.1764 21.7637 25.0076 22.0515C24.8388 22.3393 24.7499 22.6669 24.75 23.0005Z" fill="#DEDEDE"/>
</g>
<defs>
<filter id="filter0_d_3652_19648" x="0.75" y="-2.875" width="76.125" height="81.75" filterUnits="userSpaceOnUse" color-interpolation-filters="sRGB">
<feFlood flood-opacity="0" result="BackgroundImageFix"/>
<feColorMatrix in="SourceAlpha" type="matrix" values="0 0 0 0 0 0 0 0 0 0 0 0 0 0 0 0 0 0 127 0" result="hardAlpha"/>
<feOffset/>
<feGaussianBlur stdDeviation="12"/>
<feComposite in2="hardAlpha" operator="out"/>
<feColorMatrix type="matrix" values="0 0 0 0 0.2 0 0 0 0 0.2 0 0 0 0 0.2 0 0 0 0.5 0"/>
<feBlend mode="normal" in2="BackgroundImageFix" result="effect1_dropShadow_3652_19648"/>
<feBlend mode="normal" in="SourceGraphic" in2="effect1_dropShadow_3652_19648" result="shape"/>
</filter>
</defs>
</svg>
