<svg width="68" height="67" viewBox="0 0 68 67" fill="none" xmlns="http://www.w3.org/2000/svg">
<g opacity="0.7" filter="url(#filter0_d_3652_19650)">
<path d="M39.5 31L42.5 28L39.5 25" stroke="#DEDEDE" stroke-width="2" stroke-linecap="round" stroke-linejoin="round"/>
<path d="M30.5 39.918C29.1016 39.6816 27.8321 38.9575 26.9168 37.8742C26.0015 36.7908 25.4995 35.4183 25.5 34C25.5 32.4087 26.1321 30.8826 27.2574 29.7574C28.3826 28.6321 29.9087 28 31.5 28H42.5M34.5 36V42M37.5 37.5V40.5C37.5 40.8978 37.658 41.2794 37.9393 41.5607C38.2206 41.842 38.6022 42 39 42C39.3978 42 39.7794 41.842 40.0607 41.5607C40.342 41.2794 40.5 40.8978 40.5 40.5V37.5C40.5 37.1022 40.342 36.7206 40.0607 36.4393C39.7794 36.158 39.3978 36 39 36C38.6022 36 38.2206 36.158 37.9393 36.4393C37.658 36.7206 37.5 37.1022 37.5 37.5Z" stroke="#DEDEDE" stroke-width="2" stroke-linecap="round" stroke-linejoin="round"/>
</g>
<defs>
<filter id="filter0_d_3652_19650" x="-1.5" y="-2" width="72" height="72" filterUnits="userSpaceOnUse" color-interpolation-filters="sRGB">
<feFlood flood-opacity="0" result="BackgroundImageFix"/>
<feColorMatrix in="SourceAlpha" type="matrix" values="0 0 0 0 0 0 0 0 0 0 0 0 0 0 0 0 0 0 127 0" result="hardAlpha"/>
<feOffset/>
<feGaussianBlur stdDeviation="12"/>
<feComposite in2="hardAlpha" operator="out"/>
<feColorMatrix type="matrix" values="0 0 0 0 0 0 0 0 0 0 0 0 0 0 0 0 0 0 0.75 0"/>
<feBlend mode="normal" in2="BackgroundImageFix" result="effect1_dropShadow_3652_19650"/>
<feBlend mode="normal" in="SourceGraphic" in2="effect1_dropShadow_3652_19650" result="shape"/>
</filter>
</defs>
</svg>
