<svg width="33" height="32" viewBox="0 0 33 32" fill="none" xmlns="http://www.w3.org/2000/svg">
<path d="M23.1 12.0133C27.1266 12.9987 29.8333 14.844 29.8333 16.9653C29.8333 18.4053 28.592 19.716 26.5426 20.7173M22.5426 22.0507C20.7293 22.444 18.676 22.6667 16.5013 22.6667C9.1413 22.6667 3.16797 20.1213 3.16797 16.9653C3.16797 14.8453 5.88797 12.9853 9.92797 12" stroke="#DEDEDE" stroke-width="2" stroke-linecap="round" stroke-linejoin="round"/>
<path d="M20.0867 14.248C21.9373 13.7747 23.1667 12.9467 23.1667 12V11.9533C23.1667 8.29733 20.1813 5.33333 16.5 5.33333C15 5.33333 13.6147 5.82667 12.5 6.656M10.224 9.71867C9.96446 10.4351 9.83225 11.1914 9.83333 11.9533V12C9.83333 13.2813 12.0947 14.352 15.108 14.608M20.5 22.6667L23.1667 26.6667M11.8333 22.6667L9.83333 26.6667M16.5 18.6667H16.5133M9.83333 17.3333H9.84667M23.1667 17.3333H23.18M4.5 4L28.5 28" stroke="#DEDEDE" stroke-width="2" stroke-linecap="round" stroke-linejoin="round"/>
</svg>
