<svg width="25" height="24" viewBox="0 0 25 24" fill="none" xmlns="http://www.w3.org/2000/svg">
<path d="M13.5 18L8.5 21V18H6.5C5.70435 18 4.94129 17.6839 4.37868 17.1213C3.81607 16.5587 3.5 15.7956 3.5 15V7C3.5 6.20435 3.81607 5.44129 4.37868 4.87868C4.94129 4.31607 5.70435 4 6.5 4H18.5C19.2956 4 20.0587 4.31607 20.6213 4.87868C21.1839 5.44129 21.5 6.20435 21.5 7V11.5M22.5 22C22.5 21.4696 22.2893 20.9609 21.9142 20.5858C21.5391 20.2107 21.0304 20 20.5 20H18.5C17.9696 20 17.4609 20.2107 17.0858 20.5858C16.7107 20.9609 16.5 21.4696 16.5 22M17.5 17C17.5 17.5304 17.7107 18.0391 18.0858 18.4142C18.4609 18.7893 18.9696 19 19.5 19C20.0304 19 20.5391 18.7893 20.9142 18.4142C21.2893 18.0391 21.5 17.5304 21.5 17C21.5 16.4696 21.2893 15.9609 20.9142 15.5858C20.5391 15.2107 20.0304 15 19.5 15C18.9696 15 18.4609 15.2107 18.0858 15.5858C17.7107 15.9609 17.5 16.4696 17.5 17Z" stroke="#F5F5F5" stroke-width="2" stroke-linecap="round" stroke-linejoin="round"/>
</svg>
