<svg width="16" height="16" viewBox="0 0 16 16" fill="none" xmlns="http://www.w3.org/2000/svg">
<path opacity="0.5" d="M1.3335 10.668C1.3335 8.78264 1.3335 7.8393 1.9195 7.25397C2.50483 6.66797 3.44816 6.66797 5.3335 6.66797H10.6668C12.5522 6.66797 13.4955 6.66797 14.0808 7.25397C14.6668 7.8393 14.6668 8.78264 14.6668 10.668C14.6668 12.5533 14.6668 13.4966 14.0808 14.082C13.4955 14.668 12.5522 14.668 10.6668 14.668H5.3335C3.44816 14.668 2.50483 14.668 1.9195 14.082C1.3335 13.4966 1.3335 12.5533 1.3335 10.668Z" fill="#1FC16B"/>
<path d="M8 12.0018C8.35362 12.0018 8.69276 11.8614 8.94281 11.6113C9.19286 11.3613 9.33333 11.0221 9.33333 10.6685C9.33333 10.3149 9.19286 9.97575 8.94281 9.72571C8.69276 9.47566 8.35362 9.33518 8 9.33518C7.64638 9.33518 7.30724 9.47566 7.05719 9.72571C6.80714 9.97575 6.66667 10.3149 6.66667 10.6685C6.66667 11.0221 6.80714 11.3613 7.05719 11.6113C7.30724 11.8614 7.64638 12.0018 8 12.0018ZM4.5 5.33518C4.49884 4.4825 4.80899 3.65872 5.37222 3.01853C5.93545 2.37834 6.71301 1.96578 7.55889 1.85832C8.40477 1.75085 9.26079 1.95588 9.96621 2.43489C10.6716 2.91391 11.1779 3.63396 11.39 4.45985C11.426 4.5849 11.5094 4.69098 11.6224 4.75555C11.7354 4.82011 11.8691 4.83807 11.9952 4.80561C12.1212 4.77314 12.2296 4.69282 12.2974 4.5817C12.3651 4.47058 12.3869 4.33742 12.358 4.21051C12.0849 3.14924 11.4339 2.22411 10.5272 1.60868C9.62045 0.993262 8.52032 0.729853 7.4332 0.86788C6.34608 1.00591 5.34668 1.53589 4.62253 2.35837C3.89838 3.18086 3.49924 4.23933 3.5 5.33518V6.70518C3.8329 6.68342 4.16639 6.67209 4.5 6.67118V5.33518Z" fill="#1FC16B"/>
</svg>
