<svg width="45" height="45" viewBox="0 0 45 45" fill="none" xmlns="http://www.w3.org/2000/svg">
<path d="M28.125 33.75C27.6225 33.75 27.1844 33.5631 26.8106 33.1894C26.4369 32.8156 26.25 32.3775 26.25 31.875V13.125C26.25 12.6225 26.4369 12.1844 26.8106 11.8106C27.1844 11.4369 27.6225 11.25 28.125 11.25H30.9375C31.44 11.25 31.8781 11.4369 32.2519 11.8106C32.6256 12.1844 32.8125 12.6225 32.8125 13.125V31.875C32.8125 32.3775 32.6256 32.8156 32.2519 33.1894C31.8781 33.5631 31.44 33.75 30.9375 33.75H28.125ZM14.0625 33.75C13.56 33.75 13.1219 33.5631 12.7481 33.1894C12.3744 32.8156 12.1875 32.3775 12.1875 31.875V13.125C12.1875 12.6225 12.3744 12.1844 12.7481 11.8106C13.1219 11.4369 13.56 11.25 14.0625 11.25H16.875C17.3775 11.25 17.8156 11.4369 18.1894 11.8106C18.5631 12.1844 18.75 12.6225 18.75 13.125V31.875C18.75 32.3775 18.5631 32.8156 18.1894 33.1894C17.8156 33.5631 17.3775 33.75 16.875 33.75H14.0625Z" fill="#DEDEDE"/>
</svg>
