<svg width="16" height="16" viewBox="0 0 16 16" fill="none" xmlns="http://www.w3.org/2000/svg">
<g clip-path="url(#clip0_2880_7656)">
<path fill-rule="evenodd" clip-rule="evenodd" d="M6.16699 10.6654C6.16699 10.1791 6.36015 9.71282 6.70396 9.369C7.04778 9.02519 7.5141 8.83203 8.00033 8.83203C8.48656 8.83203 8.95287 9.02519 9.29669 9.369C9.6405 9.71282 9.83366 10.1791 9.83366 10.6654C9.83366 11.1516 9.6405 11.6179 9.29669 11.9617C8.95287 12.3055 8.48656 12.4987 8.00033 12.4987C7.5141 12.4987 7.04778 12.3055 6.70396 11.9617C6.36015 11.6179 6.16699 11.1516 6.16699 10.6654ZM8.00033 9.83203C7.77931 9.83203 7.56735 9.91983 7.41107 10.0761C7.25479 10.2324 7.16699 10.4444 7.16699 10.6654C7.16699 10.8864 7.25479 11.0983 7.41107 11.2546C7.56735 11.4109 7.77931 11.4987 8.00033 11.4987C8.22134 11.4987 8.4333 11.4109 8.58958 11.2546C8.74586 11.0983 8.83366 10.8864 8.83366 10.6654C8.83366 10.4444 8.74586 10.2324 8.58958 10.0761C8.4333 9.91983 8.22134 9.83203 8.00033 9.83203Z" fill="#D00416"/>
<path fill-rule="evenodd" clip-rule="evenodd" d="M3.50016 6.2007V5.33203C3.50016 4.13856 3.97427 2.99396 4.81818 2.15005C5.6621 1.30614 6.80669 0.832031 8.00016 0.832031C9.19364 0.832031 10.3382 1.30614 11.1821 2.15005C12.0261 2.99396 12.5002 4.13856 12.5002 5.33203V6.2007C12.6513 6.21092 12.7939 6.22514 12.9282 6.24336C13.5282 6.32336 14.0335 6.4967 14.4348 6.89736C14.8362 7.2987 15.0082 7.80403 15.0895 8.40403C15.1668 8.98203 15.1668 9.71736 15.1668 10.6287V10.702C15.1668 11.6134 15.1668 12.3487 15.0895 12.9267C15.0082 13.5267 14.8362 14.032 14.4348 14.4334C14.0335 14.8347 13.5282 15.0067 12.9282 15.088C12.3502 15.1654 11.6148 15.1654 10.7035 15.1654H5.29683C4.3855 15.1654 3.65016 15.1654 3.07216 15.088C2.47216 15.0067 1.96683 14.8347 1.5655 14.4334C1.16416 14.032 0.992163 13.5267 0.911496 12.9267C0.833496 12.3487 0.833496 11.6134 0.833496 10.702V10.6287C0.833496 9.71736 0.833496 8.98203 0.911496 8.40403C0.991496 7.80403 1.16483 7.2987 1.5655 6.89736C1.96683 6.49603 2.47216 6.32403 3.07216 6.24336C3.20594 6.22514 3.34861 6.21092 3.50016 6.2007ZM4.50016 5.33203C4.50016 4.40377 4.86891 3.51353 5.52529 2.85716C6.18167 2.20078 7.0719 1.83203 8.00016 1.83203C8.92842 1.83203 9.81866 2.20078 10.475 2.85716C11.1314 3.51353 11.5002 4.40377 11.5002 5.33203V6.16736C11.2513 6.16559 10.9857 6.16492 10.7035 6.16536H5.29683C5.01505 6.16536 4.7495 6.16603 4.50016 6.16736V5.33203ZM3.2055 7.23403C2.71616 7.30003 2.4575 7.4207 2.27283 7.6047C2.08816 7.78936 1.96816 8.04803 1.90216 8.53803C1.83483 9.04136 1.8335 9.7087 1.8335 10.6654C1.8335 11.622 1.83483 12.2894 1.90216 12.7934C1.96816 13.2827 2.08883 13.5414 2.27283 13.726C2.4575 13.9107 2.71616 14.0307 3.20616 14.0967C3.70883 14.164 4.37683 14.1654 5.3335 14.1654H10.6668C11.6235 14.1654 12.2908 14.164 12.7948 14.0967C13.2842 14.0307 13.5428 13.91 13.7275 13.726C13.9122 13.5414 14.0322 13.2827 14.0982 12.7927C14.1655 12.2894 14.1668 11.622 14.1668 10.6654C14.1668 9.7087 14.1655 9.0407 14.0982 8.53736C14.0322 8.04803 13.9115 7.78936 13.7275 7.6047C13.5428 7.42003 13.2842 7.30003 12.7942 7.23403C12.2908 7.1667 11.6235 7.16536 10.6668 7.16536H5.3335C4.37683 7.16536 3.70883 7.1667 3.2055 7.23403Z" fill="#D00416"/>
</g>
<defs>
<clipPath id="clip0_2880_7656">
<rect width="16" height="16" fill="white"/>
</clipPath>
</defs>
</svg>
