<svg width="86" height="67" viewBox="0 0 86 67" fill="none" xmlns="http://www.w3.org/2000/svg">
<path d="M31.125 27.5833C31.125 24.4338 32.3761 21.4134 34.6031 19.1864C36.8301 16.9594 39.8506 15.7083 43 15.7083C46.1494 15.7083 49.1699 16.9594 51.3969 19.1864C53.6239 21.4134 54.875 24.4338 54.875 27.5833V39.4583C54.875 42.6077 53.6239 45.6282 51.3969 47.8551C49.1699 50.0821 46.1494 51.3333 43 51.3333C39.8506 51.3333 36.8301 50.0821 34.6031 47.8551C32.3761 45.6282 31.125 42.6077 31.125 39.4583V27.5833Z" stroke="#1DBDF5" stroke-width="6"/>
<path opacity="0.5" d="M46.9583 27.5833H54.875M46.9583 39.4583H54.875M31.125 27.5833H35.0833M31.125 39.4583H35.0833" stroke="#1DBDF5" stroke-width="6" stroke-linecap="round"/>
<path opacity="0.5" d="M11.9429 51.3333C15.9804 51.3333 19.25 48.0597 19.25 44.0262V27.5833C19.25 21.2844 21.7522 15.2435 26.2062 10.7895C30.6602 6.33548 36.7011 3.83325 43 3.83325C49.2988 3.83325 55.3398 6.33548 59.7937 10.7895C64.2477 15.2435 66.75 21.2844 66.75 27.5833V44.0262C66.75 48.0637 70.0195 51.3333 74.057 51.3333" stroke="#1DBDF5" stroke-width="6"/>
<path d="M3.4165 35.4999C3.4165 33.4003 4.25058 31.3867 5.73524 29.902C7.2199 28.4173 9.23354 27.5833 11.3332 27.5833C13.4328 27.5833 15.4464 28.4173 16.9311 29.902C18.4158 31.3867 19.2498 33.4003 19.2498 35.4999V43.4166C19.2498 45.5162 18.4158 47.5298 16.9311 49.0145C15.4464 50.4992 13.4328 51.3333 11.3332 51.3333C9.23354 51.3333 7.2199 50.4992 5.73524 49.0145C4.25058 47.5298 3.4165 45.5162 3.4165 43.4166V35.4999ZM66.7498 35.4999C66.7498 33.4003 67.5839 31.3867 69.0686 29.902C70.5532 28.4173 72.5669 27.5833 74.6665 27.5833C76.7661 27.5833 78.7798 28.4173 80.2644 29.902C81.7491 31.3867 82.5832 33.4003 82.5832 35.4999V43.4166C82.5832 45.5162 81.7491 47.5298 80.2644 49.0145C78.7798 50.4992 76.7661 51.3333 74.6665 51.3333C72.5669 51.3333 70.5532 50.4992 69.0686 49.0145C67.5839 47.5298 66.7498 45.5162 66.7498 43.4166V35.4999Z" stroke="#1DBDF5" stroke-width="6"/>
<path opacity="0.5" d="M43 51.3333V63.2083" stroke="#1DBDF5" stroke-width="6" stroke-linecap="round"/>
</svg>
