<svg width="32" height="32" viewBox="0 0 32 32" fill="none" xmlns="http://www.w3.org/2000/svg">
<path d="M16.0001 9.33333C15.2928 9.33333 14.6146 9.05238 14.1145 8.55228C13.6144 8.05219 13.3334 7.37391 13.3334 6.66667C13.3334 5.95942 13.6144 5.28115 14.1145 4.78105C14.6146 4.28095 15.2928 4 16.0001 4C16.7073 4 17.3856 4.28095 17.8857 4.78105C18.3858 5.28115 18.6667 5.95942 18.6667 6.66667C18.6667 7.37391 18.3858 8.05219 17.8857 8.55229C17.3856 9.05238 16.7073 9.33333 16.0001 9.33333ZM16.0001 28C15.2928 28 14.6146 27.719 14.1145 27.219C13.6144 26.7189 13.3334 26.0406 13.3334 25.3333C13.3334 24.6261 13.6144 23.9478 14.1145 23.4477C14.6146 22.9476 15.2928 22.6667 16.0001 22.6667C16.7073 22.6667 17.3856 22.9476 17.8857 23.4477C18.3858 23.9478 18.6667 24.6261 18.6667 25.3333C18.6667 26.0406 18.3858 26.7189 17.8857 27.219C17.3856 27.719 16.7073 28 16.0001 28Z" fill="#F5F5F5"/>
<path opacity="0.5" d="M16.0001 18.6663C15.2928 18.6663 14.6146 18.3854 14.1145 17.8853C13.6144 17.3852 13.3334 16.7069 13.3334 15.9997C13.3334 15.2924 13.6144 14.6142 14.1145 14.1141C14.6146 13.614 15.2928 13.333 16.0001 13.333C16.7073 13.333 17.3856 13.614 17.8857 14.1141C18.3858 14.6142 18.6667 15.2924 18.6667 15.9997C18.6667 16.7069 18.3858 17.3852 17.8857 17.8853C17.3856 18.3854 16.7073 18.6663 16.0001 18.6663Z" fill="#F5F5F5"/>
</svg>
