<svg width="78" height="94" viewBox="0 0 78 94" fill="none" xmlns="http://www.w3.org/2000/svg">
<path d="M2.05151e-07 5.66812V88.3348C-0.000258819 89.2541 0.24477 90.1568 0.709805 90.9498C1.17484 91.7428 1.84304 92.3974 2.64546 92.846C3.44788 93.2946 4.35547 93.521 5.27457 93.5018C6.19367 93.4826 7.09101 93.2185 7.874 92.7368L75.0407 51.4035C75.7929 50.9412 76.4142 50.2939 76.8451 49.5232C77.2761 48.7526 77.5024 47.8844 77.5024 47.0015C77.5024 46.1185 77.2761 45.2503 76.8451 44.4797C76.4142 43.709 75.7929 43.0617 75.0407 42.5995L7.874 1.26612C7.09101 0.784407 6.19367 0.520326 5.27457 0.501127C4.35547 0.481928 3.44788 0.708306 2.64546 1.1569C1.84304 1.6055 1.17484 2.26007 0.709805 3.05308C0.24477 3.84609 -0.000258819 4.74882 2.05151e-07 5.66812Z" fill="#DEDEDE" fill-opacity="0.7"/>
</svg>
