<svg width="20" height="20" viewBox="0 0 20 20" fill="none" xmlns="http://www.w3.org/2000/svg">
<path fill-rule="evenodd" clip-rule="evenodd" d="M11.668 1.04297C11.8337 1.04297 11.9927 1.10882 12.1099 1.22603C12.2271 1.34324 12.293 1.50221 12.293 1.66797C12.293 3.25714 12.2946 4.38547 12.4096 5.24297C12.5221 6.08047 12.7338 6.5638 13.0863 6.9163C13.4388 7.2688 13.9221 7.48047 14.7605 7.59297C15.6163 7.70797 16.7455 7.70964 18.3346 7.70964C18.5004 7.70964 18.6594 7.77548 18.7766 7.89269C18.8938 8.0099 18.9596 8.16888 18.9596 8.33464C18.9596 8.5004 18.8938 8.65937 18.7766 8.77658C18.6594 8.89379 18.5004 8.95964 18.3346 8.95964H18.288C16.7563 8.95964 15.543 8.95964 14.5938 8.83214C13.6171 8.70047 12.8263 8.4238 12.2021 7.80047C11.5788 7.1763 11.3021 6.38547 11.1705 5.4088C11.043 4.4588 11.043 3.2463 11.043 1.71464V1.66797C11.043 1.50221 11.1088 1.34324 11.226 1.22603C11.3432 1.10882 11.5022 1.04297 11.668 1.04297ZM8.33464 1.04297C8.5004 1.04297 8.65937 1.10882 8.77658 1.22603C8.89379 1.34324 8.95964 1.50221 8.95964 1.66797V1.71464C8.95964 3.2463 8.95964 4.45964 8.83214 5.4088C8.70047 6.38547 8.4238 7.1763 7.80047 7.80047C7.1763 8.4238 6.38547 8.70047 5.4088 8.83214C4.4588 8.95964 3.2463 8.95964 1.71464 8.95964H1.66797C1.50221 8.95964 1.34324 8.89379 1.22603 8.77658C1.10882 8.65937 1.04297 8.5004 1.04297 8.33464C1.04297 8.16888 1.10882 8.0099 1.22603 7.89269C1.34324 7.77548 1.50221 7.70964 1.66797 7.70964C3.25714 7.70964 4.38547 7.70797 5.24297 7.59297C6.08047 7.48047 6.5638 7.2688 6.9163 6.9163C7.2688 6.5638 7.48047 6.08047 7.59297 5.24214C7.70797 4.38547 7.70964 3.25714 7.70964 1.66797C7.70964 1.50221 7.77548 1.34324 7.89269 1.22603C8.0099 1.10882 8.16888 1.04297 8.33464 1.04297ZM1.04297 11.668C1.04297 11.5022 1.10882 11.3432 1.22603 11.226C1.34324 11.1088 1.50221 11.043 1.66797 11.043H1.71464C3.2463 11.043 4.45964 11.043 5.4088 11.1705C6.38547 11.3021 7.1763 11.5788 7.80047 12.2021C8.4238 12.8263 8.70047 13.6171 8.83214 14.5938C8.95964 15.5438 8.95964 16.7563 8.95964 18.288V18.3346C8.95964 18.5004 8.89379 18.6594 8.77658 18.7766C8.65937 18.8938 8.5004 18.9596 8.33464 18.9596C8.16888 18.9596 8.0099 18.8938 7.89269 18.7766C7.77548 18.6594 7.70964 18.5004 7.70964 18.3346C7.70964 16.7455 7.70797 15.6163 7.59297 14.7596C7.48047 13.9221 7.2688 13.4388 6.9163 13.0863C6.5638 12.7338 6.08047 12.5221 5.24214 12.4096C4.38547 12.2946 3.25714 12.293 1.66797 12.293C1.50221 12.293 1.34324 12.2271 1.22603 12.1099C1.10882 11.9927 1.04297 11.8337 1.04297 11.668ZM18.288 11.043H18.3346C18.5004 11.043 18.6594 11.1088 18.7766 11.226C18.8938 11.3432 18.9596 11.5022 18.9596 11.668C18.9596 11.8337 18.8938 11.9927 18.7766 12.1099C18.6594 12.2271 18.5004 12.293 18.3346 12.293C16.7455 12.293 15.6163 12.2946 14.7596 12.4096C13.9221 12.5221 13.4388 12.7338 13.0863 13.0863C12.7338 13.4388 12.5221 13.9221 12.4096 14.7605C12.2946 15.6163 12.293 16.7455 12.293 18.3346C12.293 18.5004 12.2271 18.6594 12.1099 18.7766C11.9927 18.8938 11.8337 18.9596 11.668 18.9596C11.5022 18.9596 11.3432 18.8938 11.226 18.7766C11.1088 18.6594 11.043 18.5004 11.043 18.3346V18.288C11.043 16.7563 11.043 15.543 11.1705 14.5938C11.3021 13.6171 11.5788 12.8263 12.2021 12.2021C12.8263 11.5788 13.6171 11.3021 14.5938 11.1705C15.5438 11.043 16.7563 11.043 18.288 11.043Z" fill="#F5F5F5"/>
</svg>
