<svg width="30" height="30" viewBox="0 0 30 30" fill="none" xmlns="http://www.w3.org/2000/svg">
<path d="M12.4998 25.9718C11.4121 25.724 10.3673 25.3158 9.39979 24.7605M17.4998 4.0293C19.985 4.59689 22.2038 5.99141 23.7931 7.98455C25.3824 9.9777 26.2478 12.4514 26.2478 15.0005C26.2478 17.5497 25.3824 20.0234 23.7931 22.0165C22.2038 24.0097 19.985 25.4042 17.4998 25.9718M5.72354 21.3668C5.0424 20.3757 4.52458 19.2818 4.18979 18.1268M3.90479 13.1255C4.10479 11.938 4.48979 10.813 5.02979 9.7818L5.24103 9.40055M8.63354 5.7243C9.80378 4.9204 11.1156 4.34527 12.4998 4.0293" stroke="#F5F5F5" stroke-width="2.5" stroke-linecap="round" stroke-linejoin="round"/>
<path d="M15 10V15L18.75 18.75" stroke="#F5F5F5" stroke-width="2.5" stroke-linecap="round" stroke-linejoin="round"/>
</svg>
