<svg width="24" height="25" viewBox="0 0 24 25" fill="none" xmlns="http://www.w3.org/2000/svg">
<path d="M14 3.07812V7.07812C14 7.34334 14.1054 7.5977 14.2929 7.78523C14.4804 7.97277 14.7348 8.07812 15 8.07812H19" stroke="#F5F5F5" stroke-width="2" stroke-linecap="round" stroke-linejoin="round"/>
<path d="M17 21.0781H7C6.46957 21.0781 5.96086 20.8674 5.58579 20.4923C5.21071 20.1173 5 19.6086 5 19.0781V5.07812C5 4.54769 5.21071 4.03898 5.58579 3.66391C5.96086 3.28884 6.46957 3.07813 7 3.07812H14L19 8.07812V19.0781C19 19.6086 18.7893 20.1173 18.4142 20.4923C18.0391 20.8674 17.5304 21.0781 17 21.0781Z" stroke="#F5F5F5" stroke-width="2" stroke-linecap="round" stroke-linejoin="round"/>
</svg>
