<svg width="68" height="67" viewBox="0 0 68 67" fill="none" xmlns="http://www.w3.org/2000/svg">
<g opacity="0.7" filter="url(#filter0_d_3652_19644)">
<path d="M28.5 31L25.5 28L28.5 25" stroke="#DEDEDE" stroke-width="2" stroke-linecap="round" stroke-linejoin="round"/>
<path d="M37.497 39.918C38.9781 39.6646 40.3102 38.8649 41.2302 37.6769C42.1502 36.4888 42.5911 34.999 42.4658 33.5016C42.3406 32.0043 41.6582 30.6084 40.5536 29.5897C39.4491 28.5711 38.0026 28.0038 36.5 28H25.5M27.5 36V42M30.5 37.5V40.5C30.5 40.8978 30.658 41.2794 30.9393 41.5607C31.2206 41.842 31.6022 42 32 42C32.3978 42 32.7794 41.842 33.0607 41.5607C33.342 41.2794 33.5 40.8978 33.5 40.5V37.5C33.5 37.1022 33.342 36.7206 33.0607 36.4393C32.7794 36.158 32.3978 36 32 36C31.6022 36 31.2206 36.158 30.9393 36.4393C30.658 36.7206 30.5 37.1022 30.5 37.5Z" stroke="#DEDEDE" stroke-width="2" stroke-linecap="round" stroke-linejoin="round"/>
</g>
<defs>
<filter id="filter0_d_3652_19644" x="-2.5" y="-2" width="72" height="72" filterUnits="userSpaceOnUse" color-interpolation-filters="sRGB">
<feFlood flood-opacity="0" result="BackgroundImageFix"/>
<feColorMatrix in="SourceAlpha" type="matrix" values="0 0 0 0 0 0 0 0 0 0 0 0 0 0 0 0 0 0 127 0" result="hardAlpha"/>
<feOffset/>
<feGaussianBlur stdDeviation="12"/>
<feComposite in2="hardAlpha" operator="out"/>
<feColorMatrix type="matrix" values="0 0 0 0 0 0 0 0 0 0 0 0 0 0 0 0 0 0 0.75 0"/>
<feBlend mode="normal" in2="BackgroundImageFix" result="effect1_dropShadow_3652_19644"/>
<feBlend mode="normal" in="SourceGraphic" in2="effect1_dropShadow_3652_19644" result="shape"/>
</filter>
</defs>
</svg>
