<svg width="30" height="30" viewBox="0 0 30 30" fill="none" xmlns="http://www.w3.org/2000/svg">
<path d="M15 7.5C16.3261 7.5 17.5979 8.02678 18.5355 8.96447C19.4732 9.90215 20 11.1739 20 12.5V26.25C19.9998 26.4711 19.941 26.6881 19.8296 26.879C19.7182 27.07 19.5581 27.2279 19.3658 27.3368C19.1734 27.4457 18.9556 27.5017 18.7345 27.4989C18.5135 27.4962 18.2971 27.4349 18.1075 27.3213L12.5 23.9575L6.8925 27.3213C6.71324 27.4288 6.50985 27.4897 6.30097 27.4984C6.09208 27.507 5.88436 27.4631 5.69682 27.3707C5.50928 27.2783 5.34792 27.1404 5.22749 26.9695C5.10707 26.7986 5.03143 26.6002 5.0075 26.3925L5 26.25V12.5C5 11.1739 5.52678 9.90215 6.46447 8.96447C7.40215 8.02678 8.67392 7.5 10 7.5H15Z" fill="#F5F5F5"/>
<path opacity="0.7" d="M18.125 2.5C20.625 2.5 22.1873 3.43732 23.125 4.375C24.0627 5.31268 25 6.875 25 9.375V21.25C25 21.5815 24.8683 21.8995 24.6339 22.1339C24.3995 22.3683 24.0815 22.5 23.75 22.5C23.4185 22.5 23.1005 22.3683 22.8661 22.1339C22.6317 21.8995 22.5 21.5815 22.5 21.25V9.375C22.5 7.5 21.8261 6.61161 21.3572 6.14277C20.8884 5.67393 20 5 18.125 5H13.75C13.4185 5 13.1005 4.8683 12.8661 4.63388C12.6317 4.39946 12.5 4.08152 12.5 3.75C12.5 3.41848 12.6317 3.10054 12.8661 2.86612C13.1005 2.6317 13.4185 2.5 13.75 2.5H18.125Z" fill="#F5F5F5"/>
</svg>
