<svg width="22" height="26" viewBox="0 0 22 26" fill="none" xmlns="http://www.w3.org/2000/svg">
<path d="M13.6665 1V6.33333C13.6665 6.68696 13.807 7.02609 14.057 7.27614C14.3071 7.52619 14.6462 7.66667 14.9998 7.66667H20.3332" stroke="#F5F5F5" stroke-width="2" stroke-linecap="round" stroke-linejoin="round"/>
<path d="M10.9998 11.6667V19.6667M17.6665 25H4.33317C3.62593 25 2.94765 24.719 2.44755 24.219C1.94746 23.7189 1.6665 23.0406 1.6665 22.3333V3.66667C1.6665 2.95942 1.94746 2.28115 2.44755 1.78105C2.94765 1.28095 3.62593 1 4.33317 1H13.6665L20.3332 7.66667V22.3333C20.3332 23.0406 20.0522 23.7189 19.5521 24.219C19.052 24.719 18.3737 25 17.6665 25Z" stroke="#F5F5F5" stroke-width="2" stroke-linecap="round" stroke-linejoin="round"/>
<path d="M7.6665 14.9993L10.9998 11.666L14.3332 14.9993" stroke="#F5F5F5" stroke-width="2" stroke-linecap="round" stroke-linejoin="round"/>
</svg>
