<svg width="96" height="95" viewBox="0 0 96 95" fill="none" xmlns="http://www.w3.org/2000/svg">
<g opacity="0.7">
<path d="M47.9998 7.91675C66.6594 7.91675 75.9892 7.91675 81.7842 13.7117C87.5832 19.5147 87.5832 28.8405 87.5832 47.5001C87.5832 66.1597 87.5832 75.4895 81.7842 81.2845C75.9932 87.0834 66.6594 87.0834 47.9998 87.0834C29.3403 87.0834 20.0105 87.0834 14.2115 81.2845C8.4165 75.4934 8.4165 66.1597 8.4165 47.5001C8.4165 28.8405 8.4165 19.5107 14.2115 13.7117C20.0144 7.91675 29.3403 7.91675 47.9998 7.91675Z" stroke="#1DBDF5" stroke-width="6"/>
<path opacity="0.5" d="M85.6038 67.2917H10.3955M85.6038 27.7084H10.3955M47.9997 67.2917V87.0834M47.9997 7.91675V27.7084M67.7913 9.89591V27.7084M67.7913 67.2917V85.1042M28.208 67.2917V85.1042M28.208 9.89591V27.7084" stroke="#1DBDF5" stroke-width="6" stroke-linecap="round"/>
<path d="M55.9163 47.5002C55.9163 45.4102 53.8184 44.001 49.6266 41.1827C45.3793 38.3287 43.2536 36.8998 41.6703 37.9487C40.083 38.9977 40.083 41.8279 40.083 47.5002C40.083 53.1725 40.083 56.0027 41.6663 57.0517C43.2497 58.1006 45.3793 56.6717 49.6266 53.8177C53.8224 50.9994 55.9163 49.5902 55.9163 47.5002Z" stroke="#1DBDF5" stroke-width="6" stroke-linecap="round"/>
</g>
</svg>
