<svg width="32" height="32" viewBox="0 0 32 32" fill="none" xmlns="http://www.w3.org/2000/svg">
<path d="M0 16C0 7.16344 7.16344 0 16 0C24.8366 0 32 7.16344 32 16C32 24.8366 24.8366 32 16 32C7.16344 32 0 24.8366 0 16Z" fill="url(#paint0_linear_1391_25123)"/>
<path d="M0.5 16C0.5 7.43959 7.43959 0.5 16 0.5C24.5604 0.5 31.5 7.43959 31.5 16C31.5 24.5604 24.5604 31.5 16 31.5C7.43959 31.5 0.5 24.5604 0.5 16Z" stroke="url(#paint1_linear_1391_25123)" stroke-opacity="0.35"/>
<path d="M21 12.5C21.8284 12.5 22.5 11.8284 22.5 11C22.5 10.1716 21.8284 9.5 21 9.5C20.1716 9.5 19.5 10.1716 19.5 11C19.5 11.8284 20.1716 12.5 21 12.5Z" fill="#DEDEDE"/>
<path d="M20 7C22.76 7 25 9.24 25 12V20C25 22.76 22.76 25 20 25H12C9.24 25 7 22.76 7 20V12C7 9.24 9.24 7 12 7H16H20Z" stroke="#DEDEDE" stroke-width="2" stroke-linecap="round" stroke-linejoin="round"/>
<path d="M16 12C18.21 12 20 13.79 20 16C20 18.21 18.21 20 16 20C13.79 20 12 18.21 12 16C12 13.79 13.79 12 16 12Z" stroke="#DEDEDE" stroke-width="2" stroke-linecap="round" stroke-linejoin="round"/>
<defs>
<linearGradient id="paint0_linear_1391_25123" x1="0.0365161" y1="1.30864e-06" x2="31.9635" y2="32" gradientUnits="userSpaceOnUse">
<stop offset="0.15" stop-color="#0395BC"/>
<stop offset="0.85" stop-color="#0E5BA8"/>
</linearGradient>
<linearGradient id="paint1_linear_1391_25123" x1="16" y1="0" x2="16" y2="32" gradientUnits="userSpaceOnUse">
<stop stop-color="#0395BC"/>
<stop offset="1" stop-color="#0E5BA8"/>
</linearGradient>
</defs>
</svg>
