<svg width="262" height="150" viewBox="0 0 262 150" fill="none" xmlns="http://www.w3.org/2000/svg">
<g filter="url(#filter0_dd_1216_20165)">
<rect x="11" y="7" width="240" height="128" rx="8" fill="#DEDEDE" fill-opacity="0.5"/>
<rect width="240" height="44" transform="translate(11 49)" fill="#222222" fill-opacity="0.2"/>
<path d="M130 72.7322V66.7322M130 66.7322L127.5 69.2322M130 66.7322L132.5 69.2322M134 64.2868V61C134 60.4696 133.789 59.9609 133.414 59.5858C133.039 59.2107 132.53 59 132 59H124C123.47 59 122.961 59.2107 122.586 59.5858C122.211 59.9609 122 60.4696 122 61V69C122 69.5304 122.211 70.0391 122.586 70.4142C122.961 70.7893 123.47 71 124 71H126M134 63L138.553 60.724C138.705 60.6478 138.875 60.6119 139.045 60.6195C139.215 60.6272 139.381 60.6782 139.526 60.7678C139.671 60.8574 139.79 60.9825 139.873 61.1313C139.956 61.2801 140 61.4476 140 61.618V68.382C140 68.5524 139.956 68.7199 139.873 68.8687C139.79 69.0175 139.671 69.1426 139.526 69.2322C139.381 69.3218 139.215 69.3728 139.045 69.3805C138.875 69.3881 138.705 69.3522 138.553 69.276L134 67V65V63Z" stroke="#F5F5F5" stroke-width="2" stroke-linecap="round" stroke-linejoin="round"/>
<path d="M64.1301 87L61.8401 80H63.5201L65.5101 86.2H64.6701L66.7501 80H68.2501L70.2501 86.2H69.4401L71.4801 80H73.0301L70.7401 87H69.0001L67.2301 81.56H67.6901L65.8701 87H64.1301ZM76.7241 87V85.95L76.6241 85.72V83.84C76.6241 83.5067 76.5208 83.2467 76.3141 83.06C76.1141 82.8733 75.8041 82.78 75.3841 82.78C75.0974 82.78 74.8141 82.8267 74.5341 82.92C74.2608 83.0067 74.0274 83.1267 73.8341 83.28L73.2741 82.19C73.5674 81.9833 73.9208 81.8233 74.3341 81.71C74.7474 81.5967 75.1674 81.54 75.5941 81.54C76.4141 81.54 77.0508 81.7333 77.5041 82.12C77.9574 82.5067 78.1841 83.11 78.1841 83.93V87H76.7241ZM75.0841 87.08C74.6641 87.08 74.3041 87.01 74.0041 86.87C73.7041 86.7233 73.4741 86.5267 73.3141 86.28C73.1541 86.0333 73.0741 85.7567 73.0741 85.45C73.0741 85.13 73.1508 84.85 73.3041 84.61C73.4641 84.37 73.7141 84.1833 74.0541 84.05C74.3941 83.91 74.8374 83.84 75.3841 83.84H76.8141V84.75H75.5541C75.1874 84.75 74.9341 84.81 74.7941 84.93C74.6608 85.05 74.5941 85.2 74.5941 85.38C74.5941 85.58 74.6708 85.74 74.8241 85.86C74.9841 85.9733 75.2008 86.03 75.4741 86.03C75.7341 86.03 75.9674 85.97 76.1741 85.85C76.3808 85.7233 76.5308 85.54 76.6241 85.3L76.8641 86.02C76.7508 86.3667 76.5441 86.63 76.2441 86.81C75.9441 86.99 75.5574 87.08 75.0841 87.08ZM79.596 87V81.62H81.156V87H79.596ZM80.376 80.87C80.0893 80.87 79.856 80.7867 79.676 80.62C79.496 80.4533 79.406 80.2467 79.406 80C79.406 79.7533 79.496 79.5467 79.676 79.38C79.856 79.2133 80.0893 79.13 80.376 79.13C80.6626 79.13 80.896 79.21 81.076 79.37C81.256 79.5233 81.346 79.7233 81.346 79.97C81.346 80.23 81.256 80.4467 81.076 80.62C80.9026 80.7867 80.6693 80.87 80.376 80.87ZM84.8038 87.08C84.1705 87.08 83.6771 86.92 83.3238 86.6C82.9705 86.2733 82.7938 85.79 82.7938 85.15V80.43H84.3538V85.13C84.3538 85.3567 84.4138 85.5333 84.5338 85.66C84.6538 85.78 84.8171 85.84 85.0238 85.84C85.2705 85.84 85.4805 85.7733 85.6538 85.64L86.0738 86.74C85.9138 86.8533 85.7205 86.94 85.4938 87C85.2738 87.0533 85.0438 87.08 84.8038 87.08ZM81.9638 82.94V81.74H85.6938V82.94H81.9638ZM91.9815 87.08C91.3482 87.08 90.8549 86.92 90.5015 86.6C90.1482 86.2733 89.9715 85.79 89.9715 85.15V80.43H91.5315V85.13C91.5315 85.3567 91.5915 85.5333 91.7115 85.66C91.8315 85.78 91.9949 85.84 92.2015 85.84C92.4482 85.84 92.6582 85.7733 92.8315 85.64L93.2515 86.74C93.0915 86.8533 92.8982 86.94 92.6715 87C92.4515 87.0533 92.2215 87.08 91.9815 87.08ZM89.1415 82.94V81.74H92.8715V82.94H89.1415ZM94.1272 87V81.62H95.6872V87H94.1272ZM94.9072 80.87C94.6206 80.87 94.3872 80.7867 94.2072 80.62C94.0272 80.4533 93.9372 80.2467 93.9372 80C93.9372 79.7533 94.0272 79.5467 94.2072 79.38C94.3872 79.2133 94.6206 79.13 94.9072 79.13C95.1939 79.13 95.4272 79.21 95.6072 79.37C95.7872 79.5233 95.8772 79.7233 95.8772 79.97C95.8772 80.23 95.7872 80.4467 95.6072 80.62C95.4339 80.7867 95.2006 80.87 94.9072 80.87ZM97.135 87V79.58H98.695V87H97.135ZM100.143 87V79.58H101.703V87H100.143ZM106.663 89.02C106.383 89.02 106.106 88.9767 105.833 88.89C105.559 88.8033 105.336 88.6833 105.163 88.53L105.733 87.42C105.853 87.5267 105.989 87.61 106.143 87.67C106.303 87.73 106.459 87.76 106.613 87.76C106.833 87.76 107.006 87.7067 107.133 87.6C107.266 87.5 107.386 87.33 107.493 87.09L107.773 86.43L107.893 86.26L109.823 81.62H111.323L108.893 87.33C108.719 87.7633 108.519 88.1033 108.293 88.35C108.073 88.5967 107.826 88.77 107.553 88.87C107.286 88.97 106.989 89.02 106.663 89.02ZM107.583 87.21L105.183 81.62H106.793L108.653 86.12L107.583 87.21ZM114.373 87.08C113.799 87.08 113.289 86.96 112.843 86.72C112.403 86.48 112.053 86.1533 111.793 85.74C111.539 85.32 111.413 84.8433 111.413 84.31C111.413 83.77 111.539 83.2933 111.793 82.88C112.053 82.46 112.403 82.1333 112.843 81.9C113.289 81.66 113.799 81.54 114.373 81.54C114.939 81.54 115.446 81.66 115.893 81.9C116.339 82.1333 116.689 82.4567 116.943 82.87C117.196 83.2833 117.323 83.7633 117.323 84.31C117.323 84.8433 117.196 85.32 116.943 85.74C116.689 86.1533 116.339 86.48 115.893 86.72C115.446 86.96 114.939 87.08 114.373 87.08ZM114.373 85.8C114.633 85.8 114.866 85.74 115.073 85.62C115.279 85.5 115.443 85.33 115.563 85.11C115.683 84.8833 115.743 84.6167 115.743 84.31C115.743 83.9967 115.683 83.73 115.563 83.51C115.443 83.29 115.279 83.12 115.073 83C114.866 82.88 114.633 82.82 114.373 82.82C114.113 82.82 113.879 82.88 113.673 83C113.466 83.12 113.299 83.29 113.173 83.51C113.053 83.73 112.993 83.9967 112.993 84.31C112.993 84.6167 113.053 84.8833 113.173 85.11C113.299 85.33 113.466 85.5 113.673 85.62C113.879 85.74 114.113 85.8 114.373 85.8ZM120.636 87.08C120.189 87.08 119.789 86.9933 119.436 86.82C119.089 86.6467 118.819 86.3833 118.626 86.03C118.432 85.67 118.336 85.2133 118.336 84.66V81.62H119.896V84.43C119.896 84.8767 119.989 85.2067 120.176 85.42C120.369 85.6267 120.639 85.73 120.986 85.73C121.226 85.73 121.439 85.68 121.626 85.58C121.812 85.4733 121.959 85.3133 122.066 85.1C122.172 84.88 122.226 84.6067 122.226 84.28V81.62H123.786V87H122.306V85.52L122.576 85.95C122.396 86.3233 122.129 86.6067 121.776 86.8C121.429 86.9867 121.049 87.08 120.636 87.08ZM125.231 87V81.62H126.721V83.14L126.511 82.7C126.671 82.32 126.927 82.0333 127.281 81.84C127.634 81.64 128.064 81.54 128.571 81.54V82.98C128.504 82.9733 128.444 82.97 128.391 82.97C128.337 82.9633 128.281 82.96 128.221 82.96C127.794 82.96 127.447 83.0833 127.181 83.33C126.921 83.57 126.791 83.9467 126.791 84.46V87H125.231ZM132.559 87V81.5C132.559 80.8933 132.739 80.41 133.099 80.05C133.459 79.6833 133.973 79.5 134.639 79.5C134.866 79.5 135.083 79.5233 135.289 79.57C135.503 79.6167 135.683 79.69 135.829 79.79L135.419 80.92C135.333 80.86 135.236 80.8133 135.129 80.78C135.023 80.7467 134.909 80.73 134.789 80.73C134.563 80.73 134.386 80.7967 134.259 80.93C134.139 81.0567 134.079 81.25 134.079 81.51V82.01L134.119 82.68V87H132.559ZM131.729 82.94V81.74H135.459V82.94H131.729ZM136.339 87V81.62H137.899V87H136.339ZM137.119 80.87C136.833 80.87 136.599 80.7867 136.419 80.62C136.239 80.4533 136.149 80.2467 136.149 80C136.149 79.7533 136.239 79.5467 136.419 79.38C136.599 79.2133 136.833 79.13 137.119 79.13C137.406 79.13 137.639 79.21 137.819 79.37C137.999 79.5233 138.089 79.7233 138.089 79.97C138.089 80.23 137.999 80.4467 137.819 80.62C137.646 80.7867 137.413 80.87 137.119 80.87ZM139.342 87V79.58H140.902V87H139.342ZM145.02 87.08C144.407 87.08 143.867 86.96 143.4 86.72C142.94 86.48 142.583 86.1533 142.33 85.74C142.077 85.32 141.95 84.8433 141.95 84.31C141.95 83.77 142.073 83.2933 142.32 82.88C142.573 82.46 142.917 82.1333 143.35 81.9C143.783 81.66 144.273 81.54 144.82 81.54C145.347 81.54 145.82 81.6533 146.24 81.88C146.667 82.1 147.003 82.42 147.25 82.84C147.497 83.2533 147.62 83.75 147.62 84.33C147.62 84.39 147.617 84.46 147.61 84.54C147.603 84.6133 147.597 84.6833 147.59 84.75H143.22V83.84H146.77L146.17 84.11C146.17 83.83 146.113 83.5867 146 83.38C145.887 83.1733 145.73 83.0133 145.53 82.9C145.33 82.78 145.097 82.72 144.83 82.72C144.563 82.72 144.327 82.78 144.12 82.9C143.92 83.0133 143.763 83.1767 143.65 83.39C143.537 83.5967 143.48 83.8433 143.48 84.13V84.37C143.48 84.6633 143.543 84.9233 143.67 85.15C143.803 85.37 143.987 85.54 144.22 85.66C144.46 85.7733 144.74 85.83 145.06 85.83C145.347 85.83 145.597 85.7867 145.81 85.7C146.03 85.6133 146.23 85.4833 146.41 85.31L147.24 86.21C146.993 86.49 146.683 86.7067 146.31 86.86C145.937 87.0067 145.507 87.08 145.02 87.08ZM153.761 87.08C153.314 87.08 152.914 86.9933 152.561 86.82C152.214 86.6467 151.944 86.3833 151.751 86.03C151.557 85.67 151.461 85.2133 151.461 84.66V81.62H153.021V84.43C153.021 84.8767 153.114 85.2067 153.301 85.42C153.494 85.6267 153.764 85.73 154.111 85.73C154.351 85.73 154.564 85.68 154.751 85.58C154.937 85.4733 155.084 85.3133 155.191 85.1C155.297 84.88 155.351 84.6067 155.351 84.28V81.62H156.911V87H155.431V85.52L155.701 85.95C155.521 86.3233 155.254 86.6067 154.901 86.8C154.554 86.9867 154.174 87.08 153.761 87.08ZM161.536 87.08C161.082 87.08 160.686 86.98 160.346 86.78C160.006 86.58 159.739 86.2767 159.546 85.87C159.359 85.4567 159.266 84.9367 159.266 84.31C159.266 83.6767 159.356 83.1567 159.536 82.75C159.716 82.3433 159.976 82.04 160.316 81.84C160.656 81.64 161.062 81.54 161.536 81.54C162.042 81.54 162.496 81.6567 162.896 81.89C163.302 82.1167 163.622 82.4367 163.856 82.85C164.096 83.2633 164.216 83.75 164.216 84.31C164.216 84.8767 164.096 85.3667 163.856 85.78C163.622 86.1933 163.302 86.5133 162.896 86.74C162.496 86.9667 162.042 87.08 161.536 87.08ZM158.356 88.94V81.62H159.846V82.72L159.816 84.32L159.916 85.91V88.94H158.356ZM161.266 85.8C161.526 85.8 161.756 85.74 161.956 85.62C162.162 85.5 162.326 85.33 162.446 85.11C162.572 84.8833 162.636 84.6167 162.636 84.31C162.636 83.9967 162.572 83.73 162.446 83.51C162.326 83.29 162.162 83.12 161.956 83C161.756 82.88 161.526 82.82 161.266 82.82C161.006 82.82 160.772 82.88 160.566 83C160.359 83.12 160.196 83.29 160.076 83.51C159.956 83.73 159.896 83.9967 159.896 84.31C159.896 84.6167 159.956 84.8833 160.076 85.11C160.196 85.33 160.359 85.5 160.566 85.62C160.772 85.74 161.006 85.8 161.266 85.8ZM165.26 87V79.58H166.82V87H165.26ZM170.828 87.08C170.255 87.08 169.745 86.96 169.298 86.72C168.858 86.48 168.508 86.1533 168.248 85.74C167.995 85.32 167.868 84.8433 167.868 84.31C167.868 83.77 167.995 83.2933 168.248 82.88C168.508 82.46 168.858 82.1333 169.298 81.9C169.745 81.66 170.255 81.54 170.828 81.54C171.395 81.54 171.901 81.66 172.348 81.9C172.795 82.1333 173.145 82.4567 173.398 82.87C173.651 83.2833 173.778 83.7633 173.778 84.31C173.778 84.8433 173.651 85.32 173.398 85.74C173.145 86.1533 172.795 86.48 172.348 86.72C171.901 86.96 171.395 87.08 170.828 87.08ZM170.828 85.8C171.088 85.8 171.321 85.74 171.528 85.62C171.735 85.5 171.898 85.33 172.018 85.11C172.138 84.8833 172.198 84.6167 172.198 84.31C172.198 83.9967 172.138 83.73 172.018 83.51C171.898 83.29 171.735 83.12 171.528 83C171.321 82.88 171.088 82.82 170.828 82.82C170.568 82.82 170.335 82.88 170.128 83C169.921 83.12 169.755 83.29 169.628 83.51C169.508 83.73 169.448 83.9967 169.448 84.31C169.448 84.6167 169.508 84.8833 169.628 85.11C169.755 85.33 169.921 85.5 170.128 85.62C170.335 85.74 170.568 85.8 170.828 85.8ZM178.033 87V85.95L177.933 85.72V83.84C177.933 83.5067 177.829 83.2467 177.623 83.06C177.423 82.8733 177.113 82.78 176.693 82.78C176.406 82.78 176.123 82.8267 175.843 82.92C175.569 83.0067 175.336 83.1267 175.143 83.28L174.583 82.19C174.876 81.9833 175.229 81.8233 175.643 81.71C176.056 81.5967 176.476 81.54 176.903 81.54C177.723 81.54 178.359 81.7333 178.813 82.12C179.266 82.5067 179.493 83.11 179.493 83.93V87H178.033ZM176.393 87.08C175.973 87.08 175.613 87.01 175.313 86.87C175.013 86.7233 174.783 86.5267 174.623 86.28C174.463 86.0333 174.383 85.7567 174.383 85.45C174.383 85.13 174.459 84.85 174.613 84.61C174.773 84.37 175.023 84.1833 175.363 84.05C175.703 83.91 176.146 83.84 176.693 83.84H178.123V84.75H176.863C176.496 84.75 176.243 84.81 176.103 84.93C175.969 85.05 175.903 85.2 175.903 85.38C175.903 85.58 175.979 85.74 176.133 85.86C176.293 85.9733 176.509 86.03 176.783 86.03C177.043 86.03 177.276 85.97 177.483 85.85C177.689 85.7233 177.839 85.54 177.933 85.3L178.173 86.02C178.059 86.3667 177.853 86.63 177.553 86.81C177.253 86.99 176.866 87.08 176.393 87.08ZM183.254 87.08C182.747 87.08 182.29 86.9667 181.884 86.74C181.477 86.5067 181.154 86.1833 180.914 85.77C180.68 85.3567 180.564 84.87 180.564 84.31C180.564 83.7433 180.68 83.2533 180.914 82.84C181.154 82.4267 181.477 82.1067 181.884 81.88C182.29 81.6533 182.747 81.54 183.254 81.54C183.707 81.54 184.104 81.64 184.444 81.84C184.784 82.04 185.047 82.3433 185.234 82.75C185.42 83.1567 185.514 83.6767 185.514 84.31C185.514 84.9367 185.424 85.4567 185.244 85.87C185.064 86.2767 184.804 86.58 184.464 86.78C184.13 86.98 183.727 87.08 183.254 87.08ZM183.524 85.8C183.777 85.8 184.007 85.74 184.214 85.62C184.42 85.5 184.584 85.33 184.704 85.11C184.83 84.8833 184.894 84.6167 184.894 84.31C184.894 83.9967 184.83 83.73 184.704 83.51C184.584 83.29 184.42 83.12 184.214 83C184.007 82.88 183.777 82.82 183.524 82.82C183.264 82.82 183.03 82.88 182.824 83C182.617 83.12 182.45 83.29 182.324 83.51C182.204 83.73 182.144 83.9967 182.144 84.31C182.144 84.6167 182.204 84.8833 182.324 85.11C182.45 85.33 182.617 85.5 182.824 85.62C183.03 85.74 183.264 85.8 183.524 85.8ZM184.934 87V85.9L184.964 84.3L184.864 82.71V79.58H186.424V87H184.934ZM190.537 87.08C189.924 87.08 189.384 86.96 188.917 86.72C188.457 86.48 188.101 86.1533 187.847 85.74C187.594 85.32 187.467 84.8433 187.467 84.31C187.467 83.77 187.591 83.2933 187.837 82.88C188.091 82.46 188.434 82.1333 188.867 81.9C189.301 81.66 189.791 81.54 190.337 81.54C190.864 81.54 191.337 81.6533 191.757 81.88C192.184 82.1 192.521 82.42 192.767 82.84C193.014 83.2533 193.137 83.75 193.137 84.33C193.137 84.39 193.134 84.46 193.127 84.54C193.121 84.6133 193.114 84.6833 193.107 84.75H188.737V83.84H192.287L191.687 84.11C191.687 83.83 191.631 83.5867 191.517 83.38C191.404 83.1733 191.247 83.0133 191.047 82.9C190.847 82.78 190.614 82.72 190.347 82.72C190.081 82.72 189.844 82.78 189.637 82.9C189.437 83.0133 189.281 83.1767 189.167 83.39C189.054 83.5967 188.997 83.8433 188.997 84.13V84.37C188.997 84.6633 189.061 84.9233 189.187 85.15C189.321 85.37 189.504 85.54 189.737 85.66C189.977 85.7733 190.257 85.83 190.577 85.83C190.864 85.83 191.114 85.7867 191.327 85.7C191.547 85.6133 191.747 85.4833 191.927 85.31L192.757 86.21C192.511 86.49 192.201 86.7067 191.827 86.86C191.454 87.0067 191.024 87.08 190.537 87.08ZM196.486 87.08C195.979 87.08 195.523 86.9667 195.116 86.74C194.709 86.5067 194.386 86.1833 194.146 85.77C193.913 85.3567 193.796 84.87 193.796 84.31C193.796 83.7433 193.913 83.2533 194.146 82.84C194.386 82.4267 194.709 82.1067 195.116 81.88C195.523 81.6533 195.979 81.54 196.486 81.54C196.939 81.54 197.336 81.64 197.676 81.84C198.016 82.04 198.279 82.3433 198.466 82.75C198.653 83.1567 198.746 83.6767 198.746 84.31C198.746 84.9367 198.656 85.4567 198.476 85.87C198.296 86.2767 198.036 86.58 197.696 86.78C197.363 86.98 196.959 87.08 196.486 87.08ZM196.756 85.8C197.009 85.8 197.239 85.74 197.446 85.62C197.653 85.5 197.816 85.33 197.936 85.11C198.063 84.8833 198.126 84.6167 198.126 84.31C198.126 83.9967 198.063 83.73 197.936 83.51C197.816 83.29 197.653 83.12 197.446 83C197.239 82.88 197.009 82.82 196.756 82.82C196.496 82.82 196.263 82.88 196.056 83C195.849 83.12 195.683 83.29 195.556 83.51C195.436 83.73 195.376 83.9967 195.376 84.31C195.376 84.6167 195.436 84.8833 195.556 85.11C195.683 85.33 195.849 85.5 196.056 85.62C196.263 85.74 196.496 85.8 196.756 85.8ZM198.166 87V85.9L198.196 84.3L198.096 82.71V79.58H199.656V87H198.166Z" fill="#F5F5F5"/>
<rect x="11" y="93" width="240" height="16" rx="8" fill="#1FC16B" fill-opacity="0.5"/>
<rect x="11.5" y="93.5" width="239" height="15" rx="7.5" stroke="#1FC16B" stroke-opacity="0.3"/>
<g filter="url(#filter1_ii_1216_20165)">
<rect x="11" y="93" width="63" height="16" rx="8" fill="#1FC16B"/>
<rect x="11.5" y="93.5" width="62" height="15" rx="7.5" stroke="#1FC16B" stroke-opacity="0.5"/>
</g>
<path opacity="0.5" d="M249.667 14.9987C249.667 18.6807 246.682 21.6654 243 21.6654C239.318 21.6654 236.333 18.6807 236.333 14.9987C236.333 11.3167 239.318 8.33203 243 8.33203C246.682 8.33203 249.667 11.3167 249.667 14.9987Z" fill="#AFAFAF"/>
<path d="M240.98 12.9795C241.074 12.8858 241.201 12.8332 241.334 12.8332C241.466 12.8332 241.593 12.8858 241.687 12.9795L243 14.2928L244.314 12.9795C244.359 12.9303 244.415 12.8909 244.476 12.8636C244.537 12.8363 244.603 12.8216 244.671 12.8204C244.738 12.8192 244.804 12.8316 244.867 12.8567C244.929 12.8819 244.985 12.9193 245.033 12.9668C245.08 13.0142 245.118 13.0708 245.143 13.1331C245.168 13.1953 245.18 13.262 245.179 13.3291C245.178 13.3963 245.163 13.4625 245.136 13.5238C245.109 13.5851 245.069 13.6403 245.02 13.6861L243.707 14.9995L245.02 16.3128C245.109 16.4076 245.157 16.5329 245.154 16.6625C245.152 16.792 245.1 16.9156 245.008 17.0072C244.916 17.0988 244.793 17.1513 244.663 17.1536C244.534 17.1559 244.408 17.1078 244.314 17.0195L243 15.7061L241.687 17.0195C241.592 17.1078 241.467 17.1559 241.337 17.1536C241.208 17.1513 241.084 17.0988 240.992 17.0072C240.901 16.9156 240.848 16.792 240.846 16.6625C240.844 16.5329 240.892 16.4076 240.98 16.3128L242.294 14.9995L240.98 13.6861C240.887 13.5924 240.834 13.4653 240.834 13.3328C240.834 13.2003 240.887 13.0732 240.98 12.9795Z" fill="#F5F5F5"/>
</g>
<defs>
<filter id="filter0_dd_1216_20165" x="0" y="0" width="262" height="150" filterUnits="userSpaceOnUse" color-interpolation-filters="sRGB">
<feFlood flood-opacity="0" result="BackgroundImageFix"/>
<feColorMatrix in="SourceAlpha" type="matrix" values="0 0 0 0 0 0 0 0 0 0 0 0 0 0 0 0 0 0 127 0" result="hardAlpha"/>
<feOffset dy="1"/>
<feGaussianBlur stdDeviation="1.5"/>
<feColorMatrix type="matrix" values="0 0 0 0 0 0 0 0 0 0 0 0 0 0 0 0 0 0 0.3 0"/>
<feBlend mode="normal" in2="BackgroundImageFix" result="effect1_dropShadow_1216_20165"/>
<feColorMatrix in="SourceAlpha" type="matrix" values="0 0 0 0 0 0 0 0 0 0 0 0 0 0 0 0 0 0 127 0" result="hardAlpha"/>
<feMorphology radius="3" operator="dilate" in="SourceAlpha" result="effect2_dropShadow_1216_20165"/>
<feOffset dy="4"/>
<feGaussianBlur stdDeviation="4"/>
<feColorMatrix type="matrix" values="0 0 0 0 0 0 0 0 0 0 0 0 0 0 0 0 0 0 0.15 0"/>
<feBlend mode="normal" in2="effect1_dropShadow_1216_20165" result="effect2_dropShadow_1216_20165"/>
<feBlend mode="normal" in="SourceGraphic" in2="effect2_dropShadow_1216_20165" result="shape"/>
</filter>
<filter id="filter1_ii_1216_20165" x="11" y="90" width="63" height="22" filterUnits="userSpaceOnUse" color-interpolation-filters="sRGB">
<feFlood flood-opacity="0" result="BackgroundImageFix"/>
<feBlend mode="normal" in="SourceGraphic" in2="BackgroundImageFix" result="shape"/>
<feColorMatrix in="SourceAlpha" type="matrix" values="0 0 0 0 0 0 0 0 0 0 0 0 0 0 0 0 0 0 127 0" result="hardAlpha"/>
<feOffset dy="-4"/>
<feGaussianBlur stdDeviation="1.5"/>
<feComposite in2="hardAlpha" operator="arithmetic" k2="-1" k3="1"/>
<feColorMatrix type="matrix" values="0 0 0 0 0 0 0 0 0 0 0 0 0 0 0 0 0 0 0.4 0"/>
<feBlend mode="normal" in2="shape" result="effect1_innerShadow_1216_20165"/>
<feColorMatrix in="SourceAlpha" type="matrix" values="0 0 0 0 0 0 0 0 0 0 0 0 0 0 0 0 0 0 127 0" result="hardAlpha"/>
<feOffset dy="4"/>
<feGaussianBlur stdDeviation="1.5"/>
<feComposite in2="hardAlpha" operator="arithmetic" k2="-1" k3="1"/>
<feColorMatrix type="matrix" values="0 0 0 0 0.960784 0 0 0 0 0.960784 0 0 0 0 0.960784 0 0 0 0.6 0"/>
<feBlend mode="normal" in2="effect1_innerShadow_1216_20165" result="effect2_innerShadow_1216_20165"/>
</filter>
</defs>
</svg>
