<svg width="150" height="150" viewBox="0 0 150 150" fill="none" xmlns="http://www.w3.org/2000/svg">
<g filter="url(#filter0_dd_1464_26328)">
<rect x="11" y="7" width="128" height="128" rx="8" fill="#DEDEDE" fill-opacity="0.5"/>
<rect width="128" height="44" transform="translate(11 49)" fill="#222222" fill-opacity="0.75"/>
<path d="M74 72.7322V66.7322M74 66.7322L71.5 69.2322M74 66.7322L76.5 69.2322M78 64.2868V61C78 60.4696 77.7893 59.9609 77.4142 59.5858C77.0391 59.2107 76.5304 59 76 59H68C67.4696 59 66.9609 59.2107 66.5858 59.5858C66.2107 59.9609 66 60.4696 66 61V69C66 69.5304 66.2107 70.0391 66.5858 70.4142C66.9609 70.7893 67.4696 71 68 71H70M78 63L82.553 60.724C82.7054 60.6478 82.8748 60.6119 83.045 60.6195C83.2152 60.6272 83.3806 60.6782 83.5256 60.7678C83.6706 60.8574 83.7902 60.9825 83.8733 61.1313C83.9563 61.2801 83.9999 61.4476 84 61.618V68.382C83.9999 68.5524 83.9563 68.7199 83.8733 68.8687C83.7902 69.0175 83.6706 69.1426 83.5256 69.2322C83.3806 69.3218 83.2152 69.3728 83.045 69.3805C82.8748 69.3881 82.7054 69.3522 82.553 69.276L78 67V65V63Z" stroke="#F5F5F5" stroke-width="2" stroke-linecap="round" stroke-linejoin="round"/>
<path d="M60.2437 87.12C59.2504 87.12 58.4737 86.8433 57.9137 86.29C57.3537 85.7367 57.0737 84.9467 57.0737 83.92V80H58.6937V83.86C58.6937 84.5267 58.8304 85.0067 59.1037 85.3C59.377 85.5933 59.7604 85.74 60.2537 85.74C60.747 85.74 61.1304 85.5933 61.4037 85.3C61.677 85.0067 61.8137 84.5267 61.8137 83.86V80H63.4137V83.92C63.4137 84.9467 63.1337 85.7367 62.5737 86.29C62.0137 86.8433 61.237 87.12 60.2437 87.12ZM68.0846 87.08C67.6312 87.08 67.2346 86.98 66.8946 86.78C66.5546 86.58 66.2879 86.2767 66.0946 85.87C65.9079 85.4567 65.8146 84.9367 65.8146 84.31C65.8146 83.6767 65.9046 83.1567 66.0846 82.75C66.2646 82.3433 66.5246 82.04 66.8646 81.84C67.2046 81.64 67.6112 81.54 68.0846 81.54C68.5912 81.54 69.0446 81.6567 69.4446 81.89C69.8512 82.1167 70.1712 82.4367 70.4046 82.85C70.6446 83.2633 70.7646 83.75 70.7646 84.31C70.7646 84.8767 70.6446 85.3667 70.4046 85.78C70.1712 86.1933 69.8512 86.5133 69.4446 86.74C69.0446 86.9667 68.5912 87.08 68.0846 87.08ZM64.9046 88.94V81.62H66.3946V82.72L66.3646 84.32L66.4646 85.91V88.94H64.9046ZM67.8146 85.8C68.0746 85.8 68.3046 85.74 68.5046 85.62C68.7112 85.5 68.8746 85.33 68.9946 85.11C69.1212 84.8833 69.1846 84.6167 69.1846 84.31C69.1846 83.9967 69.1212 83.73 68.9946 83.51C68.8746 83.29 68.7112 83.12 68.5046 83C68.3046 82.88 68.0746 82.82 67.8146 82.82C67.5546 82.82 67.3212 82.88 67.1146 83C66.9079 83.12 66.7446 83.29 66.6246 83.51C66.5046 83.73 66.4446 83.9967 66.4446 84.31C66.4446 84.6167 66.5046 84.8833 66.6246 85.11C66.7446 85.33 66.9079 85.5 67.1146 85.62C67.3212 85.74 67.5546 85.8 67.8146 85.8ZM71.8089 87V79.58H73.3689V87H71.8089ZM77.3767 87.08C76.8033 87.08 76.2933 86.96 75.8467 86.72C75.4067 86.48 75.0567 86.1533 74.7967 85.74C74.5433 85.32 74.4167 84.8433 74.4167 84.31C74.4167 83.77 74.5433 83.2933 74.7967 82.88C75.0567 82.46 75.4067 82.1333 75.8467 81.9C76.2933 81.66 76.8033 81.54 77.3767 81.54C77.9433 81.54 78.45 81.66 78.8967 81.9C79.3433 82.1333 79.6933 82.4567 79.9467 82.87C80.2 83.2833 80.3267 83.7633 80.3267 84.31C80.3267 84.8433 80.2 85.32 79.9467 85.74C79.6933 86.1533 79.3433 86.48 78.8967 86.72C78.45 86.96 77.9433 87.08 77.3767 87.08ZM77.3767 85.8C77.6367 85.8 77.87 85.74 78.0767 85.62C78.2833 85.5 78.4467 85.33 78.5667 85.11C78.6867 84.8833 78.7467 84.6167 78.7467 84.31C78.7467 83.9967 78.6867 83.73 78.5667 83.51C78.4467 83.29 78.2833 83.12 78.0767 83C77.87 82.88 77.6367 82.82 77.3767 82.82C77.1167 82.82 76.8833 82.88 76.6767 83C76.47 83.12 76.3033 83.29 76.1767 83.51C76.0567 83.73 75.9967 83.9967 75.9967 84.31C75.9967 84.6167 76.0567 84.8833 76.1767 85.11C76.3033 85.33 76.47 85.5 76.6767 85.62C76.8833 85.74 77.1167 85.8 77.3767 85.8ZM84.5815 87V85.95L84.4815 85.72V83.84C84.4815 83.5067 84.3782 83.2467 84.1715 83.06C83.9715 82.8733 83.6615 82.78 83.2415 82.78C82.9549 82.78 82.6715 82.8267 82.3915 82.92C82.1182 83.0067 81.8849 83.1267 81.6915 83.28L81.1315 82.19C81.4249 81.9833 81.7782 81.8233 82.1915 81.71C82.6049 81.5967 83.0249 81.54 83.4515 81.54C84.2715 81.54 84.9082 81.7333 85.3615 82.12C85.8149 82.5067 86.0415 83.11 86.0415 83.93V87H84.5815ZM82.9415 87.08C82.5215 87.08 82.1615 87.01 81.8615 86.87C81.5615 86.7233 81.3315 86.5267 81.1715 86.28C81.0115 86.0333 80.9315 85.7567 80.9315 85.45C80.9315 85.13 81.0082 84.85 81.1615 84.61C81.3215 84.37 81.5715 84.1833 81.9115 84.05C82.2515 83.91 82.6949 83.84 83.2415 83.84H84.6715V84.75H83.4115C83.0449 84.75 82.7915 84.81 82.6515 84.93C82.5182 85.05 82.4515 85.2 82.4515 85.38C82.4515 85.58 82.5282 85.74 82.6815 85.86C82.8415 85.9733 83.0582 86.03 83.3315 86.03C83.5915 86.03 83.8249 85.97 84.0315 85.85C84.2382 85.7233 84.3882 85.54 84.4815 85.3L84.7215 86.02C84.6082 86.3667 84.4015 86.63 84.1015 86.81C83.8015 86.99 83.4149 87.08 82.9415 87.08ZM89.8025 87.08C89.2958 87.08 88.8391 86.9667 88.4325 86.74C88.0258 86.5067 87.7025 86.1833 87.4625 85.77C87.2291 85.3567 87.1125 84.87 87.1125 84.31C87.1125 83.7433 87.2291 83.2533 87.4625 82.84C87.7025 82.4267 88.0258 82.1067 88.4325 81.88C88.8391 81.6533 89.2958 81.54 89.8025 81.54C90.2558 81.54 90.6525 81.64 90.9925 81.84C91.3325 82.04 91.5958 82.3433 91.7825 82.75C91.9691 83.1567 92.0625 83.6767 92.0625 84.31C92.0625 84.9367 91.9725 85.4567 91.7925 85.87C91.6125 86.2767 91.3525 86.58 91.0125 86.78C90.6791 86.98 90.2758 87.08 89.8025 87.08ZM90.0725 85.8C90.3258 85.8 90.5558 85.74 90.7625 85.62C90.9691 85.5 91.1325 85.33 91.2525 85.11C91.3791 84.8833 91.4425 84.6167 91.4425 84.31C91.4425 83.9967 91.3791 83.73 91.2525 83.51C91.1325 83.29 90.9691 83.12 90.7625 83C90.5558 82.88 90.3258 82.82 90.0725 82.82C89.8125 82.82 89.5791 82.88 89.3725 83C89.1658 83.12 88.9991 83.29 88.8725 83.51C88.7525 83.73 88.6925 83.9967 88.6925 84.31C88.6925 84.6167 88.7525 84.8833 88.8725 85.11C88.9991 85.33 89.1658 85.5 89.3725 85.62C89.5791 85.74 89.8125 85.8 90.0725 85.8ZM91.4825 87V85.9L91.5125 84.3L91.4125 82.71V79.58H92.9725V87H91.4825Z" fill="#F5F5F5"/>
</g>
<defs>
<filter id="filter0_dd_1464_26328" x="0" y="0" width="150" height="150" filterUnits="userSpaceOnUse" color-interpolation-filters="sRGB">
<feFlood flood-opacity="0" result="BackgroundImageFix"/>
<feColorMatrix in="SourceAlpha" type="matrix" values="0 0 0 0 0 0 0 0 0 0 0 0 0 0 0 0 0 0 127 0" result="hardAlpha"/>
<feOffset dy="1"/>
<feGaussianBlur stdDeviation="1.5"/>
<feColorMatrix type="matrix" values="0 0 0 0 0 0 0 0 0 0 0 0 0 0 0 0 0 0 0.3 0"/>
<feBlend mode="normal" in2="BackgroundImageFix" result="effect1_dropShadow_1464_26328"/>
<feColorMatrix in="SourceAlpha" type="matrix" values="0 0 0 0 0 0 0 0 0 0 0 0 0 0 0 0 0 0 127 0" result="hardAlpha"/>
<feMorphology radius="3" operator="dilate" in="SourceAlpha" result="effect2_dropShadow_1464_26328"/>
<feOffset dy="4"/>
<feGaussianBlur stdDeviation="4"/>
<feColorMatrix type="matrix" values="0 0 0 0 0 0 0 0 0 0 0 0 0 0 0 0 0 0 0.15 0"/>
<feBlend mode="normal" in2="effect1_dropShadow_1464_26328" result="effect2_dropShadow_1464_26328"/>
<feBlend mode="normal" in="SourceGraphic" in2="effect2_dropShadow_1464_26328" result="shape"/>
</filter>
</defs>
</svg>
