<svg width="18" height="18" viewBox="0 0 18 18" fill="none" xmlns="http://www.w3.org/2000/svg">
<path d="M5.25 11.2536V5.25361C5.25 5.0547 5.17098 4.86393 5.03033 4.72328C4.88968 4.58263 4.69891 4.50361 4.5 4.50361H3C2.80109 4.50361 2.61032 4.58263 2.46967 4.72328C2.32902 4.86393 2.25 5.0547 2.25 5.25361V10.5036C2.25 10.7025 2.32902 10.8933 2.46967 11.0339C2.61032 11.1746 2.80109 11.2536 3 11.2536H5.25ZM5.25 11.2536C6.04565 11.2536 6.80871 11.5697 7.37132 12.1323C7.93393 12.6949 8.25 13.458 8.25 14.2536V15.0036C8.25 15.4014 8.40804 15.783 8.68934 16.0643C8.97064 16.3456 9.35218 16.5036 9.75 16.5036C10.1478 16.5036 10.5294 16.3456 10.8107 16.0643C11.092 15.783 11.25 15.4014 11.25 15.0036V11.2536H13.5C13.8978 11.2536 14.2794 11.0956 14.5607 10.8143C14.842 10.533 15 10.1514 15 9.75361L14.25 6.00361C14.1421 5.54351 13.9375 5.14843 13.667 4.87789C13.3964 4.60735 13.0746 4.47599 12.75 4.50361H7.5C6.90326 4.50361 6.33097 4.74066 5.90901 5.16262C5.48705 5.58458 5.25 6.15687 5.25 6.75361" stroke="#F5F5F5" stroke-linecap="round" stroke-linejoin="round"/>
</svg>
