<svg width="15" height="13" viewBox="0 0 15 13" fill="none" xmlns="http://www.w3.org/2000/svg">
<path d="M4.25 5.75V11.75C4.25 11.9489 4.17098 12.1397 4.03033 12.2803C3.88968 12.421 3.69891 12.5 3.5 12.5H2C1.80109 12.5 1.61032 12.421 1.46967 12.2803C1.32902 12.1397 1.25 11.9489 1.25 11.75V6.5C1.25 6.30109 1.32902 6.11032 1.46967 5.96967C1.61032 5.82902 1.80109 5.75 2 5.75H4.25ZM4.25 5.75C5.04565 5.75 5.80871 5.43393 6.37132 4.87132C6.93393 4.30871 7.25 3.54565 7.25 2.75V2C7.25 1.60218 7.40804 1.22064 7.68934 0.93934C7.97064 0.658035 8.35218 0.5 8.75 0.5C9.14782 0.5 9.52936 0.658035 9.81066 0.93934C10.092 1.22064 10.25 1.60218 10.25 2V5.75H12.5C12.8978 5.75 13.2794 5.90804 13.5607 6.18934C13.842 6.47064 14 6.85218 14 7.25L13.25 11C13.1421 11.4601 12.9375 11.8552 12.667 12.1257C12.3964 12.3963 12.0746 12.5276 11.75 12.5H6.5C5.90326 12.5 5.33097 12.2629 4.90901 11.841C4.48705 11.419 4.25 10.8467 4.25 10.25" stroke="#F5F5F5" stroke-linecap="round" stroke-linejoin="round"/>
</svg>
