<svg width="21" height="22" viewBox="0 0 21 22" fill="none" xmlns="http://www.w3.org/2000/svg">
<path d="M19.5 20L13.5 14M1.5 9C1.5 9.91925 1.68106 10.8295 2.03284 11.6788C2.38463 12.5281 2.90024 13.2997 3.55025 13.9497C4.20026 14.5998 4.97194 15.1154 5.82122 15.4672C6.6705 15.8189 7.58075 16 8.5 16C9.41925 16 10.3295 15.8189 11.1788 15.4672C12.0281 15.1154 12.7997 14.5998 13.4497 13.9497C14.0998 13.2997 14.6154 12.5281 14.9672 11.6788C15.3189 10.8295 15.5 9.91925 15.5 9C15.5 8.08075 15.3189 7.1705 14.9672 6.32122C14.6154 5.47194 14.0998 4.70026 13.4497 4.05025C12.7997 3.40024 12.0281 2.88463 11.1788 2.53284C10.3295 2.18106 9.41925 2 8.5 2C7.58075 2 6.6705 2.18106 5.82122 2.53284C4.97194 2.88463 4.20026 3.40024 3.55025 4.05025C2.90024 4.70026 2.38463 5.47194 2.03284 6.32122C1.68106 7.1705 1.5 8.08075 1.5 9Z" stroke="#F5F5F5" stroke-width="2.5" stroke-linecap="round" stroke-linejoin="round"/>
</svg>
